<ttFont>
    <TTGlyph name="A" xMin="0" yMin="0" xMax="1487" yMax="1468">
      <contour>
        <pt x="1487" y="0" on="1"/>
        <pt x="1055" y="0" on="1"/>
        <pt x="982" y="274" on="1"/>
        <pt x="508" y="274" on="1"/>
        <pt x="434" y="0" on="1"/>
        <pt x="0" y="0" on="1"/>
        <pt x="477" y="1468" on="1"/>
        <pt x="1004" y="1468" on="1"/>
      </contour>
      <contour>
        <pt x="901" y="598" on="1"/>
        <pt x="838" y="838" on="1"/>
        <pt x="773" y="1067" on="0"/>
        <pt x="743" y="1227" on="1"/>
        <pt x="734" y="1176" on="0"/>
        <pt x="707" y="1059" on="1"/>
        <pt x="683" y="946" on="0"/>
        <pt x="590" y="598" on="1"/>
      </contour>
    </TTGlyph>
    <TTGlyph name="AE" xMin="-10" yMin="0" xMax="1839" yMax="1462">
      <contour>
        <pt x="1839" y="1145" on="1"/>
        <pt x="1366" y="1145" on="1"/>
        <pt x="1366" y="915" on="1"/>
        <pt x="1804" y="915" on="1"/>
        <pt x="1804" y="598" on="1"/>
        <pt x="1366" y="598" on="1"/>
        <pt x="1366" y="322" on="1"/>
        <pt x="1839" y="322" on="1"/>
        <pt x="1839" y="0" on="1"/>
        <pt x="969" y="0" on="1"/>
        <pt x="969" y="274" on="1"/>
        <pt x="532" y="274" on="1"/>
        <pt x="432" y="0" on="1"/>
        <pt x="-10" y="0" on="1"/>
        <pt x="618" y="1462" on="1"/>
        <pt x="1839" y="1462" on="1"/>
      </contour>
      <contour>
        <pt x="969" y="602" on="1"/>
        <pt x="969" y="1128" on="1"/>
        <pt x="858" y="1128" on="1"/>
        <pt x="653" y="602" on="1"/>
      </contour>
    </TTGlyph>
    <TTGlyph name="Aacute" xMin="0" yMin="0" xMax="1487" yMax="1913">
      <contour>
        <pt x="1090" y="1913" on="1"/>
        <pt x="1090" y="1892" on="1"/>
        <pt x="1022" y="1837" on="0"/>
        <pt x="734" y="1633" on="0"/>
        <pt x="658" y="1585" on="1"/>
        <pt x="398" y="1585" on="1"/>
        <pt x="398" y="1614" on="1"/>
        <pt x="552" y="1779" on="0"/>
        <pt x="633" y="1873" on="0"/>
        <pt x="662" y="1913" on="1"/>
      </contour>
      <contour>
        <pt x="1055" y="0" on="1"/>
        <pt x="982" y="274" on="1"/>
        <pt x="508" y="274" on="1"/>
        <pt x="434" y="0" on="1"/>
        <pt x="0" y="0" on="1"/>
        <pt x="477" y="1468" on="1"/>
        <pt x="1004" y="1468" on="1"/>
        <pt x="1487" y="0" on="1"/>
      </contour>
      <contour>
        <pt x="901" y="598" on="1"/>
        <pt x="838" y="838" on="1"/>
        <pt x="773" y="1067" on="0"/>
        <pt x="743" y="1227" on="1"/>
        <pt x="734" y="1176" on="0"/>
        <pt x="707" y="1059" on="1"/>
        <pt x="683" y="946" on="0"/>
        <pt x="590" y="598" on="1"/>
      </contour>
    </TTGlyph>
    <TTGlyph name="Acircumflex" xMin="0" yMin="0" xMax="1487" yMax="1913">
      <contour>
        <pt x="1198" y="1585" on="1"/>
        <pt x="944" y="1585" on="1"/>
        <pt x="860" y="1633" on="0"/>
        <pt x="743" y="1735" on="1"/>
        <pt x="620" y="1630" on="0"/>
        <pt x="549" y="1585" on="1"/>
        <pt x="291" y="1585" on="1"/>
        <pt x="291" y="1614" on="1"/>
        <pt x="360" y="1678" on="0"/>
        <pt x="514" y="1858" on="0"/>
        <pt x="549" y="1913" on="1"/>
        <pt x="942" y="1913" on="1"/>
        <pt x="1039" y="1773" on="0"/>
        <pt x="1198" y="1614" on="1"/>
      </contour>
      <contour>
        <pt x="1055" y="0" on="1"/>
        <pt x="982" y="274" on="1"/>
        <pt x="508" y="274" on="1"/>
        <pt x="434" y="0" on="1"/>
        <pt x="0" y="0" on="1"/>
        <pt x="477" y="1468" on="1"/>
        <pt x="1004" y="1468" on="1"/>
        <pt x="1487" y="0" on="1"/>
      </contour>
      <contour>
        <pt x="901" y="598" on="1"/>
        <pt x="838" y="838" on="1"/>
        <pt x="773" y="1067" on="0"/>
        <pt x="743" y="1227" on="1"/>
        <pt x="734" y="1176" on="0"/>
        <pt x="707" y="1059" on="1"/>
        <pt x="683" y="946" on="0"/>
        <pt x="590" y="598" on="1"/>
      </contour>
    </TTGlyph>
    <TTGlyph name="Adieresis" xMin="0" yMin="0" xMax="1487" yMax="1915">
      <contour>
        <pt x="423" y="1915" on="0"/>
        <pt x="581" y="1915" on="0"/>
        <pt x="674" y="1830" on="0"/>
        <pt x="674" y="1686" on="0"/>
        <pt x="581" y="1601" on="0"/>
        <pt x="423" y="1601" on="0"/>
        <pt x="332" y="1683" on="0"/>
        <pt x="332" y="1831" on="0"/>
      </contour>
      <contour>
        <pt x="811" y="1832" on="0"/>
        <pt x="902" y="1915" on="0"/>
        <pt x="1062" y="1915" on="0"/>
        <pt x="1156" y="1829" on="0"/>
        <pt x="1156" y="1686" on="0"/>
        <pt x="1062" y="1601" on="0"/>
        <pt x="902" y="1601" on="0"/>
        <pt x="811" y="1684" on="0"/>
      </contour>
      <contour>
        <pt x="1055" y="0" on="1"/>
        <pt x="982" y="274" on="1"/>
        <pt x="508" y="274" on="1"/>
        <pt x="434" y="0" on="1"/>
        <pt x="0" y="0" on="1"/>
        <pt x="477" y="1468" on="1"/>
        <pt x="1004" y="1468" on="1"/>
        <pt x="1487" y="0" on="1"/>
      </contour>
      <contour>
        <pt x="901" y="598" on="1"/>
        <pt x="838" y="838" on="1"/>
        <pt x="773" y="1067" on="0"/>
        <pt x="743" y="1227" on="1"/>
        <pt x="734" y="1176" on="0"/>
        <pt x="707" y="1059" on="1"/>
        <pt x="683" y="946" on="0"/>
        <pt x="590" y="598" on="1"/>
      </contour>
    </TTGlyph>
    <TTGlyph name="Agrave" xMin="0" yMin="0" xMax="1487" yMax="1913">
      <contour>
        <pt x="398" y="1913" on="1"/>
        <pt x="828" y="1913" on="1"/>
        <pt x="881" y="1842" on="0"/>
        <pt x="1031" y="1680" on="1"/>
        <pt x="1090" y="1614" on="1"/>
        <pt x="1090" y="1585" on="1"/>
        <pt x="830" y="1585" on="1"/>
        <pt x="761" y="1628" on="0"/>
        <pt x="507" y="1807" on="0"/>
        <pt x="398" y="1892" on="1"/>
      </contour>
      <contour>
        <pt x="1055" y="0" on="1"/>
        <pt x="982" y="274" on="1"/>
        <pt x="508" y="274" on="1"/>
        <pt x="434" y="0" on="1"/>
        <pt x="0" y="0" on="1"/>
        <pt x="477" y="1468" on="1"/>
        <pt x="1004" y="1468" on="1"/>
        <pt x="1487" y="0" on="1"/>
      </contour>
      <contour>
        <pt x="901" y="598" on="1"/>
        <pt x="838" y="838" on="1"/>
        <pt x="773" y="1067" on="0"/>
        <pt x="743" y="1227" on="1"/>
        <pt x="734" y="1176" on="0"/>
        <pt x="707" y="1059" on="1"/>
        <pt x="683" y="946" on="0"/>
        <pt x="590" y="598" on="1"/>
      </contour>
    </TTGlyph>
    <TTGlyph name="Aring" xMin="0" yMin="0" xMax="1487" yMax="1827">
      <contour>
        <pt x="481" y="1573" on="1"/>
        <pt x="481" y="1689" on="0"/>
        <pt x="624" y="1827" on="0"/>
        <pt x="863" y="1827" on="0"/>
        <pt x="1017" y="1686" on="0"/>
        <pt x="1017" y="1575" on="1"/>
        <pt x="1017" y="1518" on="0"/>
        <pt x="995" y="1468" on="1"/>
        <pt x="1004" y="1468" on="1"/>
        <pt x="1487" y="0" on="1"/>
        <pt x="1055" y="0" on="1"/>
        <pt x="982" y="274" on="1"/>
        <pt x="508" y="274" on="1"/>
        <pt x="434" y="0" on="1"/>
        <pt x="0" y="0" on="1"/>
        <pt x="477" y="1468" on="1"/>
        <pt x="500" y="1468" on="1"/>
        <pt x="481" y="1517" on="0"/>
      </contour>
      <contour>
        <pt x="781" y="1657" on="0"/>
        <pt x="709" y="1657" on="0"/>
        <pt x="661" y="1611" on="0"/>
        <pt x="661" y="1535" on="0"/>
        <pt x="704" y="1489" on="0"/>
        <pt x="781" y="1489" on="0"/>
        <pt x="829" y="1537" on="0"/>
        <pt x="829" y="1611" on="0"/>
      </contour>
      <contour>
        <pt x="901" y="598" on="1"/>
        <pt x="838" y="838" on="1"/>
        <pt x="773" y="1067" on="0"/>
        <pt x="743" y="1227" on="1"/>
        <pt x="734" y="1176" on="0"/>
        <pt x="707" y="1059" on="1"/>
        <pt x="683" y="946" on="0"/>
        <pt x="590" y="598" on="1"/>
      </contour>
    </TTGlyph>
    <TTGlyph name="Atilde" xMin="0" yMin="0" xMax="1487" yMax="1925">
      <contour>
        <pt x="919" y="1583" on="1"/>
        <pt x="856" y="1583" on="0"/>
        <pt x="622" y="1679" on="0"/>
        <pt x="575" y="1679" on="1"/>
        <pt x="521" y="1679" on="0"/>
        <pt x="503" y="1581" on="1"/>
        <pt x="323" y="1581" on="1"/>
        <pt x="334" y="1756" on="0"/>
        <pt x="456" y="1923" on="0"/>
        <pt x="575" y="1923" on="1"/>
        <pt x="626" y="1923" on="0"/>
        <pt x="860" y="1827" on="0"/>
        <pt x="911" y="1827" on="1"/>
        <pt x="965" y="1827" on="0"/>
        <pt x="983" y="1925" on="1"/>
        <pt x="1165" y="1925" on="1"/>
        <pt x="1154" y="1758" on="0"/>
        <pt x="1028" y="1583" on="0"/>
      </contour>
      <contour>
        <pt x="1055" y="0" on="1"/>
        <pt x="982" y="274" on="1"/>
        <pt x="508" y="274" on="1"/>
        <pt x="434" y="0" on="1"/>
        <pt x="0" y="0" on="1"/>
        <pt x="477" y="1468" on="1"/>
        <pt x="1004" y="1468" on="1"/>
        <pt x="1487" y="0" on="1"/>
      </contour>
      <contour>
        <pt x="901" y="598" on="1"/>
        <pt x="838" y="838" on="1"/>
        <pt x="773" y="1067" on="0"/>
        <pt x="743" y="1227" on="1"/>
        <pt x="734" y="1176" on="0"/>
        <pt x="707" y="1059" on="1"/>
        <pt x="683" y="946" on="0"/>
        <pt x="590" y="598" on="1"/>
      </contour>
    </TTGlyph>
    <TTGlyph name="B" xMin="158" yMin="0" xMax="1284" yMax="1462">
      <contour>
        <pt x="158" y="1462" on="1"/>
        <pt x="668" y="1462" on="1"/>
        <pt x="967" y="1462" on="0"/>
        <pt x="1255" y="1284" on="0"/>
        <pt x="1255" y="1098" on="1"/>
        <pt x="1255" y="975" on="0"/>
        <pt x="1129" y="801" on="0"/>
        <pt x="1026" y="776" on="1"/>
        <pt x="1026" y="766" on="1"/>
        <pt x="1160" y="730" on="0"/>
        <pt x="1284" y="564" on="0"/>
        <pt x="1284" y="428" on="1"/>
        <pt x="1284" y="230" on="0"/>
        <pt x="986" y="0" on="0"/>
        <pt x="727" y="0" on="1"/>
        <pt x="158" y="0" on="1"/>
      </contour>
      <contour>
        <pt x="553" y="1163" on="1"/>
        <pt x="553" y="901" on="1"/>
        <pt x="672" y="901" on="1"/>
        <pt x="758" y="901" on="0"/>
        <pt x="850" y="972" on="0"/>
        <pt x="850" y="1040" on="1"/>
        <pt x="850" y="1163" on="0"/>
        <pt x="664" y="1163" on="1"/>
      </contour>
      <contour>
        <pt x="553" y="612" on="1"/>
        <pt x="553" y="305" on="1"/>
        <pt x="692" y="305" on="1"/>
        <pt x="877" y="305" on="0"/>
        <pt x="877" y="461" on="1"/>
        <pt x="877" y="534" on="0"/>
        <pt x="778" y="612" on="0"/>
        <pt x="684" y="612" on="1"/>
      </contour>
    </TTGlyph>
    <TTGlyph name="C" xMin="104" yMin="-20" xMax="1266" yMax="1483">
      <contour>
        <pt x="788" y="-20" on="1"/>
        <pt x="457" y="-20" on="0"/>
        <pt x="280" y="172" on="1"/>
        <pt x="104" y="365" on="0"/>
        <pt x="104" y="727" on="1"/>
        <pt x="104" y="734" on="0"/>
        <pt x="104" y="741" on="1"/>
        <pt x="104" y="1073" on="0"/>
        <pt x="485" y="1483" on="0"/>
        <pt x="801" y="1483" on="1"/>
        <pt x="807" y="1483" on="0"/>
        <pt x="813" y="1483" on="1"/>
        <pt x="1051" y="1483" on="0"/>
        <pt x="1266" y="1380" on="1"/>
        <pt x="1145" y="1069" on="1"/>
        <pt x="1052" y="1113" on="0"/>
        <pt x="895" y="1159" on="0"/>
        <pt x="809" y="1159" on="1"/>
        <pt x="669" y="1159" on="0"/>
        <pt x="510" y="928" on="0"/>
        <pt x="510" y="725" on="1"/>
        <pt x="510" y="303" on="0"/>
        <pt x="831" y="303" on="1"/>
        <pt x="980" y="303" on="0"/>
        <pt x="1202" y="395" on="1"/>
        <pt x="1202" y="61" on="1"/>
        <pt x="1019" y="-20" on="0"/>
      </contour>
    </TTGlyph>
    <TTGlyph name="Ccedilla" xMin="104" yMin="-492" xMax="1266" yMax="1483">
      <contour>
        <pt x="809" y="1159" on="1"/>
        <pt x="669" y="1159" on="0"/>
        <pt x="510" y="928" on="0"/>
        <pt x="510" y="725" on="1"/>
        <pt x="510" y="303" on="0"/>
        <pt x="831" y="303" on="1"/>
        <pt x="980" y="303" on="0"/>
        <pt x="1202" y="395" on="1"/>
        <pt x="1202" y="61" on="1"/>
        <pt x="1019" y="-20" on="0"/>
        <pt x="788" y="-20" on="1"/>
        <pt x="757" y="-20" on="0"/>
        <pt x="742" y="-19" on="1"/>
        <pt x="739" y="-29" on="1"/>
        <pt x="832" y="-67" on="0"/>
        <pt x="909" y="-172" on="0"/>
        <pt x="909" y="-252" on="1"/>
        <pt x="909" y="-362" on="0"/>
        <pt x="759" y="-492" on="0"/>
        <pt x="500" y="-492" on="0"/>
        <pt x="422" y="-463" on="1"/>
        <pt x="422" y="-258" on="1"/>
        <pt x="504" y="-285" on="0"/>
        <pt x="569" y="-285" on="1"/>
        <pt x="621" y="-285" on="0"/>
        <pt x="621" y="-238" on="1"/>
        <pt x="621" y="-206" on="0"/>
        <pt x="541" y="-154" on="0"/>
        <pt x="473" y="-139" on="1"/>
        <pt x="545" y="0" on="1"/>
        <pt x="590" y="0" on="1"/>
        <pt x="400" y="42" on="0"/>
        <pt x="280" y="172" on="1"/>
        <pt x="104" y="365" on="0"/>
        <pt x="104" y="727" on="1"/>
        <pt x="104" y="734" on="0"/>
        <pt x="104" y="741" on="1"/>
        <pt x="104" y="1073" on="0"/>
        <pt x="485" y="1483" on="0"/>
        <pt x="801" y="1483" on="1"/>
        <pt x="807" y="1483" on="0"/>
        <pt x="813" y="1483" on="1"/>
        <pt x="1051" y="1483" on="0"/>
        <pt x="1266" y="1380" on="1"/>
        <pt x="1145" y="1069" on="1"/>
        <pt x="1052" y="1113" on="0"/>
        <pt x="895" y="1159" on="0"/>
      </contour>
    </TTGlyph>
    <TTGlyph name="D" xMin="158" yMin="0" xMax="1399" yMax="1462">
      <contour>
        <pt x="158" y="1462" on="1"/>
        <pt x="664" y="1462" on="1"/>
        <pt x="1016" y="1462" on="0"/>
        <pt x="1399" y="1102" on="0"/>
        <pt x="1399" y="762" on="1"/>
        <pt x="1399" y="396" on="0"/>
        <pt x="996" y="0" on="0"/>
        <pt x="631" y="0" on="1"/>
        <pt x="158" y="0" on="1"/>
      </contour>
      <contour>
        <pt x="553" y="1143" on="1"/>
        <pt x="553" y="324" on="1"/>
        <pt x="641" y="324" on="1"/>
        <pt x="820" y="324" on="0"/>
        <pt x="988" y="532" on="0"/>
        <pt x="988" y="949" on="0"/>
        <pt x="830" y="1143" on="0"/>
        <pt x="668" y="1143" on="1"/>
      </contour>
    </TTGlyph>
    <TTGlyph name="E" xMin="158" yMin="0" xMax="1026" yMax="1462">
      <contour>
        <pt x="1026" y="1145" on="1"/>
        <pt x="553" y="1145" on="1"/>
        <pt x="553" y="915" on="1"/>
        <pt x="990" y="915" on="1"/>
        <pt x="990" y="598" on="1"/>
        <pt x="553" y="598" on="1"/>
        <pt x="553" y="322" on="1"/>
        <pt x="1026" y="322" on="1"/>
        <pt x="1026" y="0" on="1"/>
        <pt x="158" y="0" on="1"/>
        <pt x="158" y="1462" on="1"/>
        <pt x="1026" y="1462" on="1"/>
      </contour>
    </TTGlyph>
    <TTGlyph name="Eacute" xMin="158" yMin="0" xMax="1026" yMax="1913">
      <contour>
        <pt x="908" y="1913" on="1"/>
        <pt x="908" y="1892" on="1"/>
        <pt x="840" y="1837" on="0"/>
        <pt x="552" y="1633" on="0"/>
        <pt x="476" y="1585" on="1"/>
        <pt x="216" y="1585" on="1"/>
        <pt x="216" y="1614" on="1"/>
        <pt x="370" y="1779" on="0"/>
        <pt x="451" y="1873" on="0"/>
        <pt x="480" y="1913" on="1"/>
      </contour>
      <contour>
        <pt x="553" y="1145" on="1"/>
        <pt x="553" y="915" on="1"/>
        <pt x="990" y="915" on="1"/>
        <pt x="990" y="598" on="1"/>
        <pt x="553" y="598" on="1"/>
        <pt x="553" y="322" on="1"/>
        <pt x="1026" y="322" on="1"/>
        <pt x="1026" y="0" on="1"/>
        <pt x="158" y="0" on="1"/>
        <pt x="158" y="1462" on="1"/>
        <pt x="1026" y="1462" on="1"/>
        <pt x="1026" y="1145" on="1"/>
      </contour>
    </TTGlyph>
    <TTGlyph name="Ecircumflex" xMin="108" yMin="0" xMax="1026" yMax="1913">
      <contour>
        <pt x="1015" y="1585" on="1"/>
        <pt x="761" y="1585" on="1"/>
        <pt x="677" y="1633" on="0"/>
        <pt x="560" y="1735" on="1"/>
        <pt x="437" y="1630" on="0"/>
        <pt x="366" y="1585" on="1"/>
        <pt x="108" y="1585" on="1"/>
        <pt x="108" y="1614" on="1"/>
        <pt x="177" y="1678" on="0"/>
        <pt x="331" y="1858" on="0"/>
        <pt x="366" y="1913" on="1"/>
        <pt x="759" y="1913" on="1"/>
        <pt x="856" y="1773" on="0"/>
        <pt x="1015" y="1614" on="1"/>
      </contour>
      <contour>
        <pt x="553" y="1145" on="1"/>
        <pt x="553" y="915" on="1"/>
        <pt x="990" y="915" on="1"/>
        <pt x="990" y="598" on="1"/>
        <pt x="553" y="598" on="1"/>
        <pt x="553" y="322" on="1"/>
        <pt x="1026" y="322" on="1"/>
        <pt x="1026" y="0" on="1"/>
        <pt x="158" y="0" on="1"/>
        <pt x="158" y="1462" on="1"/>
        <pt x="1026" y="1462" on="1"/>
        <pt x="1026" y="1145" on="1"/>
      </contour>
    </TTGlyph>
    <TTGlyph name="Edieresis" xMin="150" yMin="0" xMax="1026" yMax="1915">
      <contour>
        <pt x="241" y="1915" on="0"/>
        <pt x="399" y="1915" on="0"/>
        <pt x="492" y="1830" on="0"/>
        <pt x="492" y="1686" on="0"/>
        <pt x="399" y="1601" on="0"/>
        <pt x="241" y="1601" on="0"/>
        <pt x="150" y="1683" on="0"/>
        <pt x="150" y="1831" on="0"/>
      </contour>
      <contour>
        <pt x="629" y="1832" on="0"/>
        <pt x="720" y="1915" on="0"/>
        <pt x="880" y="1915" on="0"/>
        <pt x="974" y="1829" on="0"/>
        <pt x="974" y="1686" on="0"/>
        <pt x="880" y="1601" on="0"/>
        <pt x="720" y="1601" on="0"/>
        <pt x="629" y="1684" on="0"/>
      </contour>
      <contour>
        <pt x="553" y="1145" on="1"/>
        <pt x="553" y="915" on="1"/>
        <pt x="990" y="915" on="1"/>
        <pt x="990" y="598" on="1"/>
        <pt x="553" y="598" on="1"/>
        <pt x="553" y="322" on="1"/>
        <pt x="1026" y="322" on="1"/>
        <pt x="1026" y="0" on="1"/>
        <pt x="158" y="0" on="1"/>
        <pt x="158" y="1462" on="1"/>
        <pt x="1026" y="1462" on="1"/>
        <pt x="1026" y="1145" on="1"/>
      </contour>
    </TTGlyph>
    <TTGlyph name="Egrave" xMin="158" yMin="0" xMax="1026" yMax="1913">
      <contour>
        <pt x="216" y="1913" on="1"/>
        <pt x="646" y="1913" on="1"/>
        <pt x="699" y="1842" on="0"/>
        <pt x="849" y="1680" on="1"/>
        <pt x="908" y="1614" on="1"/>
        <pt x="908" y="1585" on="1"/>
        <pt x="648" y="1585" on="1"/>
        <pt x="579" y="1628" on="0"/>
        <pt x="325" y="1807" on="0"/>
        <pt x="216" y="1892" on="1"/>
      </contour>
      <contour>
        <pt x="553" y="1145" on="1"/>
        <pt x="553" y="915" on="1"/>
        <pt x="990" y="915" on="1"/>
        <pt x="990" y="598" on="1"/>
        <pt x="553" y="598" on="1"/>
        <pt x="553" y="322" on="1"/>
        <pt x="1026" y="322" on="1"/>
        <pt x="1026" y="0" on="1"/>
        <pt x="158" y="0" on="1"/>
        <pt x="158" y="1462" on="1"/>
        <pt x="1026" y="1462" on="1"/>
        <pt x="1026" y="1145" on="1"/>
      </contour>
    </TTGlyph>
    <TTGlyph name="Eth" xMin="31" yMin="0" xMax="1399" yMax="1462">
      <contour>
        <pt x="158" y="1462" on="1"/>
        <pt x="664" y="1462" on="1"/>
        <pt x="1017" y="1462" on="0"/>
        <pt x="1399" y="1101" on="0"/>
        <pt x="1399" y="762" on="1"/>
        <pt x="1399" y="397" on="0"/>
        <pt x="997" y="0" on="0"/>
        <pt x="631" y="0" on="1"/>
        <pt x="158" y="0" on="1"/>
        <pt x="158" y="563" on="1"/>
        <pt x="31" y="563" on="1"/>
        <pt x="31" y="883" on="1"/>
        <pt x="158" y="883" on="1"/>
      </contour>
      <contour>
        <pt x="553" y="1143" on="1"/>
        <pt x="553" y="883" on="1"/>
        <pt x="764" y="883" on="1"/>
        <pt x="764" y="563" on="1"/>
        <pt x="553" y="563" on="1"/>
        <pt x="553" y="324" on="1"/>
        <pt x="641" y="324" on="1"/>
        <pt x="820" y="324" on="0"/>
        <pt x="989" y="532" on="0"/>
        <pt x="989" y="949" on="0"/>
        <pt x="830" y="1143" on="0"/>
        <pt x="668" y="1143" on="1"/>
      </contour>
    </TTGlyph>
    <TTGlyph name="Euro" xMin="55" yMin="-20" xMax="1178" yMax="1483">
      <contour>
        <pt x="55" y="963" on="1"/>
        <pt x="203" y="963" on="1"/>
        <pt x="254" y="1217" on="0"/>
        <pt x="576" y="1483" on="0"/>
        <pt x="829" y="1483" on="1"/>
        <pt x="1010" y="1483" on="0"/>
        <pt x="1178" y="1407" on="1"/>
        <pt x="1059" y="1108" on="1"/>
        <pt x="938" y="1159" on="0"/>
        <pt x="720" y="1159" on="0"/>
        <pt x="598" y="1055" on="0"/>
        <pt x="586" y="963" on="1"/>
        <pt x="924" y="963" on="1"/>
        <pt x="924" y="758" on="1"/>
        <pt x="571" y="758" on="1"/>
        <pt x="569" y="729" on="1"/>
        <pt x="569" y="715" on="1"/>
        <pt x="571" y="672" on="1"/>
        <pt x="858" y="672" on="1"/>
        <pt x="858" y="467" on="1"/>
        <pt x="594" y="467" on="1"/>
        <pt x="627" y="303" on="0"/>
        <pt x="854" y="303" on="1"/>
        <pt x="1000" y="303" on="0"/>
        <pt x="1120" y="358" on="1"/>
        <pt x="1120" y="35" on="1"/>
        <pt x="1019" y="-20" on="0"/>
        <pt x="829" y="-20" on="1"/>
        <pt x="577" y="-20" on="0"/>
        <pt x="258" y="232" on="0"/>
        <pt x="211" y="467" on="1"/>
        <pt x="55" y="467" on="1"/>
        <pt x="55" y="672" on="1"/>
        <pt x="184" y="672" on="1"/>
        <pt x="182" y="693" on="1"/>
        <pt x="182" y="715" on="1"/>
        <pt x="184" y="758" on="1"/>
        <pt x="55" y="758" on="1"/>
      </contour>
    </TTGlyph>
    <TTGlyph name="F" xMin="158" yMin="0" xMax="1022" yMax="1462">
      <contour>
        <pt x="1022" y="1145" on="1"/>
        <pt x="547" y="1145" on="1"/>
        <pt x="547" y="866" on="1"/>
        <pt x="984" y="866" on="1"/>
        <pt x="984" y="549" on="1"/>
        <pt x="547" y="549" on="1"/>
        <pt x="547" y="0" on="1"/>
        <pt x="158" y="0" on="1"/>
        <pt x="158" y="1462" on="1"/>
        <pt x="1022" y="1462" on="1"/>
      </contour>
    </TTGlyph>
    <TTGlyph name="G" xMin="104" yMin="-20" xMax="1376" yMax="1483">
      <contour>
        <pt x="1376" y="856" on="1"/>
        <pt x="1376" y="68" on="1"/>
        <pt x="1121" y="-20" on="0"/>
        <pt x="811" y="-20" on="1"/>
        <pt x="472" y="-20" on="0"/>
        <pt x="104" y="372" on="0"/>
        <pt x="104" y="1090" on="0"/>
        <pt x="509" y="1483" on="0"/>
        <pt x="872" y="1483" on="1"/>
        <pt x="1136" y="1483" on="0"/>
        <pt x="1346" y="1391" on="1"/>
        <pt x="1221" y="1081" on="1"/>
        <pt x="1064" y="1159" on="0"/>
        <pt x="700" y="1159" on="0"/>
        <pt x="512" y="934" on="0"/>
        <pt x="512" y="520" on="0"/>
        <pt x="683" y="305" on="0"/>
        <pt x="844" y="305" on="1"/>
        <pt x="930" y="305" on="0"/>
        <pt x="1006" y="322" on="1"/>
        <pt x="1006" y="551" on="1"/>
        <pt x="745" y="551" on="1"/>
        <pt x="745" y="856" on="1"/>
      </contour>
    </TTGlyph>
    <TTGlyph name="H" xMin="158" yMin="0" xMax="1411" yMax="1462">
      <contour>
        <pt x="1411" y="0" on="1"/>
        <pt x="1014" y="0" on="1"/>
        <pt x="1014" y="596" on="1"/>
        <pt x="555" y="596" on="1"/>
        <pt x="555" y="0" on="1"/>
        <pt x="158" y="0" on="1"/>
        <pt x="158" y="1462" on="1"/>
        <pt x="555" y="1462" on="1"/>
        <pt x="555" y="920" on="1"/>
        <pt x="1014" y="920" on="1"/>
        <pt x="1014" y="1462" on="1"/>
        <pt x="1411" y="1462" on="1"/>
      </contour>
    </TTGlyph>
    <TTGlyph name="I" xMin="158" yMin="0" xMax="555" yMax="1462">
      <contour>
        <pt x="555" y="0" on="1"/>
        <pt x="158" y="0" on="1"/>
        <pt x="158" y="1462" on="1"/>
        <pt x="555" y="1462" on="1"/>
      </contour>
    </TTGlyph>
    <TTGlyph name="Iacute" xMin="11" yMin="0" xMax="703" yMax="1913">
      <contour>
        <pt x="703" y="1913" on="1"/>
        <pt x="703" y="1892" on="1"/>
        <pt x="635" y="1837" on="0"/>
        <pt x="347" y="1633" on="0"/>
        <pt x="271" y="1585" on="1"/>
        <pt x="11" y="1585" on="1"/>
        <pt x="11" y="1614" on="1"/>
        <pt x="166" y="1779" on="0"/>
        <pt x="246" y="1873" on="0"/>
        <pt x="275" y="1913" on="1"/>
      </contour>
      <contour>
        <pt x="158" y="0" on="1"/>
        <pt x="158" y="1462" on="1"/>
        <pt x="555" y="1462" on="1"/>
        <pt x="555" y="0" on="1"/>
      </contour>
    </TTGlyph>
    <TTGlyph name="Icircumflex" xMin="-97" yMin="0" xMax="810" yMax="1913">
      <contour>
        <pt x="810" y="1585" on="1"/>
        <pt x="556" y="1585" on="1"/>
        <pt x="472" y="1633" on="0"/>
        <pt x="355" y="1735" on="1"/>
        <pt x="232" y="1630" on="0"/>
        <pt x="161" y="1585" on="1"/>
        <pt x="-97" y="1585" on="1"/>
        <pt x="-97" y="1614" on="1"/>
        <pt x="-28" y="1678" on="0"/>
        <pt x="126" y="1858" on="0"/>
        <pt x="161" y="1913" on="1"/>
        <pt x="554" y="1913" on="1"/>
        <pt x="651" y="1773" on="0"/>
        <pt x="810" y="1614" on="1"/>
      </contour>
      <contour>
        <pt x="158" y="0" on="1"/>
        <pt x="158" y="1462" on="1"/>
        <pt x="555" y="1462" on="1"/>
        <pt x="555" y="0" on="1"/>
      </contour>
    </TTGlyph>
    <TTGlyph name="Idieresis" xMin="-55" yMin="0" xMax="769" yMax="1915">
      <contour>
        <pt x="36" y="1915" on="0"/>
        <pt x="194" y="1915" on="0"/>
        <pt x="287" y="1830" on="0"/>
        <pt x="287" y="1686" on="0"/>
        <pt x="194" y="1601" on="0"/>
        <pt x="36" y="1601" on="0"/>
        <pt x="-55" y="1683" on="0"/>
        <pt x="-55" y="1831" on="0"/>
      </contour>
      <contour>
        <pt x="424" y="1832" on="0"/>
        <pt x="515" y="1915" on="0"/>
        <pt x="675" y="1915" on="0"/>
        <pt x="769" y="1829" on="0"/>
        <pt x="769" y="1686" on="0"/>
        <pt x="675" y="1601" on="0"/>
        <pt x="515" y="1601" on="0"/>
        <pt x="424" y="1684" on="0"/>
      </contour>
      <contour>
        <pt x="158" y="0" on="1"/>
        <pt x="158" y="1462" on="1"/>
        <pt x="555" y="1462" on="1"/>
        <pt x="555" y="0" on="1"/>
      </contour>
    </TTGlyph>
    <TTGlyph name="Igrave" xMin="11" yMin="0" xMax="703" yMax="1913">
      <contour>
        <pt x="11" y="1913" on="1"/>
        <pt x="441" y="1913" on="1"/>
        <pt x="494" y="1842" on="0"/>
        <pt x="644" y="1680" on="1"/>
        <pt x="703" y="1614" on="1"/>
        <pt x="703" y="1585" on="1"/>
        <pt x="443" y="1585" on="1"/>
        <pt x="374" y="1628" on="0"/>
        <pt x="120" y="1807" on="0"/>
        <pt x="11" y="1892" on="1"/>
      </contour>
      <contour>
        <pt x="158" y="0" on="1"/>
        <pt x="158" y="1462" on="1"/>
        <pt x="555" y="1462" on="1"/>
        <pt x="555" y="0" on="1"/>
      </contour>
    </TTGlyph>
    <TTGlyph name="J" xMin="-162" yMin="-459" xMax="563" yMax="1462">
      <contour>
        <pt x="-162" y="-131" on="1"/>
        <pt x="-68" y="-152" on="0"/>
        <pt x="-16" y="-152" on="1"/>
        <pt x="80" y="-152" on="0"/>
        <pt x="166" y="-35" on="0"/>
        <pt x="166" y="109" on="1"/>
        <pt x="166" y="1462" on="1"/>
        <pt x="563" y="1462" on="1"/>
        <pt x="563" y="143" on="1"/>
        <pt x="563" y="-155" on="0"/>
        <pt x="302" y="-459" on="0"/>
        <pt x="43" y="-459" on="1"/>
        <pt x="-63" y="-459" on="0"/>
        <pt x="-162" y="-438" on="1"/>
      </contour>
    </TTGlyph>
    <TTGlyph name="K" xMin="158" yMin="0" xMax="1415" yMax="1462">
      <contour>
        <pt x="555" y="0" on="1"/>
        <pt x="158" y="0" on="1"/>
        <pt x="158" y="1462" on="1"/>
        <pt x="555" y="1462" on="1"/>
        <pt x="555" y="827" on="1"/>
        <pt x="588" y="891" on="0"/>
        <pt x="676" y="1014" on="1"/>
        <pt x="982" y="1462" on="1"/>
        <pt x="1415" y="1462" on="1"/>
        <pt x="954" y="807" on="1"/>
        <pt x="1407" y="0" on="1"/>
        <pt x="961" y="0" on="1"/>
        <pt x="672" y="559" on="1"/>
        <pt x="555" y="489" on="1"/>
      </contour>
    </TTGlyph>
    <TTGlyph name="L" xMin="158" yMin="0" xMax="1116" yMax="1462">
      <contour>
        <pt x="553" y="319" on="1"/>
        <pt x="1116" y="319" on="1"/>
        <pt x="1116" y="0" on="1"/>
        <pt x="158" y="0" on="1"/>
        <pt x="158" y="1462" on="1"/>
        <pt x="553" y="1462" on="1"/>
      </contour>
    </TTGlyph>
    <TTGlyph name="M" xMin="158" yMin="0" xMax="1823" yMax="1462">
      <contour>
        <pt x="1823" y="0" on="1"/>
        <pt x="1460" y="0" on="1"/>
        <pt x="1460" y="641" on="1"/>
        <pt x="1460" y="711" on="0"/>
        <pt x="1462" y="792" on="0"/>
        <pt x="1475" y="1051" on="1"/>
        <pt x="1466" y="1051" on="1"/>
        <pt x="1171" y="0" on="1"/>
        <pt x="795" y="0" on="1"/>
        <pt x="496" y="1053" on="1"/>
        <pt x="487" y="1053" on="1"/>
        <pt x="508" y="784" on="0"/>
        <pt x="508" y="635" on="1"/>
        <pt x="508" y="0" on="1"/>
        <pt x="158" y="0" on="1"/>
        <pt x="158" y="1462" on="1"/>
        <pt x="684" y="1462" on="1"/>
        <pt x="988" y="424" on="1"/>
        <pt x="996" y="424" on="1"/>
        <pt x="1296" y="1462" on="1"/>
        <pt x="1823" y="1462" on="1"/>
      </contour>
    </TTGlyph>
    <TTGlyph name="N" xMin="158" yMin="0" xMax="1550" yMax="1462">
      <contour>
        <pt x="1550" y="0" on="1"/>
        <pt x="1032" y="0" on="1"/>
        <pt x="498" y="1030" on="1"/>
        <pt x="489" y="1030" on="1"/>
        <pt x="508" y="793" on="0"/>
        <pt x="508" y="659" on="1"/>
        <pt x="508" y="0" on="1"/>
        <pt x="158" y="0" on="1"/>
        <pt x="158" y="1462" on="1"/>
        <pt x="674" y="1462" on="1"/>
        <pt x="1206" y="446" on="1"/>
        <pt x="1212" y="446" on="1"/>
        <pt x="1198" y="675" on="0"/>
        <pt x="1198" y="801" on="1"/>
        <pt x="1198" y="1462" on="1"/>
        <pt x="1550" y="1462" on="1"/>
      </contour>
    </TTGlyph>
    <TTGlyph name="Ntilde" xMin="158" yMin="0" xMax="1550" yMax="1925">
      <contour>
        <pt x="1029" y="1583" on="1"/>
        <pt x="966" y="1583" on="0"/>
        <pt x="732" y="1679" on="0"/>
        <pt x="685" y="1679" on="1"/>
        <pt x="631" y="1679" on="0"/>
        <pt x="613" y="1581" on="1"/>
        <pt x="433" y="1581" on="1"/>
        <pt x="444" y="1756" on="0"/>
        <pt x="566" y="1923" on="0"/>
        <pt x="685" y="1923" on="1"/>
        <pt x="735" y="1923" on="0"/>
        <pt x="970" y="1827" on="0"/>
        <pt x="1021" y="1827" on="1"/>
        <pt x="1075" y="1827" on="0"/>
        <pt x="1093" y="1925" on="1"/>
        <pt x="1275" y="1925" on="1"/>
        <pt x="1264" y="1758" on="0"/>
        <pt x="1138" y="1583" on="0"/>
      </contour>
      <contour>
        <pt x="508" y="659" on="1"/>
        <pt x="508" y="0" on="1"/>
        <pt x="158" y="0" on="1"/>
        <pt x="158" y="1462" on="1"/>
        <pt x="674" y="1462" on="1"/>
        <pt x="1206" y="446" on="1"/>
        <pt x="1212" y="446" on="1"/>
        <pt x="1198" y="675" on="0"/>
        <pt x="1198" y="801" on="1"/>
        <pt x="1198" y="1462" on="1"/>
        <pt x="1550" y="1462" on="1"/>
        <pt x="1550" y="0" on="1"/>
        <pt x="1032" y="0" on="1"/>
        <pt x="498" y="1030" on="1"/>
        <pt x="489" y="1030" on="1"/>
        <pt x="508" y="793" on="0"/>
      </contour>
    </TTGlyph>
    <TTGlyph name="O" xMin="104" yMin="-20" xMax="1526" yMax="1485">
      <contour>
        <pt x="286" y="1292" on="1"/>
        <pt x="469" y="1485" on="0"/>
        <pt x="1166" y="1485" on="0"/>
        <pt x="1526" y="1103" on="0"/>
        <pt x="1526" y="364" on="0"/>
        <pt x="1164" y="-20" on="0"/>
        <pt x="471" y="-20" on="0"/>
        <pt x="287" y="173" on="1"/>
        <pt x="104" y="366" on="0"/>
        <pt x="104" y="1099" on="0"/>
      </contour>
      <contour>
        <pt x="817" y="1161" on="1"/>
        <pt x="520" y="1161" on="0"/>
        <pt x="520" y="309" on="0"/>
        <pt x="815" y="309" on="1"/>
        <pt x="965" y="309" on="0"/>
        <pt x="1110" y="515" on="0"/>
        <pt x="1110" y="951" on="0"/>
        <pt x="964" y="1161" on="0"/>
      </contour>
    </TTGlyph>
    <TTGlyph name="OE" xMin="104" yMin="-20" xMax="1862" yMax="1485">
      <contour>
        <pt x="1862" y="0" on="1"/>
        <pt x="1018" y="0" on="1"/>
        <pt x="985" y="-8" on="0"/>
        <pt x="833" y="-20" on="0"/>
        <pt x="774" y="-20" on="1"/>
        <pt x="456" y="-20" on="0"/>
        <pt x="104" y="379" on="0"/>
        <pt x="104" y="1094" on="0"/>
        <pt x="454" y="1485" on="0"/>
        <pt x="776" y="1485" on="1"/>
        <pt x="843" y="1485" on="0"/>
        <pt x="996" y="1471" on="0"/>
        <pt x="1026" y="1462" on="1"/>
        <pt x="1862" y="1462" on="1"/>
        <pt x="1862" y="1145" on="1"/>
        <pt x="1389" y="1145" on="1"/>
        <pt x="1389" y="915" on="1"/>
        <pt x="1825" y="915" on="1"/>
        <pt x="1825" y="598" on="1"/>
        <pt x="1389" y="598" on="1"/>
        <pt x="1389" y="322" on="1"/>
        <pt x="1862" y="322" on="1"/>
      </contour>
      <contour>
        <pt x="778" y="1161" on="1"/>
        <pt x="653" y="1161" on="0"/>
        <pt x="520" y="942" on="0"/>
        <pt x="520" y="527" on="0"/>
        <pt x="650" y="309" on="0"/>
        <pt x="776" y="309" on="1"/>
        <pt x="917" y="309" on="0"/>
        <pt x="993" y="352" on="1"/>
        <pt x="993" y="1112" on="1"/>
        <pt x="922" y="1161" on="0"/>
      </contour>
    </TTGlyph>
    <TTGlyph name="Oacute" xMin="104" yMin="-20" xMax="1526" yMax="1913">
      <contour>
        <pt x="1162" y="1913" on="1"/>
        <pt x="1162" y="1892" on="1"/>
        <pt x="1094" y="1837" on="0"/>
        <pt x="806" y="1633" on="0"/>
        <pt x="730" y="1585" on="1"/>
        <pt x="470" y="1585" on="1"/>
        <pt x="470" y="1614" on="1"/>
        <pt x="624" y="1779" on="0"/>
        <pt x="705" y="1873" on="0"/>
        <pt x="734" y="1913" on="1"/>
      </contour>
      <contour>
        <pt x="286" y="1292" on="1"/>
        <pt x="469" y="1485" on="0"/>
        <pt x="1166" y="1485" on="0"/>
        <pt x="1526" y="1103" on="0"/>
        <pt x="1526" y="364" on="0"/>
        <pt x="1164" y="-20" on="0"/>
        <pt x="471" y="-20" on="0"/>
        <pt x="287" y="173" on="1"/>
        <pt x="104" y="366" on="0"/>
        <pt x="104" y="1099" on="0"/>
      </contour>
      <contour>
        <pt x="817" y="1161" on="1"/>
        <pt x="520" y="1161" on="0"/>
        <pt x="520" y="309" on="0"/>
        <pt x="815" y="309" on="1"/>
        <pt x="965" y="309" on="0"/>
        <pt x="1110" y="515" on="0"/>
        <pt x="1110" y="951" on="0"/>
        <pt x="964" y="1161" on="0"/>
      </contour>
    </TTGlyph>
    <TTGlyph name="Ocircumflex" xMin="104" yMin="-20" xMax="1526" yMax="1913">
      <contour>
        <pt x="1270" y="1585" on="1"/>
        <pt x="1016" y="1585" on="1"/>
        <pt x="932" y="1633" on="0"/>
        <pt x="815" y="1735" on="1"/>
        <pt x="692" y="1630" on="0"/>
        <pt x="621" y="1585" on="1"/>
        <pt x="363" y="1585" on="1"/>
        <pt x="363" y="1614" on="1"/>
        <pt x="432" y="1678" on="0"/>
        <pt x="586" y="1858" on="0"/>
        <pt x="621" y="1913" on="1"/>
        <pt x="1014" y="1913" on="1"/>
        <pt x="1111" y="1773" on="0"/>
        <pt x="1270" y="1614" on="1"/>
      </contour>
      <contour>
        <pt x="286" y="1292" on="1"/>
        <pt x="469" y="1485" on="0"/>
        <pt x="1166" y="1485" on="0"/>
        <pt x="1526" y="1103" on="0"/>
        <pt x="1526" y="364" on="0"/>
        <pt x="1164" y="-20" on="0"/>
        <pt x="471" y="-20" on="0"/>
        <pt x="287" y="173" on="1"/>
        <pt x="104" y="366" on="0"/>
        <pt x="104" y="1099" on="0"/>
      </contour>
      <contour>
        <pt x="817" y="1161" on="1"/>
        <pt x="520" y="1161" on="0"/>
        <pt x="520" y="309" on="0"/>
        <pt x="815" y="309" on="1"/>
        <pt x="965" y="309" on="0"/>
        <pt x="1110" y="515" on="0"/>
        <pt x="1110" y="951" on="0"/>
        <pt x="964" y="1161" on="0"/>
      </contour>
    </TTGlyph>
    <TTGlyph name="Odieresis" xMin="104" yMin="-20" xMax="1526" yMax="1915">
      <contour>
        <pt x="495" y="1915" on="0"/>
        <pt x="653" y="1915" on="0"/>
        <pt x="746" y="1830" on="0"/>
        <pt x="746" y="1686" on="0"/>
        <pt x="653" y="1601" on="0"/>
        <pt x="495" y="1601" on="0"/>
        <pt x="404" y="1683" on="0"/>
        <pt x="404" y="1831" on="0"/>
      </contour>
      <contour>
        <pt x="883" y="1832" on="0"/>
        <pt x="974" y="1915" on="0"/>
        <pt x="1134" y="1915" on="0"/>
        <pt x="1228" y="1829" on="0"/>
        <pt x="1228" y="1686" on="0"/>
        <pt x="1134" y="1601" on="0"/>
        <pt x="974" y="1601" on="0"/>
        <pt x="883" y="1684" on="0"/>
      </contour>
      <contour>
        <pt x="286" y="1292" on="1"/>
        <pt x="469" y="1485" on="0"/>
        <pt x="1166" y="1485" on="0"/>
        <pt x="1526" y="1103" on="0"/>
        <pt x="1526" y="364" on="0"/>
        <pt x="1164" y="-20" on="0"/>
        <pt x="471" y="-20" on="0"/>
        <pt x="287" y="173" on="1"/>
        <pt x="104" y="366" on="0"/>
        <pt x="104" y="1099" on="0"/>
      </contour>
      <contour>
        <pt x="817" y="1161" on="1"/>
        <pt x="520" y="1161" on="0"/>
        <pt x="520" y="309" on="0"/>
        <pt x="815" y="309" on="1"/>
        <pt x="965" y="309" on="0"/>
        <pt x="1110" y="515" on="0"/>
        <pt x="1110" y="951" on="0"/>
        <pt x="964" y="1161" on="0"/>
      </contour>
    </TTGlyph>
    <TTGlyph name="Ograve" xMin="104" yMin="-20" xMax="1526" yMax="1913">
      <contour>
        <pt x="470" y="1913" on="1"/>
        <pt x="900" y="1913" on="1"/>
        <pt x="953" y="1842" on="0"/>
        <pt x="1103" y="1680" on="1"/>
        <pt x="1162" y="1614" on="1"/>
        <pt x="1162" y="1585" on="1"/>
        <pt x="902" y="1585" on="1"/>
        <pt x="833" y="1628" on="0"/>
        <pt x="579" y="1807" on="0"/>
        <pt x="470" y="1892" on="1"/>
      </contour>
      <contour>
        <pt x="286" y="1292" on="1"/>
        <pt x="469" y="1485" on="0"/>
        <pt x="1166" y="1485" on="0"/>
        <pt x="1526" y="1103" on="0"/>
        <pt x="1526" y="364" on="0"/>
        <pt x="1164" y="-20" on="0"/>
        <pt x="471" y="-20" on="0"/>
        <pt x="287" y="173" on="1"/>
        <pt x="104" y="366" on="0"/>
        <pt x="104" y="1099" on="0"/>
      </contour>
      <contour>
        <pt x="817" y="1161" on="1"/>
        <pt x="520" y="1161" on="0"/>
        <pt x="520" y="309" on="0"/>
        <pt x="815" y="309" on="1"/>
        <pt x="965" y="309" on="0"/>
        <pt x="1110" y="515" on="0"/>
        <pt x="1110" y="951" on="0"/>
        <pt x="964" y="1161" on="0"/>
      </contour>
    </TTGlyph>
    <TTGlyph name="Oslash" xMin="104" yMin="-109" xMax="1526" yMax="1548">
      <contour>
        <pt x="1331" y="1309" on="1"/>
        <pt x="1526" y="1120" on="0"/>
        <pt x="1526" y="364" on="0"/>
        <pt x="1164" y="-20" on="0"/>
        <pt x="815" y="-20" on="1"/>
        <pt x="637" y="-20" on="0"/>
        <pt x="508" y="23" on="1"/>
        <pt x="424" y="-109" on="1"/>
        <pt x="231" y="16" on="1"/>
        <pt x="315" y="141" on="1"/>
        <pt x="104" y="334" on="0"/>
        <pt x="104" y="735" on="1"/>
        <pt x="104" y="1100" on="0"/>
        <pt x="469" y="1485" on="0"/>
        <pt x="817" y="1485" on="1"/>
        <pt x="1009" y="1485" on="0"/>
        <pt x="1147" y="1430" on="1"/>
        <pt x="1223" y="1548" on="1"/>
        <pt x="1413" y="1434" on="1"/>
      </contour>
      <contour>
        <pt x="817" y="1161" on="1"/>
        <pt x="520" y="1161" on="0"/>
        <pt x="520" y="733" on="1"/>
        <pt x="520" y="579" on="0"/>
        <pt x="549" y="494" on="1"/>
        <pt x="952" y="1133" on="1"/>
        <pt x="886" y="1161" on="0"/>
      </contour>
      <contour>
        <pt x="815" y="309" on="1"/>
        <pt x="965" y="309" on="0"/>
        <pt x="1110" y="515" on="0"/>
        <pt x="1110" y="733" on="1"/>
        <pt x="1110" y="858" on="0"/>
        <pt x="1092" y="944" on="1"/>
        <pt x="698" y="324" on="1"/>
        <pt x="752" y="309" on="0"/>
      </contour>
    </TTGlyph>
    <TTGlyph name="Otilde" xMin="104" yMin="-20" xMax="1526" yMax="1925">
      <contour>
        <pt x="991" y="1583" on="1"/>
        <pt x="928" y="1583" on="0"/>
        <pt x="694" y="1679" on="0"/>
        <pt x="647" y="1679" on="1"/>
        <pt x="593" y="1679" on="0"/>
        <pt x="575" y="1581" on="1"/>
        <pt x="395" y="1581" on="1"/>
        <pt x="406" y="1756" on="0"/>
        <pt x="528" y="1923" on="0"/>
        <pt x="647" y="1923" on="1"/>
        <pt x="698" y="1923" on="0"/>
        <pt x="932" y="1827" on="0"/>
        <pt x="983" y="1827" on="1"/>
        <pt x="1037" y="1827" on="0"/>
        <pt x="1055" y="1925" on="1"/>
        <pt x="1237" y="1925" on="1"/>
        <pt x="1226" y="1758" on="0"/>
        <pt x="1100" y="1583" on="0"/>
      </contour>
      <contour>
        <pt x="286" y="1292" on="1"/>
        <pt x="469" y="1485" on="0"/>
        <pt x="1166" y="1485" on="0"/>
        <pt x="1526" y="1103" on="0"/>
        <pt x="1526" y="364" on="0"/>
        <pt x="1164" y="-20" on="0"/>
        <pt x="471" y="-20" on="0"/>
        <pt x="287" y="173" on="1"/>
        <pt x="104" y="366" on="0"/>
        <pt x="104" y="1099" on="0"/>
      </contour>
      <contour>
        <pt x="817" y="1161" on="1"/>
        <pt x="520" y="1161" on="0"/>
        <pt x="520" y="309" on="0"/>
        <pt x="815" y="309" on="1"/>
        <pt x="965" y="309" on="0"/>
        <pt x="1110" y="515" on="0"/>
        <pt x="1110" y="951" on="0"/>
        <pt x="964" y="1161" on="0"/>
      </contour>
    </TTGlyph>
    <TTGlyph name="P" xMin="158" yMin="0" xMax="1219" yMax="1462">
      <contour>
        <pt x="158" y="1462" on="1"/>
        <pt x="664" y="1462" on="1"/>
        <pt x="938" y="1462" on="0"/>
        <pt x="1219" y="1222" on="0"/>
        <pt x="1219" y="996" on="1"/>
        <pt x="1219" y="751" on="0"/>
        <pt x="929" y="485" on="0"/>
        <pt x="664" y="485" on="1"/>
        <pt x="553" y="485" on="1"/>
        <pt x="553" y="0" on="1"/>
        <pt x="158" y="0" on="1"/>
      </contour>
      <contour>
        <pt x="553" y="1143" on="1"/>
        <pt x="553" y="807" on="1"/>
        <pt x="625" y="807" on="1"/>
        <pt x="714" y="807" on="0"/>
        <pt x="819" y="907" on="0"/>
        <pt x="819" y="994" on="1"/>
        <pt x="819" y="1143" on="0"/>
        <pt x="655" y="1143" on="1"/>
      </contour>
    </TTGlyph>
    <TTGlyph name="Q" xMin="104" yMin="-348" xMax="1567" yMax="1485">
      <contour>
        <pt x="287" y="173" on="1"/>
        <pt x="104" y="366" on="0"/>
        <pt x="104" y="1099" on="0"/>
        <pt x="286" y="1292" on="1"/>
        <pt x="469" y="1485" on="0"/>
        <pt x="1166" y="1485" on="0"/>
        <pt x="1526" y="1103" on="0"/>
        <pt x="1526" y="733" on="1"/>
        <pt x="1526" y="235" on="0"/>
        <pt x="1210" y="63" on="1"/>
        <pt x="1567" y="-348" on="1"/>
        <pt x="1075" y="-348" on="1"/>
        <pt x="817" y="-23" on="1"/>
        <pt x="816" y="-22" on="1"/>
        <pt x="816" y="-21" on="1"/>
        <pt x="815" y="-20" on="1"/>
        <pt x="471" y="-20" on="0"/>
      </contour>
      <contour>
        <pt x="817" y="1161" on="1"/>
        <pt x="520" y="1161" on="0"/>
        <pt x="520" y="309" on="0"/>
        <pt x="815" y="309" on="1"/>
        <pt x="965" y="309" on="0"/>
        <pt x="1110" y="515" on="0"/>
        <pt x="1110" y="951" on="0"/>
        <pt x="964" y="1161" on="0"/>
      </contour>
    </TTGlyph>
    <TTGlyph name="R" xMin="158" yMin="0" xMax="1411" yMax="1462">
      <contour>
        <pt x="158" y="1462" on="1"/>
        <pt x="637" y="1462" on="1"/>
        <pt x="1233" y="1462" on="0"/>
        <pt x="1233" y="1030" on="1"/>
        <pt x="1233" y="776" on="0"/>
        <pt x="984" y="637" on="1"/>
        <pt x="1411" y="0" on="1"/>
        <pt x="963" y="0" on="1"/>
        <pt x="653" y="532" on="1"/>
        <pt x="553" y="532" on="1"/>
        <pt x="553" y="0" on="1"/>
        <pt x="158" y="0" on="1"/>
      </contour>
      <contour>
        <pt x="553" y="1163" on="1"/>
        <pt x="553" y="829" on="1"/>
        <pt x="627" y="829" on="1"/>
        <pt x="834" y="829" on="0"/>
        <pt x="834" y="1012" on="1"/>
        <pt x="834" y="1163" on="0"/>
        <pt x="631" y="1163" on="1"/>
      </contour>
    </TTGlyph>
    <TTGlyph name="S" xMin="90" yMin="-20" xMax="1114" yMax="1483">
      <contour>
        <pt x="90" y="424" on="1"/>
        <pt x="199" y="367" on="0"/>
        <pt x="448" y="301" on="0"/>
        <pt x="634" y="301" on="0"/>
        <pt x="719" y="360" on="0"/>
        <pt x="719" y="410" on="1"/>
        <pt x="719" y="465" on="0"/>
        <pt x="649" y="508" on="1"/>
        <pt x="609" y="533" on="0"/>
        <pt x="311" y="667" on="0"/>
        <pt x="240" y="728" on="1"/>
        <pt x="99" y="848" on="0"/>
        <pt x="99" y="1257" on="0"/>
        <pt x="395" y="1483" on="0"/>
        <pt x="651" y="1483" on="1"/>
        <pt x="878" y="1483" on="0"/>
        <pt x="1114" y="1378" on="1"/>
        <pt x="992" y="1073" on="1"/>
        <pt x="789" y="1167" on="0"/>
        <pt x="639" y="1167" on="1"/>
        <pt x="565" y="1167" on="0"/>
        <pt x="492" y="1115" on="0"/>
        <pt x="492" y="1031" on="0"/>
        <pt x="536" y="995" on="1"/>
        <pt x="575" y="965" on="0"/>
        <pt x="964" y="788" on="0"/>
        <pt x="1114" y="591" on="0"/>
        <pt x="1114" y="444" on="1"/>
        <pt x="1114" y="440" on="0"/>
        <pt x="1114" y="436" on="1"/>
        <pt x="1114" y="236" on="0"/>
        <pt x="805" y="-20" on="0"/>
        <pt x="553" y="-20" on="1"/>
        <pt x="547" y="-20" on="0"/>
        <pt x="541" y="-20" on="1"/>
        <pt x="398" y="-20" on="0"/>
        <pt x="196" y="21" on="0"/>
        <pt x="90" y="72" on="1"/>
      </contour>
    </TTGlyph>
    <TTGlyph name="Scaron" xMin="90" yMin="-20" xMax="1114" yMax="1907">
      <contour>
        <pt x="1085" y="1907" on="1"/>
        <pt x="1085" y="1878" on="1"/>
        <pt x="920" y="1713" on="0"/>
        <pt x="829" y="1579" on="1"/>
        <pt x="436" y="1579" on="1"/>
        <pt x="353" y="1706" on="0"/>
        <pt x="178" y="1878" on="1"/>
        <pt x="178" y="1907" on="1"/>
        <pt x="436" y="1907" on="1"/>
        <pt x="507" y="1862" on="0"/>
        <pt x="630" y="1757" on="1"/>
        <pt x="747" y="1859" on="0"/>
        <pt x="831" y="1907" on="1"/>
      </contour>
      <contour>
        <pt x="203" y="366" on="0"/>
        <pt x="447" y="301" on="0"/>
        <pt x="634" y="301" on="0"/>
        <pt x="719" y="360" on="0"/>
        <pt x="719" y="410" on="1"/>
        <pt x="719" y="439" on="0"/>
        <pt x="687" y="484" on="0"/>
        <pt x="650" y="508" on="1"/>
        <pt x="606" y="534" on="0"/>
        <pt x="314" y="666" on="0"/>
        <pt x="242" y="727" on="1"/>
        <pt x="100" y="847" on="0"/>
        <pt x="100" y="1256" on="0"/>
        <pt x="393" y="1483" on="0"/>
        <pt x="651" y="1483" on="1"/>
        <pt x="878" y="1483" on="0"/>
        <pt x="1114" y="1378" on="1"/>
        <pt x="993" y="1073" on="1"/>
        <pt x="789" y="1167" on="0"/>
        <pt x="639" y="1167" on="1"/>
        <pt x="565" y="1167" on="0"/>
        <pt x="492" y="1115" on="0"/>
        <pt x="492" y="1030" on="0"/>
        <pt x="578" y="964" on="0"/>
        <pt x="964" y="788" on="0"/>
        <pt x="1114" y="594" on="0"/>
        <pt x="1114" y="308" on="0"/>
        <pt x="975" y="97" on="0"/>
        <pt x="714" y="-20" on="0"/>
        <pt x="396" y="-20" on="0"/>
        <pt x="198" y="21" on="0"/>
        <pt x="90" y="72" on="1"/>
        <pt x="90" y="424" on="1"/>
      </contour>
    </TTGlyph>
    <TTGlyph name="T" xMin="51" yMin="0" xMax="1159" yMax="1462">
      <contour>
        <pt x="1159" y="1139" on="1"/>
        <pt x="803" y="1139" on="1"/>
        <pt x="803" y="0" on="1"/>
        <pt x="408" y="0" on="1"/>
        <pt x="408" y="1139" on="1"/>
        <pt x="51" y="1139" on="1"/>
        <pt x="51" y="1462" on="1"/>
        <pt x="1159" y="1462" on="1"/>
      </contour>
    </TTGlyph>
    <TTGlyph name="Thorn" xMin="158" yMin="0" xMax="1219" yMax="1462">
      <contour>
        <pt x="553" y="1249" on="1"/>
        <pt x="664" y="1249" on="1"/>
        <pt x="938" y="1249" on="0"/>
        <pt x="1219" y="1009" on="0"/>
        <pt x="1219" y="784" on="1"/>
        <pt x="1219" y="539" on="0"/>
        <pt x="930" y="272" on="0"/>
        <pt x="664" y="272" on="1"/>
        <pt x="553" y="272" on="1"/>
        <pt x="553" y="0" on="1"/>
        <pt x="158" y="0" on="1"/>
        <pt x="158" y="1462" on="1"/>
        <pt x="553" y="1462" on="1"/>
      </contour>
      <contour>
        <pt x="553" y="930" on="1"/>
        <pt x="553" y="594" on="1"/>
        <pt x="625" y="594" on="1"/>
        <pt x="715" y="594" on="0"/>
        <pt x="819" y="695" on="0"/>
        <pt x="819" y="782" on="1"/>
        <pt x="819" y="930" on="0"/>
        <pt x="655" y="930" on="1"/>
      </contour>
    </TTGlyph>
    <TTGlyph name="U" xMin="150" yMin="-20" xMax="1401" yMax="1462">
      <contour>
        <pt x="1401" y="1462" on="1"/>
        <pt x="1401" y="582" on="1"/>
        <pt x="1401" y="294" on="0"/>
        <pt x="1077" y="-20" on="0"/>
        <pt x="470" y="-20" on="0"/>
        <pt x="150" y="286" on="0"/>
        <pt x="150" y="573" on="1"/>
        <pt x="150" y="1462" on="1"/>
        <pt x="547" y="1462" on="1"/>
        <pt x="547" y="604" on="1"/>
        <pt x="547" y="451" on="0"/>
        <pt x="661" y="309" on="0"/>
        <pt x="897" y="309" on="0"/>
        <pt x="1006" y="448" on="0"/>
        <pt x="1006" y="606" on="1"/>
        <pt x="1006" y="1462" on="1"/>
      </contour>
    </TTGlyph>
    <TTGlyph name="Uacute" xMin="150" yMin="-20" xMax="1401" yMax="1913">
      <contour>
        <pt x="1121" y="1913" on="1"/>
        <pt x="1121" y="1892" on="1"/>
        <pt x="1053" y="1837" on="0"/>
        <pt x="765" y="1633" on="0"/>
        <pt x="689" y="1585" on="1"/>
        <pt x="429" y="1585" on="1"/>
        <pt x="429" y="1614" on="1"/>
        <pt x="584" y="1779" on="0"/>
        <pt x="664" y="1873" on="0"/>
        <pt x="693" y="1913" on="1"/>
      </contour>
      <contour>
        <pt x="1401" y="1462" on="1"/>
        <pt x="1401" y="582" on="1"/>
        <pt x="1401" y="294" on="0"/>
        <pt x="1077" y="-20" on="0"/>
        <pt x="470" y="-20" on="0"/>
        <pt x="150" y="286" on="0"/>
        <pt x="150" y="573" on="1"/>
        <pt x="150" y="1462" on="1"/>
        <pt x="547" y="1462" on="1"/>
        <pt x="547" y="604" on="1"/>
        <pt x="547" y="451" on="0"/>
        <pt x="661" y="309" on="0"/>
        <pt x="897" y="309" on="0"/>
        <pt x="1006" y="448" on="0"/>
        <pt x="1006" y="606" on="1"/>
        <pt x="1006" y="1462" on="1"/>
      </contour>
    </TTGlyph>
    <TTGlyph name="Ucircumflex" xMin="150" yMin="-20" xMax="1401" yMax="1913">
      <contour>
        <pt x="1229" y="1585" on="1"/>
        <pt x="975" y="1585" on="1"/>
        <pt x="891" y="1633" on="0"/>
        <pt x="774" y="1735" on="1"/>
        <pt x="651" y="1630" on="0"/>
        <pt x="580" y="1585" on="1"/>
        <pt x="322" y="1585" on="1"/>
        <pt x="322" y="1614" on="1"/>
        <pt x="391" y="1678" on="0"/>
        <pt x="545" y="1858" on="0"/>
        <pt x="580" y="1913" on="1"/>
        <pt x="973" y="1913" on="1"/>
        <pt x="1070" y="1773" on="0"/>
        <pt x="1229" y="1614" on="1"/>
      </contour>
      <contour>
        <pt x="1401" y="1462" on="1"/>
        <pt x="1401" y="582" on="1"/>
        <pt x="1401" y="294" on="0"/>
        <pt x="1077" y="-20" on="0"/>
        <pt x="470" y="-20" on="0"/>
        <pt x="150" y="286" on="0"/>
        <pt x="150" y="573" on="1"/>
        <pt x="150" y="1462" on="1"/>
        <pt x="547" y="1462" on="1"/>
        <pt x="547" y="604" on="1"/>
        <pt x="547" y="451" on="0"/>
        <pt x="661" y="309" on="0"/>
        <pt x="897" y="309" on="0"/>
        <pt x="1006" y="448" on="0"/>
        <pt x="1006" y="606" on="1"/>
        <pt x="1006" y="1462" on="1"/>
      </contour>
    </TTGlyph>
    <TTGlyph name="Udieresis" xMin="150" yMin="-20" xMax="1401" yMax="1915">
      <contour>
        <pt x="454" y="1915" on="0"/>
        <pt x="612" y="1915" on="0"/>
        <pt x="705" y="1830" on="0"/>
        <pt x="705" y="1686" on="0"/>
        <pt x="612" y="1601" on="0"/>
        <pt x="454" y="1601" on="0"/>
        <pt x="363" y="1683" on="0"/>
        <pt x="363" y="1831" on="0"/>
      </contour>
      <contour>
        <pt x="842" y="1832" on="0"/>
        <pt x="933" y="1915" on="0"/>
        <pt x="1093" y="1915" on="0"/>
        <pt x="1187" y="1829" on="0"/>
        <pt x="1187" y="1686" on="0"/>
        <pt x="1093" y="1601" on="0"/>
        <pt x="933" y="1601" on="0"/>
        <pt x="842" y="1684" on="0"/>
      </contour>
      <contour>
        <pt x="1401" y="1462" on="1"/>
        <pt x="1401" y="582" on="1"/>
        <pt x="1401" y="294" on="0"/>
        <pt x="1077" y="-20" on="0"/>
        <pt x="470" y="-20" on="0"/>
        <pt x="150" y="286" on="0"/>
        <pt x="150" y="573" on="1"/>
        <pt x="150" y="1462" on="1"/>
        <pt x="547" y="1462" on="1"/>
        <pt x="547" y="604" on="1"/>
        <pt x="547" y="451" on="0"/>
        <pt x="661" y="309" on="0"/>
        <pt x="897" y="309" on="0"/>
        <pt x="1006" y="448" on="0"/>
        <pt x="1006" y="606" on="1"/>
        <pt x="1006" y="1462" on="1"/>
      </contour>
    </TTGlyph>
    <TTGlyph name="Ugrave" xMin="150" yMin="-20" xMax="1401" yMax="1913">
      <contour>
        <pt x="429" y="1913" on="1"/>
        <pt x="859" y="1913" on="1"/>
        <pt x="912" y="1842" on="0"/>
        <pt x="1062" y="1680" on="1"/>
        <pt x="1121" y="1614" on="1"/>
        <pt x="1121" y="1585" on="1"/>
        <pt x="861" y="1585" on="1"/>
        <pt x="792" y="1628" on="0"/>
        <pt x="538" y="1807" on="0"/>
        <pt x="429" y="1892" on="1"/>
      </contour>
      <contour>
        <pt x="1401" y="1462" on="1"/>
        <pt x="1401" y="582" on="1"/>
        <pt x="1401" y="294" on="0"/>
        <pt x="1077" y="-20" on="0"/>
        <pt x="470" y="-20" on="0"/>
        <pt x="150" y="286" on="0"/>
        <pt x="150" y="573" on="1"/>
        <pt x="150" y="1462" on="1"/>
        <pt x="547" y="1462" on="1"/>
        <pt x="547" y="604" on="1"/>
        <pt x="547" y="451" on="0"/>
        <pt x="661" y="309" on="0"/>
        <pt x="897" y="309" on="0"/>
        <pt x="1006" y="448" on="0"/>
        <pt x="1006" y="606" on="1"/>
        <pt x="1006" y="1462" on="1"/>
      </contour>
    </TTGlyph>
    <TTGlyph name="V" xMin="0" yMin="0" xMax="1421" yMax="1462">
      <contour>
        <pt x="942" y="0" on="1"/>
        <pt x="477" y="0" on="1"/>
        <pt x="0" y="1462" on="1"/>
        <pt x="444" y="1462" on="1"/>
        <pt x="643" y="721" on="1"/>
        <pt x="705" y="470" on="0"/>
        <pt x="711" y="377" on="1"/>
        <pt x="719" y="452" on="0"/>
        <pt x="761" y="664" on="0"/>
        <pt x="776" y="717" on="1"/>
        <pt x="978" y="1462" on="1"/>
        <pt x="1421" y="1462" on="1"/>
      </contour>
    </TTGlyph>
    <TTGlyph name="W" xMin="31" yMin="0" xMax="2097" yMax="1462">
      <contour>
        <pt x="1737" y="0" on="1"/>
        <pt x="1270" y="0" on="1"/>
        <pt x="1130" y="637" on="1"/>
        <pt x="1123" y="663" on="0"/>
        <pt x="1080" y="898" on="0"/>
        <pt x="1067" y="994" on="1"/>
        <pt x="1050" y="856" on="0"/>
        <pt x="983" y="556" on="1"/>
        <pt x="946" y="390" on="0"/>
        <pt x="860" y="0" on="1"/>
        <pt x="393" y="0" on="1"/>
        <pt x="31" y="1462" on="1"/>
        <pt x="412" y="1462" on="1"/>
        <pt x="571" y="729" on="1"/>
        <pt x="626" y="480" on="0"/>
        <pt x="645" y="342" on="1"/>
        <pt x="659" y="451" on="0"/>
        <pt x="725" y="790" on="0"/>
        <pt x="754" y="909" on="1"/>
        <pt x="883" y="1462" on="1"/>
        <pt x="1249" y="1462" on="1"/>
        <pt x="1374" y="909" on="1"/>
        <pt x="1409" y="763" on="0"/>
        <pt x="1473" y="421" on="0"/>
        <pt x="1483" y="342" on="1"/>
        <pt x="1498" y="463" on="0"/>
        <pt x="1554" y="727" on="1"/>
        <pt x="1716" y="1462" on="1"/>
        <pt x="2097" y="1462" on="1"/>
      </contour>
    </TTGlyph>
    <TTGlyph name="X" xMin="4" yMin="0" xMax="1475" yMax="1462">
      <contour>
        <pt x="976" y="717" on="1"/>
        <pt x="1475" y="0" on="1"/>
        <pt x="1018" y="0" on="1"/>
        <pt x="733" y="457" on="1"/>
        <pt x="451" y="0" on="1"/>
        <pt x="4" y="0" on="1"/>
        <pt x="489" y="748" on="1"/>
        <pt x="33" y="1462" on="1"/>
        <pt x="471" y="1462" on="1"/>
        <pt x="735" y="1010" on="1"/>
        <pt x="988" y="1462" on="1"/>
        <pt x="1440" y="1462" on="1"/>
      </contour>
    </TTGlyph>
    <TTGlyph name="Y" xMin="0" yMin="0" xMax="1360" yMax="1462">
      <contour>
        <pt x="879" y="0" on="1"/>
        <pt x="481" y="0" on="1"/>
        <pt x="481" y="559" on="1"/>
        <pt x="0" y="1462" on="1"/>
        <pt x="430" y="1462" on="1"/>
        <pt x="680" y="920" on="1"/>
        <pt x="932" y="1462" on="1"/>
        <pt x="1360" y="1462" on="1"/>
        <pt x="879" y="571" on="1"/>
      </contour>
    </TTGlyph>
    <TTGlyph name="Yacute" xMin="0" yMin="0" xMax="1360" yMax="1913">
      <contour>
        <pt x="1026" y="1913" on="1"/>
        <pt x="1026" y="1892" on="1"/>
        <pt x="958" y="1837" on="0"/>
        <pt x="670" y="1633" on="0"/>
        <pt x="594" y="1585" on="1"/>
        <pt x="334" y="1585" on="1"/>
        <pt x="334" y="1614" on="1"/>
        <pt x="488" y="1779" on="0"/>
        <pt x="569" y="1873" on="0"/>
        <pt x="598" y="1913" on="1"/>
      </contour>
      <contour>
        <pt x="879" y="0" on="1"/>
        <pt x="481" y="0" on="1"/>
        <pt x="481" y="559" on="1"/>
        <pt x="0" y="1462" on="1"/>
        <pt x="430" y="1462" on="1"/>
        <pt x="680" y="920" on="1"/>
        <pt x="932" y="1462" on="1"/>
        <pt x="1360" y="1462" on="1"/>
        <pt x="879" y="571" on="1"/>
      </contour>
    </TTGlyph>
    <TTGlyph name="Ydieresis" xMin="0" yMin="0" xMax="1360" yMax="1915">
      <contour>
        <pt x="359" y="1915" on="0"/>
        <pt x="517" y="1915" on="0"/>
        <pt x="610" y="1830" on="0"/>
        <pt x="610" y="1686" on="0"/>
        <pt x="517" y="1601" on="0"/>
        <pt x="359" y="1601" on="0"/>
        <pt x="268" y="1683" on="0"/>
        <pt x="268" y="1831" on="0"/>
      </contour>
      <contour>
        <pt x="747" y="1832" on="0"/>
        <pt x="838" y="1915" on="0"/>
        <pt x="998" y="1915" on="0"/>
        <pt x="1092" y="1829" on="0"/>
        <pt x="1092" y="1686" on="0"/>
        <pt x="998" y="1601" on="0"/>
        <pt x="838" y="1601" on="0"/>
        <pt x="747" y="1684" on="0"/>
      </contour>
      <contour>
        <pt x="879" y="0" on="1"/>
        <pt x="481" y="0" on="1"/>
        <pt x="481" y="559" on="1"/>
        <pt x="0" y="1462" on="1"/>
        <pt x="430" y="1462" on="1"/>
        <pt x="680" y="920" on="1"/>
        <pt x="932" y="1462" on="1"/>
        <pt x="1360" y="1462" on="1"/>
        <pt x="879" y="571" on="1"/>
      </contour>
    </TTGlyph>
    <TTGlyph name="Z" xMin="61" yMin="0" xMax="1200" yMax="1462">
      <contour>
        <pt x="1200" y="319" on="1"/>
        <pt x="1200" y="0" on="1"/>
        <pt x="61" y="0" on="1"/>
        <pt x="61" y="244" on="1"/>
        <pt x="694" y="1143" on="1"/>
        <pt x="76" y="1143" on="1"/>
        <pt x="76" y="1462" on="1"/>
        <pt x="1184" y="1462" on="1"/>
        <pt x="1184" y="1219" on="1"/>
        <pt x="551" y="319" on="1"/>
      </contour>
    </TTGlyph>
    <TTGlyph name="Zcaron" xMin="61" yMin="0" xMax="1200" yMax="1907">
      <contour>
        <pt x="1091" y="1907" on="1"/>
        <pt x="1091" y="1878" on="1"/>
        <pt x="926" y="1713" on="0"/>
        <pt x="835" y="1579" on="1"/>
        <pt x="442" y="1579" on="1"/>
        <pt x="359" y="1706" on="0"/>
        <pt x="184" y="1878" on="1"/>
        <pt x="184" y="1907" on="1"/>
        <pt x="442" y="1907" on="1"/>
        <pt x="513" y="1862" on="0"/>
        <pt x="636" y="1757" on="1"/>
        <pt x="753" y="1859" on="0"/>
        <pt x="837" y="1907" on="1"/>
      </contour>
      <contour>
        <pt x="1200" y="319" on="1"/>
        <pt x="1200" y="0" on="1"/>
        <pt x="61" y="0" on="1"/>
        <pt x="61" y="244" on="1"/>
        <pt x="694" y="1143" on="1"/>
        <pt x="76" y="1143" on="1"/>
        <pt x="76" y="1462" on="1"/>
        <pt x="1184" y="1462" on="1"/>
        <pt x="1184" y="1219" on="1"/>
        <pt x="551" y="319" on="1"/>
      </contour>
    </TTGlyph>
    <TTGlyph name="a" xMin="74" yMin="-20" xMax="1145" yMax="1153">
      <contour>
        <pt x="688" y="1153" on="1"/>
        <pt x="906" y="1153" on="0"/>
        <pt x="1145" y="935" on="0"/>
        <pt x="1145" y="743" on="1"/>
        <pt x="1145" y="0" on="1"/>
        <pt x="874" y="0" on="1"/>
        <pt x="799" y="150" on="1"/>
        <pt x="791" y="150" on="1"/>
        <pt x="710" y="51" on="0"/>
        <pt x="548" y="-20" on="0"/>
        <pt x="418" y="-20" on="1"/>
        <pt x="258" y="-20" on="0"/>
        <pt x="74" y="173" on="0"/>
        <pt x="74" y="524" on="0"/>
        <pt x="321" y="704" on="0"/>
        <pt x="565" y="715" on="1"/>
        <pt x="754" y="721" on="1"/>
        <pt x="754" y="737" on="1"/>
        <pt x="754" y="877" on="0"/>
        <pt x="616" y="877" on="1"/>
        <pt x="492" y="877" on="0"/>
        <pt x="301" y="793" on="1"/>
        <pt x="188" y="1051" on="1"/>
        <pt x="386" y="1153" on="0"/>
      </contour>
      <contour>
        <pt x="473" y="360" on="1"/>
        <pt x="473" y="256" on="0"/>
        <pt x="584" y="256" on="1"/>
        <pt x="656" y="256" on="0"/>
        <pt x="756" y="346" on="0"/>
        <pt x="756" y="418" on="1"/>
        <pt x="756" y="506" on="1"/>
        <pt x="666" y="502" on="1"/>
        <pt x="473" y="495" on="0"/>
      </contour>
    </TTGlyph>
    <TTGlyph name="aacute" xMin="74" yMin="-20" xMax="1145" yMax="1569">
      <contour>
        <pt x="984" y="1569" on="1"/>
        <pt x="984" y="1548" on="1"/>
        <pt x="916" y="1493" on="0"/>
        <pt x="628" y="1289" on="0"/>
        <pt x="552" y="1241" on="1"/>
        <pt x="292" y="1241" on="1"/>
        <pt x="292" y="1270" on="1"/>
        <pt x="446" y="1435" on="0"/>
        <pt x="527" y="1529" on="0"/>
        <pt x="556" y="1569" on="1"/>
      </contour>
      <contour>
        <pt x="688" y="1153" on="1"/>
        <pt x="906" y="1153" on="0"/>
        <pt x="1145" y="935" on="0"/>
        <pt x="1145" y="743" on="1"/>
        <pt x="1145" y="0" on="1"/>
        <pt x="874" y="0" on="1"/>
        <pt x="799" y="150" on="1"/>
        <pt x="791" y="150" on="1"/>
        <pt x="710" y="51" on="0"/>
        <pt x="548" y="-20" on="0"/>
        <pt x="418" y="-20" on="1"/>
        <pt x="258" y="-20" on="0"/>
        <pt x="74" y="173" on="0"/>
        <pt x="74" y="524" on="0"/>
        <pt x="321" y="704" on="0"/>
        <pt x="565" y="715" on="1"/>
        <pt x="754" y="721" on="1"/>
        <pt x="754" y="737" on="1"/>
        <pt x="754" y="877" on="0"/>
        <pt x="616" y="877" on="1"/>
        <pt x="492" y="877" on="0"/>
        <pt x="301" y="793" on="1"/>
        <pt x="188" y="1051" on="1"/>
        <pt x="386" y="1153" on="0"/>
      </contour>
      <contour>
        <pt x="473" y="360" on="1"/>
        <pt x="473" y="256" on="0"/>
        <pt x="584" y="256" on="1"/>
        <pt x="656" y="256" on="0"/>
        <pt x="756" y="346" on="0"/>
        <pt x="756" y="418" on="1"/>
        <pt x="756" y="506" on="1"/>
        <pt x="666" y="502" on="1"/>
        <pt x="473" y="495" on="0"/>
      </contour>
    </TTGlyph>
    <TTGlyph name="acircumflex" xMin="74" yMin="-20" xMax="1145" yMax="1569">
      <contour>
        <pt x="1092" y="1241" on="1"/>
        <pt x="838" y="1241" on="1"/>
        <pt x="754" y="1289" on="0"/>
        <pt x="637" y="1391" on="1"/>
        <pt x="514" y="1286" on="0"/>
        <pt x="443" y="1241" on="1"/>
        <pt x="185" y="1241" on="1"/>
        <pt x="185" y="1270" on="1"/>
        <pt x="254" y="1334" on="0"/>
        <pt x="408" y="1514" on="0"/>
        <pt x="443" y="1569" on="1"/>
        <pt x="836" y="1569" on="1"/>
        <pt x="933" y="1429" on="0"/>
        <pt x="1092" y="1270" on="1"/>
      </contour>
      <contour>
        <pt x="688" y="1153" on="1"/>
        <pt x="906" y="1153" on="0"/>
        <pt x="1145" y="935" on="0"/>
        <pt x="1145" y="743" on="1"/>
        <pt x="1145" y="0" on="1"/>
        <pt x="874" y="0" on="1"/>
        <pt x="799" y="150" on="1"/>
        <pt x="791" y="150" on="1"/>
        <pt x="710" y="51" on="0"/>
        <pt x="548" y="-20" on="0"/>
        <pt x="418" y="-20" on="1"/>
        <pt x="258" y="-20" on="0"/>
        <pt x="74" y="173" on="0"/>
        <pt x="74" y="524" on="0"/>
        <pt x="321" y="704" on="0"/>
        <pt x="565" y="715" on="1"/>
        <pt x="754" y="721" on="1"/>
        <pt x="754" y="737" on="1"/>
        <pt x="754" y="877" on="0"/>
        <pt x="616" y="877" on="1"/>
        <pt x="492" y="877" on="0"/>
        <pt x="301" y="793" on="1"/>
        <pt x="188" y="1051" on="1"/>
        <pt x="386" y="1153" on="0"/>
      </contour>
      <contour>
        <pt x="473" y="360" on="1"/>
        <pt x="473" y="256" on="0"/>
        <pt x="584" y="256" on="1"/>
        <pt x="656" y="256" on="0"/>
        <pt x="756" y="346" on="0"/>
        <pt x="756" y="418" on="1"/>
        <pt x="756" y="506" on="1"/>
        <pt x="666" y="502" on="1"/>
        <pt x="473" y="495" on="0"/>
      </contour>
    </TTGlyph>
    <TTGlyph name="acute" xMin="264" yMin="1241" xMax="956" yMax="1569">
      <contour>
        <pt x="956" y="1569" on="1"/>
        <pt x="956" y="1548" on="1"/>
        <pt x="888" y="1493" on="0"/>
        <pt x="600" y="1289" on="0"/>
        <pt x="524" y="1241" on="1"/>
        <pt x="264" y="1241" on="1"/>
        <pt x="264" y="1270" on="1"/>
        <pt x="418" y="1435" on="0"/>
        <pt x="499" y="1529" on="0"/>
        <pt x="528" y="1569" on="1"/>
      </contour>
    </TTGlyph>
    <TTGlyph name="adieresis" xMin="74" yMin="-20" xMax="1145" yMax="1571">
      <contour>
        <pt x="317" y="1571" on="0"/>
        <pt x="475" y="1571" on="0"/>
        <pt x="568" y="1486" on="0"/>
        <pt x="568" y="1342" on="0"/>
        <pt x="475" y="1257" on="0"/>
        <pt x="317" y="1257" on="0"/>
        <pt x="226" y="1339" on="0"/>
        <pt x="226" y="1487" on="0"/>
      </contour>
      <contour>
        <pt x="705" y="1488" on="0"/>
        <pt x="796" y="1571" on="0"/>
        <pt x="956" y="1571" on="0"/>
        <pt x="1050" y="1485" on="0"/>
        <pt x="1050" y="1342" on="0"/>
        <pt x="956" y="1257" on="0"/>
        <pt x="796" y="1257" on="0"/>
        <pt x="705" y="1340" on="0"/>
      </contour>
      <contour>
        <pt x="688" y="1153" on="1"/>
        <pt x="906" y="1153" on="0"/>
        <pt x="1145" y="935" on="0"/>
        <pt x="1145" y="743" on="1"/>
        <pt x="1145" y="0" on="1"/>
        <pt x="874" y="0" on="1"/>
        <pt x="799" y="150" on="1"/>
        <pt x="791" y="150" on="1"/>
        <pt x="710" y="51" on="0"/>
        <pt x="548" y="-20" on="0"/>
        <pt x="418" y="-20" on="1"/>
        <pt x="258" y="-20" on="0"/>
        <pt x="74" y="173" on="0"/>
        <pt x="74" y="524" on="0"/>
        <pt x="321" y="704" on="0"/>
        <pt x="565" y="715" on="1"/>
        <pt x="754" y="721" on="1"/>
        <pt x="754" y="737" on="1"/>
        <pt x="754" y="877" on="0"/>
        <pt x="616" y="877" on="1"/>
        <pt x="492" y="877" on="0"/>
        <pt x="301" y="793" on="1"/>
        <pt x="188" y="1051" on="1"/>
        <pt x="386" y="1153" on="0"/>
      </contour>
      <contour>
        <pt x="473" y="360" on="1"/>
        <pt x="473" y="256" on="0"/>
        <pt x="584" y="256" on="1"/>
        <pt x="656" y="256" on="0"/>
        <pt x="756" y="346" on="0"/>
        <pt x="756" y="418" on="1"/>
        <pt x="756" y="506" on="1"/>
        <pt x="666" y="502" on="1"/>
        <pt x="473" y="495" on="0"/>
      </contour>
    </TTGlyph>
    <TTGlyph name="ae" xMin="74" yMin="-20" xMax="1829" yMax="1153">
      <contour>
        <pt x="649" y="1153" on="1"/>
        <pt x="851" y="1153" on="0"/>
        <pt x="985" y="1059" on="1"/>
        <pt x="1119" y="1153" on="0"/>
        <pt x="1567" y="1153" on="0"/>
        <pt x="1829" y="879" on="0"/>
        <pt x="1829" y="633" on="1"/>
        <pt x="1829" y="461" on="1"/>
        <pt x="1133" y="461" on="1"/>
        <pt x="1137" y="370" on="0"/>
        <pt x="1278" y="258" on="0"/>
        <pt x="1393" y="258" on="1"/>
        <pt x="1587" y="258" on="0"/>
        <pt x="1757" y="344" on="1"/>
        <pt x="1757" y="63" on="1"/>
        <pt x="1666" y="17" on="0"/>
        <pt x="1474" y="-20" on="0"/>
        <pt x="1341" y="-20" on="1"/>
        <pt x="1061" y="-20" on="0"/>
        <pt x="911" y="170" on="1"/>
        <pt x="831" y="87" on="0"/>
        <pt x="709" y="12" on="0"/>
        <pt x="557" y="-20" on="0"/>
        <pt x="434" y="-20" on="1"/>
        <pt x="272" y="-20" on="0"/>
        <pt x="74" y="184" on="0"/>
        <pt x="74" y="352" on="1"/>
        <pt x="74" y="697" on="0"/>
        <pt x="571" y="715" on="1"/>
        <pt x="754" y="721" on="1"/>
        <pt x="754" y="739" on="1"/>
        <pt x="754" y="877" on="0"/>
        <pt x="482" y="877" on="0"/>
        <pt x="305" y="797" on="1"/>
        <pt x="195" y="1053" on="1"/>
        <pt x="385" y="1153" on="0"/>
      </contour>
      <contour>
        <pt x="1315" y="887" on="1"/>
        <pt x="1152" y="887" on="0"/>
        <pt x="1139" y="707" on="1"/>
        <pt x="1479" y="707" on="1"/>
        <pt x="1477" y="788" on="0"/>
        <pt x="1385" y="887" on="0"/>
      </contour>
      <contour>
        <pt x="473" y="356" on="1"/>
        <pt x="473" y="256" on="0"/>
        <pt x="586" y="256" on="1"/>
        <pt x="657" y="256" on="0"/>
        <pt x="756" y="347" on="0"/>
        <pt x="756" y="418" on="1"/>
        <pt x="756" y="506" on="1"/>
        <pt x="672" y="502" on="1"/>
        <pt x="567" y="498" on="0"/>
        <pt x="473" y="429" on="0"/>
      </contour>
    </TTGlyph>
    <TTGlyph name="agrave" xMin="74" yMin="-20" xMax="1145" yMax="1569">
      <contour>
        <pt x="292" y="1569" on="1"/>
        <pt x="722" y="1569" on="1"/>
        <pt x="775" y="1498" on="0"/>
        <pt x="925" y="1336" on="1"/>
        <pt x="984" y="1270" on="1"/>
        <pt x="984" y="1241" on="1"/>
        <pt x="724" y="1241" on="1"/>
        <pt x="655" y="1284" on="0"/>
        <pt x="401" y="1463" on="0"/>
        <pt x="292" y="1548" on="1"/>
      </contour>
      <contour>
        <pt x="688" y="1153" on="1"/>
        <pt x="906" y="1153" on="0"/>
        <pt x="1145" y="935" on="0"/>
        <pt x="1145" y="743" on="1"/>
        <pt x="1145" y="0" on="1"/>
        <pt x="874" y="0" on="1"/>
        <pt x="799" y="150" on="1"/>
        <pt x="791" y="150" on="1"/>
        <pt x="710" y="51" on="0"/>
        <pt x="548" y="-20" on="0"/>
        <pt x="418" y="-20" on="1"/>
        <pt x="258" y="-20" on="0"/>
        <pt x="74" y="173" on="0"/>
        <pt x="74" y="524" on="0"/>
        <pt x="321" y="704" on="0"/>
        <pt x="565" y="715" on="1"/>
        <pt x="754" y="721" on="1"/>
        <pt x="754" y="737" on="1"/>
        <pt x="754" y="877" on="0"/>
        <pt x="616" y="877" on="1"/>
        <pt x="492" y="877" on="0"/>
        <pt x="301" y="793" on="1"/>
        <pt x="188" y="1051" on="1"/>
        <pt x="386" y="1153" on="0"/>
      </contour>
      <contour>
        <pt x="473" y="360" on="1"/>
        <pt x="473" y="256" on="0"/>
        <pt x="584" y="256" on="1"/>
        <pt x="656" y="256" on="0"/>
        <pt x="756" y="346" on="0"/>
        <pt x="756" y="418" on="1"/>
        <pt x="756" y="506" on="1"/>
        <pt x="666" y="502" on="1"/>
        <pt x="473" y="495" on="0"/>
      </contour>
    </TTGlyph>
    <TTGlyph name="alefdageshhb" xMin="72" yMin="0" xMax="1306" yMax="1295">
      <contour>
        <pt x="1258" y="1295" on="1"/>
        <pt x="1258" y="824" on="1"/>
        <pt x="1258" y="762" on="0"/>
        <pt x="1243" y="671" on="0"/>
        <pt x="1220" y="618" on="1"/>
        <pt x="1175" y="508" on="0"/>
        <pt x="1020" y="450" on="1"/>
        <pt x="1211" y="148" on="0"/>
        <pt x="1306" y="0" on="1"/>
        <pt x="873" y="0" on="1"/>
        <pt x="522" y="584" on="1"/>
        <pt x="503" y="554" on="0"/>
        <pt x="503" y="474" on="1"/>
        <pt x="503" y="0" on="1"/>
        <pt x="116" y="0" on="1"/>
        <pt x="116" y="471" on="1"/>
        <pt x="116" y="531" on="0"/>
        <pt x="132" y="625" on="0"/>
        <pt x="156" y="678" on="1"/>
        <pt x="204" y="788" on="0"/>
        <pt x="358" y="846" on="1"/>
        <pt x="231" y="1045" on="0"/>
        <pt x="72" y="1295" on="1"/>
        <pt x="504" y="1295" on="1"/>
        <pt x="762" y="857" on="1"/>
        <pt x="854" y="713" on="1"/>
        <pt x="870" y="748" on="0"/>
        <pt x="870" y="821" on="1"/>
        <pt x="870" y="1295" on="1"/>
      </contour>
      <contour>
        <pt x="544" y="202" on="0"/>
        <pt x="594" y="248" on="0"/>
        <pt x="681" y="248" on="0"/>
        <pt x="733" y="200" on="0"/>
        <pt x="733" y="122" on="0"/>
        <pt x="681" y="75" on="0"/>
        <pt x="593" y="75" on="0"/>
        <pt x="544" y="120" on="0"/>
      </contour>
    </TTGlyph>
    <TTGlyph name="alefpatahhb" xMin="72" yMin="-242" xMax="1306" yMax="1295">
      <contour>
        <pt x="1258" y="1295" on="1"/>
        <pt x="1258" y="824" on="1"/>
        <pt x="1258" y="762" on="0"/>
        <pt x="1243" y="671" on="0"/>
        <pt x="1220" y="618" on="1"/>
        <pt x="1175" y="508" on="0"/>
        <pt x="1020" y="450" on="1"/>
        <pt x="1211" y="148" on="0"/>
        <pt x="1306" y="0" on="1"/>
        <pt x="873" y="0" on="1"/>
        <pt x="522" y="584" on="1"/>
        <pt x="503" y="554" on="0"/>
        <pt x="503" y="474" on="1"/>
        <pt x="503" y="0" on="1"/>
        <pt x="116" y="0" on="1"/>
        <pt x="116" y="471" on="1"/>
        <pt x="116" y="531" on="0"/>
        <pt x="132" y="625" on="0"/>
        <pt x="156" y="678" on="1"/>
        <pt x="204" y="788" on="0"/>
        <pt x="358" y="846" on="1"/>
        <pt x="231" y="1045" on="0"/>
        <pt x="72" y="1295" on="1"/>
        <pt x="504" y="1295" on="1"/>
        <pt x="762" y="857" on="1"/>
        <pt x="854" y="713" on="1"/>
        <pt x="870" y="748" on="0"/>
        <pt x="870" y="821" on="1"/>
        <pt x="870" y="1295" on="1"/>
      </contour>
      <contour>
        <pt x="886" y="-242" on="1"/>
        <pt x="493" y="-242" on="1"/>
        <pt x="493" y="-126" on="1"/>
        <pt x="886" y="-126" on="1"/>
      </contour>
    </TTGlyph>
    <TTGlyph name="alefqamatshb" xMin="72" yMin="-445" xMax="1306" yMax="1295">
      <contour>
        <pt x="1258" y="1295" on="1"/>
        <pt x="1258" y="824" on="1"/>
        <pt x="1258" y="762" on="0"/>
        <pt x="1243" y="671" on="0"/>
        <pt x="1220" y="618" on="1"/>
        <pt x="1175" y="508" on="0"/>
        <pt x="1020" y="450" on="1"/>
        <pt x="1211" y="148" on="0"/>
        <pt x="1306" y="0" on="1"/>
        <pt x="873" y="0" on="1"/>
        <pt x="522" y="584" on="1"/>
        <pt x="503" y="554" on="0"/>
        <pt x="503" y="474" on="1"/>
        <pt x="503" y="0" on="1"/>
        <pt x="116" y="0" on="1"/>
        <pt x="116" y="471" on="1"/>
        <pt x="116" y="531" on="0"/>
        <pt x="132" y="625" on="0"/>
        <pt x="156" y="678" on="1"/>
        <pt x="204" y="788" on="0"/>
        <pt x="358" y="846" on="1"/>
        <pt x="231" y="1045" on="0"/>
        <pt x="72" y="1295" on="1"/>
        <pt x="504" y="1295" on="1"/>
        <pt x="762" y="857" on="1"/>
        <pt x="854" y="713" on="1"/>
        <pt x="870" y="748" on="0"/>
        <pt x="870" y="821" on="1"/>
        <pt x="870" y="1295" on="1"/>
      </contour>
      <contour>
        <pt x="881" y="-243" on="1"/>
        <pt x="745" y="-243" on="1"/>
        <pt x="745" y="-445" on="1"/>
        <pt x="634" y="-445" on="1"/>
        <pt x="634" y="-243" on="1"/>
        <pt x="499" y="-243" on="1"/>
        <pt x="499" y="-126" on="1"/>
        <pt x="881" y="-126" on="1"/>
      </contour>
    </TTGlyph>
    <TTGlyph name="ampersand" xMin="72" yMin="-20" xMax="1647" yMax="1481">
      <contour>
        <pt x="591" y="-20" on="1"/>
        <pt x="362" y="-20" on="0"/>
        <pt x="72" y="216" on="0"/>
        <pt x="72" y="394" on="1"/>
        <pt x="72" y="400" on="0"/>
        <pt x="72" y="406" on="1"/>
        <pt x="72" y="667" on="0"/>
        <pt x="344" y="807" on="1"/>
        <pt x="213" y="954" on="0"/>
        <pt x="213" y="1133" on="1"/>
        <pt x="213" y="1292" on="0"/>
        <pt x="336" y="1387" on="1"/>
        <pt x="460" y="1481" on="0"/>
        <pt x="888" y="1481" on="0"/>
        <pt x="1004" y="1387" on="1"/>
        <pt x="1122" y="1294" on="0"/>
        <pt x="1122" y="1133" on="1"/>
        <pt x="1122" y="1020" on="0"/>
        <pt x="994" y="833" on="0"/>
        <pt x="858" y="750" on="1"/>
        <pt x="1057" y="561" on="1"/>
        <pt x="1133" y="678" on="0"/>
        <pt x="1161" y="821" on="1"/>
        <pt x="1567" y="821" on="1"/>
        <pt x="1538" y="686" on="0"/>
        <pt x="1407" y="405" on="0"/>
        <pt x="1327" y="307" on="1"/>
        <pt x="1647" y="0" on="1"/>
        <pt x="1141" y="0" on="1"/>
        <pt x="1042" y="102" on="1"/>
        <pt x="949" y="44" on="0"/>
        <pt x="894" y="23" on="1"/>
        <pt x="777" y="-20" on="0"/>
        <pt x="602" y="-20" on="1"/>
        <pt x="596" y="-20" on="0"/>
      </contour>
      <contour>
        <pt x="715" y="1225" on="0"/>
        <pt x="625" y="1225" on="0"/>
        <pt x="565" y="1172" on="0"/>
        <pt x="565" y="1120" on="1"/>
        <pt x="565" y="1044" on="0"/>
        <pt x="653" y="965" on="1"/>
        <pt x="709" y="997" on="0"/>
        <pt x="770" y="1085" on="0"/>
        <pt x="770" y="1180" on="0"/>
      </contour>
      <contour>
        <pt x="475" y="434" on="1"/>
        <pt x="475" y="371" on="0"/>
        <pt x="565" y="291" on="0"/>
        <pt x="639" y="291" on="1"/>
        <pt x="744" y="291" on="0"/>
        <pt x="805" y="340" on="1"/>
        <pt x="557" y="592" on="1"/>
        <pt x="475" y="531" on="0"/>
      </contour>
    </TTGlyph>
    <TTGlyph name="aring" xMin="74" yMin="-20" xMax="1145" yMax="1743">
      <contour>
        <pt x="293" y="1605" on="0"/>
        <pt x="436" y="1743" on="0"/>
        <pt x="675" y="1743" on="0"/>
        <pt x="829" y="1602" on="0"/>
        <pt x="829" y="1378" on="0"/>
        <pt x="677" y="1237" on="0"/>
        <pt x="436" y="1237" on="0"/>
        <pt x="293" y="1374" on="0"/>
      </contour>
      <contour>
        <pt x="593" y="1573" on="0"/>
        <pt x="521" y="1573" on="0"/>
        <pt x="473" y="1527" on="0"/>
        <pt x="473" y="1451" on="0"/>
        <pt x="516" y="1405" on="0"/>
        <pt x="593" y="1405" on="0"/>
        <pt x="641" y="1453" on="0"/>
        <pt x="641" y="1527" on="0"/>
      </contour>
      <contour>
        <pt x="688" y="1153" on="1"/>
        <pt x="906" y="1153" on="0"/>
        <pt x="1145" y="935" on="0"/>
        <pt x="1145" y="743" on="1"/>
        <pt x="1145" y="0" on="1"/>
        <pt x="874" y="0" on="1"/>
        <pt x="799" y="150" on="1"/>
        <pt x="791" y="150" on="1"/>
        <pt x="710" y="51" on="0"/>
        <pt x="548" y="-20" on="0"/>
        <pt x="418" y="-20" on="1"/>
        <pt x="258" y="-20" on="0"/>
        <pt x="74" y="173" on="0"/>
        <pt x="74" y="524" on="0"/>
        <pt x="321" y="704" on="0"/>
        <pt x="565" y="715" on="1"/>
        <pt x="754" y="721" on="1"/>
        <pt x="754" y="737" on="1"/>
        <pt x="754" y="877" on="0"/>
        <pt x="616" y="877" on="1"/>
        <pt x="492" y="877" on="0"/>
        <pt x="301" y="793" on="1"/>
        <pt x="188" y="1051" on="1"/>
        <pt x="386" y="1153" on="0"/>
      </contour>
      <contour>
        <pt x="473" y="360" on="1"/>
        <pt x="473" y="256" on="0"/>
        <pt x="584" y="256" on="1"/>
        <pt x="656" y="256" on="0"/>
        <pt x="756" y="346" on="0"/>
        <pt x="756" y="418" on="1"/>
        <pt x="756" y="506" on="1"/>
        <pt x="666" y="502" on="1"/>
        <pt x="473" y="495" on="0"/>
      </contour>
    </TTGlyph>
    <TTGlyph name="asciicircum" xMin="-16" yMin="502" xMax="1102" yMax="1468">
      <contour>
        <pt x="1102" y="502" on="1"/>
        <pt x="807" y="502" on="1"/>
        <pt x="518" y="1079" on="1"/>
        <pt x="394" y="788" on="1"/>
        <pt x="270" y="502" on="1"/>
        <pt x="-16" y="502" on="1"/>
        <pt x="424" y="1468" on="1"/>
        <pt x="594" y="1468" on="1"/>
      </contour>
    </TTGlyph>
    <TTGlyph name="asciitilde" xMin="72" yMin="526" xMax="1085" yMax="918">
      <contour>
        <pt x="821" y="528" on="1"/>
        <pt x="750" y="528" on="0"/>
        <pt x="621" y="559" on="0"/>
        <pt x="541" y="592" on="1"/>
        <pt x="412" y="647" on="0"/>
        <pt x="194" y="647" on="0"/>
        <pt x="72" y="526" on="1"/>
        <pt x="72" y="807" on="1"/>
        <pt x="176" y="915" on="0"/>
        <pt x="336" y="915" on="1"/>
        <pt x="402" y="915" on="0"/>
        <pt x="530" y="887" on="0"/>
        <pt x="616" y="852" on="1"/>
        <pt x="745" y="797" on="0"/>
        <pt x="854" y="797" on="1"/>
        <pt x="905" y="797" on="0"/>
        <pt x="1029" y="862" on="0"/>
        <pt x="1085" y="918" on="1"/>
        <pt x="1085" y="637" on="1"/>
        <pt x="980" y="528" on="0"/>
      </contour>
    </TTGlyph>
    <TTGlyph name="asterisk" xMin="45" yMin="573" xMax="1057" yMax="1556">
      <contour>
        <pt x="664" y="1204" on="1"/>
        <pt x="1020" y="1305" on="1"/>
        <pt x="1057" y="1010" on="1"/>
        <pt x="743" y="988" on="1"/>
        <pt x="950" y="711" on="1"/>
        <pt x="690" y="573" on="1"/>
        <pt x="547" y="856" on="1"/>
        <pt x="424" y="575" on="1"/>
        <pt x="152" y="711" on="1"/>
        <pt x="358" y="988" on="1"/>
        <pt x="45" y="1014" on="1"/>
        <pt x="90" y="1305" on="1"/>
        <pt x="438" y="1204" on="1"/>
        <pt x="399" y="1556" on="1"/>
        <pt x="702" y="1556" on="1"/>
      </contour>
    </TTGlyph>
    <TTGlyph name="at" xMin="82" yMin="-154" xMax="1755" yMax="1481">
      <contour>
        <pt x="913" y="-154" on="1"/>
        <pt x="524" y="-154" on="0"/>
        <pt x="82" y="251" on="0"/>
        <pt x="82" y="610" on="1"/>
        <pt x="82" y="864" on="0"/>
        <pt x="312" y="1264" on="0"/>
        <pt x="714" y="1481" on="0"/>
        <pt x="1202" y="1481" on="0"/>
        <pt x="1562" y="1303" on="0"/>
        <pt x="1755" y="974" on="0"/>
        <pt x="1755" y="756" on="1"/>
        <pt x="1755" y="613" on="0"/>
        <pt x="1706" y="493" on="1"/>
        <pt x="1658" y="370" on="0"/>
        <pt x="1486" y="233" on="0"/>
        <pt x="1376" y="233" on="1"/>
        <pt x="1297" y="233" on="0"/>
        <pt x="1169" y="296" on="0"/>
        <pt x="1133" y="352" on="1"/>
        <pt x="1118" y="352" on="1"/>
        <pt x="1011" y="233" on="0"/>
        <pt x="858" y="233" on="1"/>
        <pt x="676" y="233" on="0"/>
        <pt x="479" y="446" on="0"/>
        <pt x="479" y="639" on="1"/>
        <pt x="479" y="645" on="0"/>
        <pt x="479" y="651" on="1"/>
        <pt x="479" y="855" on="0"/>
        <pt x="757" y="1114" on="0"/>
        <pt x="980" y="1114" on="1"/>
        <pt x="985" y="1114" on="0"/>
        <pt x="990" y="1114" on="1"/>
        <pt x="1069" y="1114" on="0"/>
        <pt x="1273" y="1079" on="0"/>
        <pt x="1348" y="1053" on="1"/>
        <pt x="1327" y="631" on="1"/>
        <pt x="1325" y="537" on="1"/>
        <pt x="1325" y="451" on="0"/>
        <pt x="1374" y="451" on="1"/>
        <pt x="1426" y="451" on="0"/>
        <pt x="1458" y="538" on="1"/>
        <pt x="1491" y="625" on="0"/>
        <pt x="1491" y="758" on="1"/>
        <pt x="1491" y="996" on="0"/>
        <pt x="1222" y="1257" on="0"/>
        <pt x="972" y="1257" on="1"/>
        <pt x="967" y="1257" on="0"/>
        <pt x="963" y="1257" on="1"/>
        <pt x="685" y="1257" on="0"/>
        <pt x="354" y="906" on="0"/>
        <pt x="354" y="616" on="1"/>
        <pt x="354" y="611" on="0"/>
        <pt x="354" y="606" on="1"/>
        <pt x="354" y="351" on="0"/>
        <pt x="638" y="74" on="0"/>
        <pt x="1142" y="74" on="0"/>
        <pt x="1413" y="170" on="1"/>
        <pt x="1413" y="-59" on="1"/>
        <pt x="1188" y="-154" on="0"/>
      </contour>
      <contour>
        <pt x="994" y="895" on="1"/>
        <pt x="886" y="895" on="0"/>
        <pt x="760" y="760" on="0"/>
        <pt x="760" y="641" on="1"/>
        <pt x="760" y="545" on="0"/>
        <pt x="830" y="451" on="0"/>
        <pt x="968" y="451" on="0"/>
        <pt x="1006" y="513" on="1"/>
        <pt x="1042" y="575" on="0"/>
        <pt x="1053" y="733" on="1"/>
        <pt x="1063" y="889" on="1"/>
        <pt x="1023" y="895" on="0"/>
      </contour>
    </TTGlyph>
    <TTGlyph name="atilde" xMin="74" yMin="-20" xMax="1145" yMax="1581">
      <contour>
        <pt x="813" y="1239" on="1"/>
        <pt x="750" y="1239" on="0"/>
        <pt x="516" y="1335" on="0"/>
        <pt x="469" y="1335" on="1"/>
        <pt x="415" y="1335" on="0"/>
        <pt x="397" y="1237" on="1"/>
        <pt x="217" y="1237" on="1"/>
        <pt x="228" y="1412" on="0"/>
        <pt x="350" y="1579" on="0"/>
        <pt x="469" y="1579" on="1"/>
        <pt x="520" y="1579" on="0"/>
        <pt x="754" y="1483" on="0"/>
        <pt x="805" y="1483" on="1"/>
        <pt x="859" y="1483" on="0"/>
        <pt x="877" y="1581" on="1"/>
        <pt x="1059" y="1581" on="1"/>
        <pt x="1048" y="1414" on="0"/>
        <pt x="922" y="1239" on="0"/>
      </contour>
      <contour>
        <pt x="688" y="1153" on="1"/>
        <pt x="906" y="1153" on="0"/>
        <pt x="1145" y="935" on="0"/>
        <pt x="1145" y="743" on="1"/>
        <pt x="1145" y="0" on="1"/>
        <pt x="874" y="0" on="1"/>
        <pt x="799" y="150" on="1"/>
        <pt x="791" y="150" on="1"/>
        <pt x="710" y="51" on="0"/>
        <pt x="548" y="-20" on="0"/>
        <pt x="418" y="-20" on="1"/>
        <pt x="258" y="-20" on="0"/>
        <pt x="74" y="173" on="0"/>
        <pt x="74" y="524" on="0"/>
        <pt x="321" y="704" on="0"/>
        <pt x="565" y="715" on="1"/>
        <pt x="754" y="721" on="1"/>
        <pt x="754" y="737" on="1"/>
        <pt x="754" y="877" on="0"/>
        <pt x="616" y="877" on="1"/>
        <pt x="492" y="877" on="0"/>
        <pt x="301" y="793" on="1"/>
        <pt x="188" y="1051" on="1"/>
        <pt x="386" y="1153" on="0"/>
      </contour>
      <contour>
        <pt x="473" y="360" on="1"/>
        <pt x="473" y="256" on="0"/>
        <pt x="584" y="256" on="1"/>
        <pt x="656" y="256" on="0"/>
        <pt x="756" y="346" on="0"/>
        <pt x="756" y="418" on="1"/>
        <pt x="756" y="506" on="1"/>
        <pt x="666" y="502" on="1"/>
        <pt x="473" y="495" on="0"/>
      </contour>
    </TTGlyph>
    <TTGlyph name="b" xMin="135" yMin="-20" xMax="1229" yMax="1556">
      <contour>
        <pt x="526" y="1556" on="1"/>
        <pt x="526" y="1204" on="1"/>
        <pt x="526" y="1148" on="0"/>
        <pt x="512" y="986" on="1"/>
        <pt x="526" y="986" on="1"/>
        <pt x="634" y="1153" on="0"/>
        <pt x="1012" y="1153" on="0"/>
        <pt x="1120" y="997" on="1"/>
        <pt x="1229" y="845" on="0"/>
        <pt x="1229" y="294" on="0"/>
        <pt x="1010" y="-20" on="0"/>
        <pt x="815" y="-20" on="1"/>
        <pt x="699" y="-20" on="0"/>
        <pt x="615" y="31" on="1"/>
        <pt x="577" y="55" on="0"/>
        <pt x="526" y="111" on="1"/>
        <pt x="502" y="111" on="1"/>
        <pt x="440" y="0" on="1"/>
        <pt x="135" y="0" on="1"/>
        <pt x="135" y="1556" on="1"/>
      </contour>
      <contour>
        <pt x="526" y="610" on="1"/>
        <pt x="526" y="555" on="1"/>
        <pt x="526" y="416" on="0"/>
        <pt x="602" y="295" on="0"/>
        <pt x="688" y="295" on="1"/>
        <pt x="757" y="295" on="0"/>
        <pt x="831" y="437" on="0"/>
        <pt x="831" y="573" on="1"/>
        <pt x="831" y="846" on="0"/>
        <pt x="684" y="846" on="1"/>
        <pt x="602" y="846" on="0"/>
        <pt x="526" y="732" on="0"/>
      </contour>
    </TTGlyph>
    <TTGlyph name="backslash" xMin="6" yMin="-20" xMax="897" yMax="1483">
      <contour>
        <pt x="897" y="-20" on="1"/>
        <pt x="551" y="-20" on="1"/>
        <pt x="6" y="1483" on="1"/>
        <pt x="352" y="1483" on="1"/>
      </contour>
    </TTGlyph>
    <TTGlyph name="bar" xMin="387" yMin="-446" xMax="655" yMax="1556">
      <contour>
        <pt x="655" y="-446" on="1"/>
        <pt x="387" y="-446" on="1"/>
        <pt x="387" y="1556" on="1"/>
        <pt x="655" y="1556" on="1"/>
      </contour>
    </TTGlyph>
    <TTGlyph name="betdageshhb" xMin="82" yMin="0" xMax="1168" yMax="1315">
      <contour>
        <pt x="479" y="1315" on="1"/>
        <pt x="661" y="1315" on="0"/>
        <pt x="766" y="1282" on="1"/>
        <pt x="883" y="1246" on="0"/>
        <pt x="932" y="1188" on="1"/>
        <pt x="990" y="1122" on="0"/>
        <pt x="1008" y="1038" on="1"/>
        <pt x="1027" y="955" on="0"/>
        <pt x="1027" y="839" on="1"/>
        <pt x="1027" y="299" on="1"/>
        <pt x="1168" y="299" on="1"/>
        <pt x="1168" y="0" on="1"/>
        <pt x="82" y="0" on="1"/>
        <pt x="82" y="299" on="1"/>
        <pt x="639" y="299" on="1"/>
        <pt x="639" y="822" on="1"/>
        <pt x="639" y="1015" on="0"/>
        <pt x="442" y="1015" on="1"/>
        <pt x="318" y="1015" on="0"/>
        <pt x="144" y="998" on="1"/>
        <pt x="82" y="992" on="1"/>
        <pt x="82" y="1289" on="1"/>
        <pt x="203" y="1315" on="0"/>
      </contour>
      <contour>
        <pt x="286" y="714" on="0"/>
        <pt x="336" y="760" on="0"/>
        <pt x="423" y="760" on="0"/>
        <pt x="475" y="712" on="0"/>
        <pt x="475" y="634" on="0"/>
        <pt x="423" y="587" on="0"/>
        <pt x="335" y="587" on="0"/>
        <pt x="286" y="632" on="0"/>
      </contour>
    </TTGlyph>
    <TTGlyph name="braceleft" xMin="61" yMin="-344" xMax="821" yMax="1483">
      <contour>
        <pt x="821" y="1483" on="1"/>
        <pt x="821" y="1204" on="1"/>
        <pt x="733" y="1201" on="0"/>
        <pt x="700" y="1190" on="1"/>
        <pt x="631" y="1168" on="0"/>
        <pt x="631" y="1098" on="1"/>
        <pt x="631" y="827" on="1"/>
        <pt x="631" y="713" on="0"/>
        <pt x="517" y="593" on="0"/>
        <pt x="391" y="575" on="1"/>
        <pt x="391" y="563" on="1"/>
        <pt x="518" y="543" on="0"/>
        <pt x="631" y="426" on="0"/>
        <pt x="631" y="317" on="1"/>
        <pt x="631" y="41" on="1"/>
        <pt x="631" y="2" on="0"/>
        <pt x="671" y="-41" on="0"/>
        <pt x="744" y="-63" on="0"/>
        <pt x="821" y="-66" on="1"/>
        <pt x="821" y="-344" on="1"/>
        <pt x="625" y="-344" on="0"/>
        <pt x="404" y="-280" on="0"/>
        <pt x="307" y="-141" on="0"/>
        <pt x="307" y="0" on="1"/>
        <pt x="307" y="248" on="1"/>
        <pt x="307" y="328" on="0"/>
        <pt x="174" y="418" on="0"/>
        <pt x="61" y="418" on="1"/>
        <pt x="61" y="719" on="1"/>
        <pt x="176" y="719" on="0"/>
        <pt x="307" y="808" on="0"/>
        <pt x="307" y="889" on="1"/>
        <pt x="307" y="1143" on="1"/>
        <pt x="307" y="1283" on="0"/>
        <pt x="405" y="1420" on="0"/>
        <pt x="626" y="1483" on="0"/>
      </contour>
    </TTGlyph>
    <TTGlyph name="braceright" xMin="66" yMin="-344" xMax="825" yMax="1483">
      <contour>
        <pt x="66" y="1483" on="1"/>
        <pt x="261" y="1483" on="0"/>
        <pt x="482" y="1419" on="0"/>
        <pt x="580" y="1283" on="0"/>
        <pt x="580" y="1143" on="1"/>
        <pt x="580" y="889" on="1"/>
        <pt x="580" y="808" on="0"/>
        <pt x="710" y="719" on="0"/>
        <pt x="825" y="719" on="1"/>
        <pt x="825" y="418" on="1"/>
        <pt x="713" y="418" on="0"/>
        <pt x="580" y="327" on="0"/>
        <pt x="580" y="248" on="1"/>
        <pt x="580" y="0" on="1"/>
        <pt x="580" y="-140" on="0"/>
        <pt x="482" y="-280" on="0"/>
        <pt x="261" y="-344" on="0"/>
        <pt x="66" y="-344" on="1"/>
        <pt x="66" y="-66" on="1"/>
        <pt x="171" y="-62" on="0"/>
        <pt x="256" y="-12" on="0"/>
        <pt x="256" y="41" on="1"/>
        <pt x="256" y="317" on="1"/>
        <pt x="256" y="426" on="0"/>
        <pt x="369" y="543" on="0"/>
        <pt x="496" y="563" on="1"/>
        <pt x="496" y="575" on="1"/>
        <pt x="370" y="593" on="0"/>
        <pt x="256" y="713" on="0"/>
        <pt x="256" y="827" on="1"/>
        <pt x="256" y="1098" on="1"/>
        <pt x="256" y="1167" on="0"/>
        <pt x="186" y="1190" on="1"/>
        <pt x="154" y="1201" on="0"/>
        <pt x="66" y="1204" on="1"/>
      </contour>
    </TTGlyph>
    <TTGlyph name="bracketleft" xMin="117" yMin="-344" xMax="616" yMax="1503">
      <contour>
        <pt x="616" y="1249" on="1"/>
        <pt x="434" y="1249" on="1"/>
        <pt x="434" y="-90" on="1"/>
        <pt x="616" y="-90" on="1"/>
        <pt x="616" y="-344" on="1"/>
        <pt x="117" y="-344" on="1"/>
        <pt x="117" y="1503" on="1"/>
        <pt x="616" y="1503" on="1"/>
      </contour>
    </TTGlyph>
    <TTGlyph name="bracketright" xMin="47" yMin="-344" xMax="547" yMax="1503">
      <contour>
        <pt x="547" y="-344" on="1"/>
        <pt x="47" y="-344" on="1"/>
        <pt x="47" y="-90" on="1"/>
        <pt x="229" y="-90" on="1"/>
        <pt x="229" y="1249" on="1"/>
        <pt x="47" y="1249" on="1"/>
        <pt x="47" y="1503" on="1"/>
        <pt x="547" y="1503" on="1"/>
      </contour>
    </TTGlyph>
    <TTGlyph name="breve" xMin="209" yMin="1241" xMax="1018" yMax="1612">
      <contour>
        <pt x="1008" y="1440" on="0"/>
        <pt x="791" y="1241" on="0"/>
        <pt x="423" y="1241" on="0"/>
        <pt x="218" y="1431" on="0"/>
        <pt x="209" y="1612" on="1"/>
        <pt x="420" y="1612" on="1"/>
        <pt x="440" y="1533" on="0"/>
        <pt x="515" y="1481" on="0"/>
        <pt x="691" y="1481" on="0"/>
        <pt x="780" y="1543" on="0"/>
        <pt x="799" y="1612" on="1"/>
        <pt x="1018" y="1612" on="1"/>
      </contour>
    </TTGlyph>
    <TTGlyph name="brokenbar" xMin="387" yMin="-446" xMax="655" yMax="1556">
      <contour>
        <pt x="655" y="717" on="1"/>
        <pt x="387" y="717" on="1"/>
        <pt x="387" y="1556" on="1"/>
        <pt x="655" y="1556" on="1"/>
      </contour>
      <contour>
        <pt x="655" y="-446" on="1"/>
        <pt x="387" y="-446" on="1"/>
        <pt x="387" y="393" on="1"/>
        <pt x="655" y="393" on="1"/>
      </contour>
    </TTGlyph>
    <TTGlyph name="bullet" xMin="74" yMin="387" xMax="729" yMax="1108">
      <contour>
        <pt x="74" y="921" on="0"/>
        <pt x="243" y="1108" on="0"/>
        <pt x="558" y="1108" on="0"/>
        <pt x="729" y="919" on="0"/>
        <pt x="729" y="577" on="0"/>
        <pt x="555" y="387" on="0"/>
        <pt x="245" y="387" on="0"/>
        <pt x="74" y="574" on="0"/>
      </contour>
    </TTGlyph>
    <TTGlyph name="c" xMin="86" yMin="-20" xMax="1053" yMax="1153">
      <contour>
        <pt x="651" y="-20" on="1"/>
        <pt x="374" y="-20" on="0"/>
        <pt x="86" y="279" on="0"/>
        <pt x="86" y="844" on="0"/>
        <pt x="241" y="997" on="1"/>
        <pt x="396" y="1153" on="0"/>
        <pt x="682" y="1153" on="1"/>
        <pt x="878" y="1153" on="0"/>
        <pt x="1053" y="1067" on="1"/>
        <pt x="938" y="778" on="1"/>
        <pt x="857" y="813" on="0"/>
        <pt x="742" y="846" on="0"/>
        <pt x="682" y="846" on="1"/>
        <pt x="587" y="846" on="0"/>
        <pt x="483" y="698" on="0"/>
        <pt x="483" y="563" on="1"/>
        <pt x="483" y="291" on="0"/>
        <pt x="684" y="291" on="1"/>
        <pt x="857" y="291" on="0"/>
        <pt x="1014" y="391" on="1"/>
        <pt x="1014" y="80" on="1"/>
        <pt x="863" y="-20" on="0"/>
      </contour>
    </TTGlyph>
    <TTGlyph name="caron" xMin="164" yMin="1241" xMax="1071" yMax="1569">
      <contour>
        <pt x="1071" y="1569" on="1"/>
        <pt x="1071" y="1540" on="1"/>
        <pt x="906" y="1375" on="0"/>
        <pt x="815" y="1241" on="1"/>
        <pt x="422" y="1241" on="1"/>
        <pt x="339" y="1368" on="0"/>
        <pt x="164" y="1540" on="1"/>
        <pt x="164" y="1569" on="1"/>
        <pt x="422" y="1569" on="1"/>
        <pt x="493" y="1524" on="0"/>
        <pt x="616" y="1419" on="1"/>
        <pt x="733" y="1521" on="0"/>
        <pt x="817" y="1569" on="1"/>
      </contour>
    </TTGlyph>
    <TTGlyph name="ccedilla" xMin="86" yMin="-492" xMax="1053" yMax="1153">
      <contour>
        <pt x="682" y="846" on="1"/>
        <pt x="587" y="846" on="0"/>
        <pt x="483" y="698" on="0"/>
        <pt x="483" y="563" on="1"/>
        <pt x="483" y="291" on="0"/>
        <pt x="684" y="291" on="1"/>
        <pt x="857" y="291" on="0"/>
        <pt x="1014" y="391" on="1"/>
        <pt x="1014" y="80" on="1"/>
        <pt x="863" y="-20" on="0"/>
        <pt x="651" y="-20" on="1"/>
        <pt x="629" y="-20" on="1"/>
        <pt x="626" y="-29" on="1"/>
        <pt x="719" y="-67" on="0"/>
        <pt x="796" y="-172" on="0"/>
        <pt x="796" y="-252" on="1"/>
        <pt x="796" y="-362" on="0"/>
        <pt x="646" y="-492" on="0"/>
        <pt x="387" y="-492" on="0"/>
        <pt x="309" y="-463" on="1"/>
        <pt x="309" y="-258" on="1"/>
        <pt x="392" y="-285" on="0"/>
        <pt x="456" y="-285" on="1"/>
        <pt x="508" y="-285" on="0"/>
        <pt x="508" y="-238" on="1"/>
        <pt x="508" y="-206" on="0"/>
        <pt x="428" y="-154" on="0"/>
        <pt x="360" y="-139" on="1"/>
        <pt x="432" y="0" on="1"/>
        <pt x="467" y="0" on="1"/>
        <pt x="279" y="45" on="0"/>
        <pt x="86" y="330" on="0"/>
        <pt x="86" y="561" on="1"/>
        <pt x="86" y="844" on="0"/>
        <pt x="241" y="997" on="1"/>
        <pt x="396" y="1153" on="0"/>
        <pt x="682" y="1153" on="1"/>
        <pt x="878" y="1153" on="0"/>
        <pt x="1053" y="1067" on="1"/>
        <pt x="938" y="778" on="1"/>
        <pt x="857" y="813" on="0"/>
        <pt x="742" y="846" on="0"/>
      </contour>
    </TTGlyph>
    <TTGlyph name="cedilla" xMin="-90" yMin="-492" xMax="397" yMax="0">
      <contour>
        <pt x="397" y="-252" on="1"/>
        <pt x="397" y="-362" on="0"/>
        <pt x="247" y="-492" on="0"/>
        <pt x="-12" y="-492" on="0"/>
        <pt x="-90" y="-463" on="1"/>
        <pt x="-90" y="-258" on="1"/>
        <pt x="-8" y="-285" on="0"/>
        <pt x="57" y="-285" on="1"/>
        <pt x="109" y="-285" on="0"/>
        <pt x="109" y="-238" on="1"/>
        <pt x="109" y="-206" on="0"/>
        <pt x="29" y="-154" on="0"/>
        <pt x="-39" y="-139" on="1"/>
        <pt x="33" y="0" on="1"/>
        <pt x="236" y="0" on="1"/>
        <pt x="227" y="-29" on="1"/>
        <pt x="320" y="-67" on="0"/>
        <pt x="397" y="-172" on="0"/>
      </contour>
    </TTGlyph>
    <TTGlyph name="cent" xMin="129" yMin="-20" xMax="1096" yMax="1483">
      <contour>
        <pt x="772" y="1483" on="1"/>
        <pt x="772" y="1329" on="1"/>
        <pt x="941" y="1320" on="0"/>
        <pt x="1096" y="1245" on="1"/>
        <pt x="980" y="956" on="1"/>
        <pt x="898" y="991" on="0"/>
        <pt x="785" y="1024" on="0"/>
        <pt x="725" y="1024" on="1"/>
        <pt x="630" y="1024" on="0"/>
        <pt x="526" y="876" on="0"/>
        <pt x="526" y="741" on="1"/>
        <pt x="526" y="469" on="0"/>
        <pt x="727" y="469" on="1"/>
        <pt x="900" y="469" on="0"/>
        <pt x="1057" y="569" on="1"/>
        <pt x="1057" y="258" on="1"/>
        <pt x="930" y="177" on="0"/>
        <pt x="772" y="160" on="1"/>
        <pt x="772" y="-20" on="1"/>
        <pt x="565" y="-20" on="1"/>
        <pt x="565" y="166" on="1"/>
        <pt x="352" y="197" on="0"/>
        <pt x="129" y="488" on="0"/>
        <pt x="129" y="978" on="0"/>
        <pt x="354" y="1276" on="0"/>
        <pt x="565" y="1317" on="1"/>
        <pt x="565" y="1483" on="1"/>
      </contour>
    </TTGlyph>
    <TTGlyph name="circumflex" xMin="164" yMin="1241" xMax="1071" yMax="1569">
      <contour>
        <pt x="1071" y="1241" on="1"/>
        <pt x="817" y="1241" on="1"/>
        <pt x="733" y="1289" on="0"/>
        <pt x="616" y="1391" on="1"/>
        <pt x="493" y="1286" on="0"/>
        <pt x="422" y="1241" on="1"/>
        <pt x="164" y="1241" on="1"/>
        <pt x="164" y="1270" on="1"/>
        <pt x="233" y="1334" on="0"/>
        <pt x="387" y="1514" on="0"/>
        <pt x="422" y="1569" on="1"/>
        <pt x="815" y="1569" on="1"/>
        <pt x="912" y="1429" on="0"/>
        <pt x="1071" y="1270" on="1"/>
      </contour>
    </TTGlyph>
    <TTGlyph name="colon" xMin="86" yMin="-25" xMax="504" yMax="1147">
      <contour>
        <pt x="86" y="1047" on="0"/>
        <pt x="197" y="1147" on="0"/>
        <pt x="398" y="1147" on="0"/>
        <pt x="504" y="1047" on="0"/>
        <pt x="504" y="866" on="0"/>
        <pt x="396" y="764" on="0"/>
        <pt x="198" y="764" on="0"/>
        <pt x="86" y="866" on="0"/>
      </contour>
      <contour>
        <pt x="86" y="259" on="0"/>
        <pt x="195" y="358" on="0"/>
        <pt x="398" y="358" on="0"/>
        <pt x="504" y="258" on="0"/>
        <pt x="504" y="76" on="0"/>
        <pt x="395" y="-25" on="0"/>
        <pt x="199" y="-25" on="0"/>
        <pt x="86" y="76" on="0"/>
      </contour>
    </TTGlyph>
    <TTGlyph name="comma" xMin="57" yMin="-285" xMax="512" yMax="299">
      <contour>
        <pt x="498" y="299" on="1"/>
        <pt x="512" y="276" on="1"/>
        <pt x="413" y="-110" on="0"/>
        <pt x="336" y="-285" on="1"/>
        <pt x="57" y="-285" on="1"/>
        <pt x="82" y="-163" on="0"/>
        <pt x="146" y="205" on="0"/>
        <pt x="156" y="299" on="1"/>
      </contour>
    </TTGlyph>
    <TTGlyph name="copyright" xMin="92" yMin="-20" xMax="1595" yMax="1483">
      <contour>
        <pt x="192" y="1106" on="1"/>
        <pt x="293" y="1282" on="0"/>
        <pt x="643" y="1483" on="0"/>
        <pt x="1042" y="1483" on="0"/>
        <pt x="1389" y="1287" on="0"/>
        <pt x="1595" y="936" on="0"/>
        <pt x="1595" y="527" on="0"/>
        <pt x="1394" y="182" on="0"/>
        <pt x="1048" y="-20" on="0"/>
        <pt x="637" y="-20" on="0"/>
        <pt x="287" y="186" on="0"/>
        <pt x="92" y="532" on="0"/>
        <pt x="92" y="930" on="0"/>
      </contour>
      <contour>
        <pt x="1003" y="1319" on="0"/>
        <pt x="685" y="1319" on="0"/>
        <pt x="549" y="1240" on="1"/>
        <pt x="414" y="1163" on="0"/>
        <pt x="256" y="888" on="0"/>
        <pt x="256" y="572" on="0"/>
        <pt x="415" y="298" on="0"/>
        <pt x="688" y="143" on="0"/>
        <pt x="1002" y="143" on="0"/>
        <pt x="1274" y="300" on="0"/>
        <pt x="1432" y="572" on="0"/>
        <pt x="1432" y="888" on="0"/>
        <pt x="1279" y="1158" on="0"/>
      </contour>
      <contour>
        <pt x="879" y="262" on="1"/>
        <pt x="667" y="262" on="0"/>
        <pt x="550" y="386" on="1"/>
        <pt x="434" y="511" on="0"/>
        <pt x="434" y="950" on="0"/>
        <pt x="660" y="1198" on="0"/>
        <pt x="868" y="1198" on="1"/>
        <pt x="1034" y="1198" on="0"/>
        <pt x="1190" y="1120" on="1"/>
        <pt x="1098" y="915" on="1"/>
        <pt x="992" y="970" on="0"/>
        <pt x="887" y="970" on="1"/>
        <pt x="805" y="970" on="0"/>
        <pt x="715" y="847" on="0"/>
        <pt x="715" y="604" on="0"/>
        <pt x="801" y="489" on="0"/>
        <pt x="893" y="489" on="1"/>
        <pt x="1030" y="489" on="0"/>
        <pt x="1151" y="557" on="1"/>
        <pt x="1151" y="326" on="1"/>
        <pt x="1026" y="262" on="0"/>
      </contour>
    </TTGlyph>
    <TTGlyph name="d" xMin="85" yMin="-20" xMax="1182" yMax="1556">
      <contour>
        <pt x="1182" y="0" on="1"/>
        <pt x="887" y="0" on="1"/>
        <pt x="803" y="143" on="1"/>
        <pt x="788" y="143" on="1"/>
        <pt x="688" y="-20" on="0"/>
        <pt x="487" y="-20" on="1"/>
        <pt x="482" y="-20" on="0"/>
        <pt x="476" y="-20" on="1"/>
        <pt x="303" y="-20" on="0"/>
        <pt x="85" y="296" on="0"/>
        <pt x="86" y="842" on="0"/>
        <pt x="197" y="996" on="1"/>
        <pt x="308" y="1153" on="0"/>
        <pt x="502" y="1153" on="1"/>
        <pt x="599" y="1153" on="0"/>
        <pt x="741" y="1075" on="0"/>
        <pt x="799" y="986" on="1"/>
        <pt x="807" y="986" on="1"/>
        <pt x="788" y="1118" on="0"/>
        <pt x="788" y="1253" on="1"/>
        <pt x="788" y="1556" on="1"/>
        <pt x="1182" y="1556" on="1"/>
      </contour>
      <contour>
        <pt x="821" y="561" on="1"/>
        <pt x="821" y="709" on="0"/>
        <pt x="736" y="838" on="0"/>
        <pt x="643" y="838" on="1"/>
        <pt x="566" y="838" on="0"/>
        <pt x="481" y="693" on="0"/>
        <pt x="481" y="427" on="0"/>
        <pt x="567" y="289" on="0"/>
        <pt x="739" y="289" on="0"/>
        <pt x="818" y="404" on="0"/>
        <pt x="821" y="530" on="1"/>
      </contour>
    </TTGlyph>
    <TTGlyph name="dagger" xMin="111" yMin="0" xMax="940" yMax="1556">
      <contour>
        <pt x="621" y="1139" on="1"/>
        <pt x="940" y="1169" on="1"/>
        <pt x="940" y="883" on="1"/>
        <pt x="621" y="913" on="1"/>
        <pt x="680" y="0" on="1"/>
        <pt x="350" y="0" on="1"/>
        <pt x="410" y="913" on="1"/>
        <pt x="111" y="883" on="1"/>
        <pt x="111" y="1169" on="1"/>
        <pt x="410" y="1139" on="1"/>
        <pt x="350" y="1556" on="1"/>
        <pt x="680" y="1556" on="1"/>
      </contour>
    </TTGlyph>
    <TTGlyph name="daggerdbl" xMin="111" yMin="0" xMax="963" yMax="1556">
      <contour>
        <pt x="643" y="1182" on="1"/>
        <pt x="963" y="1212" on="1"/>
        <pt x="963" y="926" on="1"/>
        <pt x="643" y="956" on="1"/>
        <pt x="692" y="786" on="1"/>
        <pt x="643" y="600" on="1"/>
        <pt x="963" y="631" on="1"/>
        <pt x="963" y="344" on="1"/>
        <pt x="643" y="375" on="1"/>
        <pt x="702" y="0" on="1"/>
        <pt x="375" y="0" on="1"/>
        <pt x="434" y="375" on="1"/>
        <pt x="111" y="344" on="1"/>
        <pt x="111" y="631" on="1"/>
        <pt x="434" y="600" on="1"/>
        <pt x="383" y="786" on="1"/>
        <pt x="434" y="956" on="1"/>
        <pt x="111" y="926" on="1"/>
        <pt x="111" y="1212" on="1"/>
        <pt x="434" y="1182" on="1"/>
        <pt x="375" y="1556" on="1"/>
        <pt x="702" y="1556" on="1"/>
      </contour>
    </TTGlyph>
    <TTGlyph name="daletdageshhb" xMin="23" yMin="0" xMax="1108" yMax="1295">
      <contour>
        <pt x="1108" y="1295" on="1"/>
        <pt x="1108" y="1021" on="1"/>
        <pt x="1010" y="983" on="0"/>
        <pt x="939" y="886" on="0"/>
        <pt x="939" y="779" on="1"/>
        <pt x="939" y="0" on="1"/>
        <pt x="551" y="0" on="1"/>
        <pt x="551" y="786" on="1"/>
        <pt x="551" y="917" on="0"/>
        <pt x="644" y="996" on="1"/>
        <pt x="23" y="996" on="1"/>
        <pt x="23" y="1295" on="1"/>
      </contour>
      <contour>
        <pt x="182" y="714" on="0"/>
        <pt x="232" y="760" on="0"/>
        <pt x="319" y="760" on="0"/>
        <pt x="371" y="712" on="0"/>
        <pt x="371" y="634" on="0"/>
        <pt x="319" y="587" on="0"/>
        <pt x="231" y="587" on="0"/>
        <pt x="182" y="632" on="0"/>
      </contour>
    </TTGlyph>
    <TTGlyph name="degree" xMin="63" yMin="750" xMax="801" yMax="1483">
      <contour>
        <pt x="439" y="1483" on="1"/>
        <pt x="532" y="1483" on="0"/>
        <pt x="703" y="1382" on="0"/>
        <pt x="801" y="1214" on="0"/>
        <pt x="801" y="1125" on="1"/>
        <pt x="801" y="1119" on="0"/>
        <pt x="801" y="1110" on="0"/>
        <pt x="801" y="1107" on="1"/>
        <pt x="801" y="1016" on="0"/>
        <pt x="704" y="849" on="0"/>
        <pt x="534" y="750" on="0"/>
        <pt x="440" y="750" on="1"/>
        <pt x="436" y="750" on="0"/>
        <pt x="428" y="750" on="0"/>
        <pt x="425" y="750" on="1"/>
        <pt x="332" y="750" on="0"/>
        <pt x="162" y="848" on="0"/>
        <pt x="63" y="1013" on="0"/>
        <pt x="63" y="1103" on="1"/>
        <pt x="63" y="1109" on="0"/>
        <pt x="63" y="1119" on="0"/>
        <pt x="63" y="1125" on="1"/>
        <pt x="63" y="1214" on="0"/>
        <pt x="161" y="1382" on="0"/>
        <pt x="332" y="1483" on="0"/>
        <pt x="425" y="1483" on="1"/>
        <pt x="428" y="1483" on="0"/>
        <pt x="436" y="1483" on="0"/>
      </contour>
      <contour>
        <pt x="563" y="1165" on="0"/>
        <pt x="487" y="1247" on="0"/>
        <pt x="376" y="1247" on="0"/>
        <pt x="301" y="1166" on="0"/>
        <pt x="301" y="1065" on="0"/>
        <pt x="339" y="1025" on="1"/>
        <pt x="378" y="986" on="0"/>
        <pt x="487" y="986" on="0"/>
        <pt x="524" y="1026" on="1"/>
        <pt x="563" y="1065" on="0"/>
      </contour>
    </TTGlyph>
    <TTGlyph name="dieresis" xMin="223" yMin="1257" xMax="1047" yMax="1571">
      <contour>
        <pt x="314" y="1571" on="0"/>
        <pt x="472" y="1571" on="0"/>
        <pt x="565" y="1486" on="0"/>
        <pt x="565" y="1342" on="0"/>
        <pt x="472" y="1257" on="0"/>
        <pt x="314" y="1257" on="0"/>
        <pt x="223" y="1339" on="0"/>
        <pt x="223" y="1487" on="0"/>
      </contour>
      <contour>
        <pt x="702" y="1488" on="0"/>
        <pt x="793" y="1571" on="0"/>
        <pt x="953" y="1571" on="0"/>
        <pt x="1047" y="1485" on="0"/>
        <pt x="1047" y="1342" on="0"/>
        <pt x="953" y="1257" on="0"/>
        <pt x="793" y="1257" on="0"/>
        <pt x="702" y="1340" on="0"/>
      </contour>
    </TTGlyph>
    <TTGlyph name="divide" xMin="72" yMin="162" xMax="1085" yMax="1282">
      <contour>
        <pt x="422" y="1194" on="0"/>
        <pt x="501" y="1282" on="0"/>
        <pt x="653" y="1282" on="0"/>
        <pt x="735" y="1195" on="0"/>
        <pt x="735" y="1033" on="0"/>
        <pt x="649" y="942" on="0"/>
        <pt x="506" y="942" on="0"/>
        <pt x="422" y="1031" on="0"/>
      </contour>
      <contour>
        <pt x="1085" y="588" on="1"/>
        <pt x="72" y="588" on="1"/>
        <pt x="72" y="856" on="1"/>
        <pt x="1085" y="856" on="1"/>
      </contour>
      <contour>
        <pt x="422" y="414" on="0"/>
        <pt x="501" y="502" on="0"/>
        <pt x="653" y="502" on="0"/>
        <pt x="735" y="415" on="0"/>
        <pt x="735" y="253" on="0"/>
        <pt x="649" y="162" on="0"/>
        <pt x="506" y="162" on="0"/>
        <pt x="422" y="251" on="0"/>
      </contour>
    </TTGlyph>
    <TTGlyph name="dollar" xMin="80" yMin="-119" xMax="1128" yMax="1554">
      <contour>
        <pt x="711" y="1554" on="1"/>
        <pt x="711" y="1419" on="1"/>
        <pt x="906" y="1409" on="0"/>
        <pt x="1112" y="1321" on="1"/>
        <pt x="992" y="1036" on="1"/>
        <pt x="786" y="1130" on="0"/>
        <pt x="616" y="1130" on="1"/>
        <pt x="538" y="1130" on="0"/>
        <pt x="471" y="1092" on="0"/>
        <pt x="472" y="1006" on="0"/>
        <pt x="571" y="949" on="0"/>
        <pt x="737" y="889" on="1"/>
        <pt x="942" y="817" on="0"/>
        <pt x="1128" y="626" on="0"/>
        <pt x="1128" y="477" on="1"/>
        <pt x="1128" y="308" on="0"/>
        <pt x="913" y="99" on="0"/>
        <pt x="711" y="74" on="1"/>
        <pt x="711" y="-119" on="1"/>
        <pt x="504" y="-119" on="1"/>
        <pt x="504" y="68" on="1"/>
        <pt x="282" y="79" on="0"/>
        <pt x="82" y="166" on="1"/>
        <pt x="82" y="498" on="1"/>
        <pt x="198" y="440" on="0"/>
        <pt x="471" y="360" on="0"/>
        <pt x="659" y="360" on="0"/>
        <pt x="737" y="402" on="0"/>
        <pt x="736" y="494" on="0"/>
        <pt x="625" y="555" on="0"/>
        <pt x="307" y="673" on="0"/>
        <pt x="150" y="792" on="0"/>
        <pt x="80" y="937" on="0"/>
        <pt x="80" y="1044" on="1"/>
        <pt x="80" y="1374" on="0"/>
        <pt x="504" y="1417" on="1"/>
        <pt x="504" y="1554" on="1"/>
      </contour>
    </TTGlyph>
    <TTGlyph name="dotaccent" xMin="127" yMin="1243" xMax="543" yMax="1589">
      <contour>
        <pt x="127" y="1504" on="0"/>
        <pt x="226" y="1589" on="0"/>
        <pt x="441" y="1589" on="0"/>
        <pt x="543" y="1502" on="0"/>
        <pt x="543" y="1415" on="1"/>
        <pt x="543" y="1243" on="0"/>
        <pt x="127" y="1243" on="0"/>
        <pt x="127" y="1415" on="1"/>
      </contour>
    </TTGlyph>
    <TTGlyph name="dotlessi" xMin="137" yMin="0" xMax="528" yMax="1133">
      <contour>
        <pt x="528" y="0" on="1"/>
        <pt x="137" y="0" on="1"/>
        <pt x="137" y="1133" on="1"/>
        <pt x="528" y="1133" on="1"/>
      </contour>
    </TTGlyph>
    <TTGlyph name="dotlessi.001" xMin="137" yMin="0" xMax="528" yMax="1133">
      <contour>
        <pt x="528" y="0" on="1"/>
        <pt x="137" y="0" on="1"/>
        <pt x="137" y="1133" on="1"/>
        <pt x="528" y="1133" on="1"/>
      </contour>
    </TTGlyph>
    <TTGlyph name="e" xMin="86" yMin="-20" xMax="1180" yMax="1153">
      <contour>
        <pt x="682" y="-20" on="1"/>
        <pt x="400" y="-20" on="0"/>
        <pt x="242" y="130" on="1"/>
        <pt x="86" y="282" on="0"/>
        <pt x="86" y="847" on="0"/>
        <pt x="231" y="998" on="1"/>
        <pt x="376" y="1153" on="0"/>
        <pt x="900" y="1153" on="0"/>
        <pt x="1180" y="885" on="0"/>
        <pt x="1180" y="635" on="1"/>
        <pt x="1180" y="461" on="1"/>
        <pt x="481" y="461" on="1"/>
        <pt x="485" y="366" on="0"/>
        <pt x="616" y="258" on="0"/>
        <pt x="835" y="258" on="0"/>
        <pt x="1003" y="296" on="0"/>
        <pt x="1106" y="344" on="1"/>
        <pt x="1106" y="63" on="1"/>
        <pt x="1010" y="14" on="0"/>
        <pt x="818" y="-20" on="0"/>
      </contour>
      <contour>
        <pt x="823" y="789" on="0"/>
        <pt x="734" y="887" on="0"/>
        <pt x="587" y="887" on="0"/>
        <pt x="497" y="797" on="0"/>
        <pt x="489" y="707" on="1"/>
        <pt x="825" y="707" on="1"/>
      </contour>
    </TTGlyph>
    <TTGlyph name="eacute" xMin="86" yMin="-20" xMax="1180" yMax="1569">
      <contour>
        <pt x="979" y="1569" on="1"/>
        <pt x="979" y="1548" on="1"/>
        <pt x="911" y="1493" on="0"/>
        <pt x="623" y="1289" on="0"/>
        <pt x="547" y="1241" on="1"/>
        <pt x="287" y="1241" on="1"/>
        <pt x="287" y="1270" on="1"/>
        <pt x="442" y="1435" on="0"/>
        <pt x="522" y="1529" on="0"/>
        <pt x="551" y="1569" on="1"/>
      </contour>
      <contour>
        <pt x="682" y="-20" on="1"/>
        <pt x="400" y="-20" on="0"/>
        <pt x="242" y="130" on="1"/>
        <pt x="86" y="282" on="0"/>
        <pt x="86" y="847" on="0"/>
        <pt x="231" y="998" on="1"/>
        <pt x="376" y="1153" on="0"/>
        <pt x="900" y="1153" on="0"/>
        <pt x="1180" y="885" on="0"/>
        <pt x="1180" y="635" on="1"/>
        <pt x="1180" y="461" on="1"/>
        <pt x="481" y="461" on="1"/>
        <pt x="485" y="366" on="0"/>
        <pt x="616" y="258" on="0"/>
        <pt x="835" y="258" on="0"/>
        <pt x="1003" y="296" on="0"/>
        <pt x="1106" y="344" on="1"/>
        <pt x="1106" y="63" on="1"/>
        <pt x="1010" y="14" on="0"/>
        <pt x="818" y="-20" on="0"/>
      </contour>
      <contour>
        <pt x="823" y="789" on="0"/>
        <pt x="734" y="887" on="0"/>
        <pt x="587" y="887" on="0"/>
        <pt x="497" y="797" on="0"/>
        <pt x="489" y="707" on="1"/>
        <pt x="825" y="707" on="1"/>
      </contour>
    </TTGlyph>
    <TTGlyph name="ecircumflex" xMin="86" yMin="-20" xMax="1180" yMax="1569">
      <contour>
        <pt x="1087" y="1241" on="1"/>
        <pt x="833" y="1241" on="1"/>
        <pt x="749" y="1289" on="0"/>
        <pt x="632" y="1391" on="1"/>
        <pt x="509" y="1286" on="0"/>
        <pt x="438" y="1241" on="1"/>
        <pt x="180" y="1241" on="1"/>
        <pt x="180" y="1270" on="1"/>
        <pt x="249" y="1334" on="0"/>
        <pt x="403" y="1514" on="0"/>
        <pt x="438" y="1569" on="1"/>
        <pt x="831" y="1569" on="1"/>
        <pt x="928" y="1429" on="0"/>
        <pt x="1087" y="1270" on="1"/>
      </contour>
      <contour>
        <pt x="682" y="-20" on="1"/>
        <pt x="400" y="-20" on="0"/>
        <pt x="242" y="130" on="1"/>
        <pt x="86" y="282" on="0"/>
        <pt x="86" y="847" on="0"/>
        <pt x="231" y="998" on="1"/>
        <pt x="376" y="1153" on="0"/>
        <pt x="900" y="1153" on="0"/>
        <pt x="1180" y="885" on="0"/>
        <pt x="1180" y="635" on="1"/>
        <pt x="1180" y="461" on="1"/>
        <pt x="481" y="461" on="1"/>
        <pt x="485" y="366" on="0"/>
        <pt x="616" y="258" on="0"/>
        <pt x="835" y="258" on="0"/>
        <pt x="1003" y="296" on="0"/>
        <pt x="1106" y="344" on="1"/>
        <pt x="1106" y="63" on="1"/>
        <pt x="1010" y="14" on="0"/>
        <pt x="818" y="-20" on="0"/>
      </contour>
      <contour>
        <pt x="823" y="789" on="0"/>
        <pt x="734" y="887" on="0"/>
        <pt x="587" y="887" on="0"/>
        <pt x="497" y="797" on="0"/>
        <pt x="489" y="707" on="1"/>
        <pt x="825" y="707" on="1"/>
      </contour>
    </TTGlyph>
    <TTGlyph name="edieresis" xMin="86" yMin="-20" xMax="1180" yMax="1571">
      <contour>
        <pt x="312" y="1571" on="0"/>
        <pt x="470" y="1571" on="0"/>
        <pt x="563" y="1486" on="0"/>
        <pt x="563" y="1342" on="0"/>
        <pt x="470" y="1257" on="0"/>
        <pt x="312" y="1257" on="0"/>
        <pt x="221" y="1339" on="0"/>
        <pt x="221" y="1487" on="0"/>
      </contour>
      <contour>
        <pt x="700" y="1488" on="0"/>
        <pt x="791" y="1571" on="0"/>
        <pt x="951" y="1571" on="0"/>
        <pt x="1045" y="1485" on="0"/>
        <pt x="1045" y="1342" on="0"/>
        <pt x="951" y="1257" on="0"/>
        <pt x="791" y="1257" on="0"/>
        <pt x="700" y="1340" on="0"/>
      </contour>
      <contour>
        <pt x="682" y="-20" on="1"/>
        <pt x="400" y="-20" on="0"/>
        <pt x="242" y="130" on="1"/>
        <pt x="86" y="282" on="0"/>
        <pt x="86" y="847" on="0"/>
        <pt x="231" y="998" on="1"/>
        <pt x="376" y="1153" on="0"/>
        <pt x="900" y="1153" on="0"/>
        <pt x="1180" y="885" on="0"/>
        <pt x="1180" y="635" on="1"/>
        <pt x="1180" y="461" on="1"/>
        <pt x="481" y="461" on="1"/>
        <pt x="485" y="366" on="0"/>
        <pt x="616" y="258" on="0"/>
        <pt x="835" y="258" on="0"/>
        <pt x="1003" y="296" on="0"/>
        <pt x="1106" y="344" on="1"/>
        <pt x="1106" y="63" on="1"/>
        <pt x="1010" y="14" on="0"/>
        <pt x="818" y="-20" on="0"/>
      </contour>
      <contour>
        <pt x="823" y="789" on="0"/>
        <pt x="734" y="887" on="0"/>
        <pt x="587" y="887" on="0"/>
        <pt x="497" y="797" on="0"/>
        <pt x="489" y="707" on="1"/>
        <pt x="825" y="707" on="1"/>
      </contour>
    </TTGlyph>
    <TTGlyph name="egrave" xMin="86" yMin="-20" xMax="1180" yMax="1569">
      <contour>
        <pt x="287" y="1569" on="1"/>
        <pt x="717" y="1569" on="1"/>
        <pt x="770" y="1498" on="0"/>
        <pt x="920" y="1336" on="1"/>
        <pt x="979" y="1270" on="1"/>
        <pt x="979" y="1241" on="1"/>
        <pt x="719" y="1241" on="1"/>
        <pt x="650" y="1284" on="0"/>
        <pt x="396" y="1463" on="0"/>
        <pt x="287" y="1548" on="1"/>
      </contour>
      <contour>
        <pt x="682" y="-20" on="1"/>
        <pt x="400" y="-20" on="0"/>
        <pt x="242" y="130" on="1"/>
        <pt x="86" y="282" on="0"/>
        <pt x="86" y="847" on="0"/>
        <pt x="231" y="998" on="1"/>
        <pt x="376" y="1153" on="0"/>
        <pt x="900" y="1153" on="0"/>
        <pt x="1180" y="885" on="0"/>
        <pt x="1180" y="635" on="1"/>
        <pt x="1180" y="461" on="1"/>
        <pt x="481" y="461" on="1"/>
        <pt x="485" y="366" on="0"/>
        <pt x="616" y="258" on="0"/>
        <pt x="835" y="258" on="0"/>
        <pt x="1003" y="296" on="0"/>
        <pt x="1106" y="344" on="1"/>
        <pt x="1106" y="63" on="1"/>
        <pt x="1010" y="14" on="0"/>
        <pt x="818" y="-20" on="0"/>
      </contour>
      <contour>
        <pt x="823" y="789" on="0"/>
        <pt x="734" y="887" on="0"/>
        <pt x="587" y="887" on="0"/>
        <pt x="497" y="797" on="0"/>
        <pt x="489" y="707" on="1"/>
        <pt x="825" y="707" on="1"/>
      </contour>
    </TTGlyph>
    <TTGlyph name="eight" xMin="68" yMin="-20" xMax="1135" yMax="1483">
      <contour>
        <pt x="372" y="1483" on="0"/>
        <pt x="836" y="1483" on="0"/>
        <pt x="1092" y="1297" on="0"/>
        <pt x="1092" y="1126" on="1"/>
        <pt x="1092" y="1008" on="0"/>
        <pt x="970" y="835" on="0"/>
        <pt x="840" y="770" on="1"/>
        <pt x="1001" y="679" on="0"/>
        <pt x="1135" y="495" on="0"/>
        <pt x="1135" y="389" on="1"/>
        <pt x="1135" y="193" on="0"/>
        <pt x="993" y="87" on="1"/>
        <pt x="853" y="-20" on="0"/>
        <pt x="342" y="-20" on="0"/>
        <pt x="68" y="189" on="0"/>
        <pt x="68" y="385" on="1"/>
        <pt x="68" y="513" on="0"/>
        <pt x="190" y="691" on="0"/>
        <pt x="334" y="764" on="1"/>
        <pt x="219" y="841" on="0"/>
        <pt x="111" y="1019" on="0"/>
        <pt x="111" y="1128" on="1"/>
        <pt x="111" y="1296" on="0"/>
      </contour>
      <contour>
        <pt x="721" y="1139" on="0"/>
        <pt x="652" y="1198" on="0"/>
        <pt x="550" y="1198" on="0"/>
        <pt x="481" y="1139" on="0"/>
        <pt x="481" y="1092" on="1"/>
        <pt x="481" y="1004" on="0"/>
        <pt x="598" y="940" on="1"/>
        <pt x="672" y="982" on="0"/>
        <pt x="695" y="1015" on="1"/>
        <pt x="721" y="1050" on="0"/>
      </contour>
      <contour>
        <pt x="508" y="550" on="0"/>
        <pt x="430" y="455" on="0"/>
        <pt x="430" y="338" on="0"/>
        <pt x="519" y="264" on="0"/>
        <pt x="596" y="264" on="1"/>
        <pt x="772" y="264" on="0"/>
        <pt x="772" y="393" on="1"/>
        <pt x="772" y="442" on="0"/>
        <pt x="733" y="489" on="1"/>
        <pt x="695" y="537" on="0"/>
        <pt x="596" y="596" on="1"/>
      </contour>
    </TTGlyph>
    <TTGlyph name="ellipsis" xMin="86" yMin="-25" xMax="1688" yMax="358">
      <contour>
        <pt x="86" y="259" on="0"/>
        <pt x="195" y="358" on="0"/>
        <pt x="398" y="358" on="0"/>
        <pt x="504" y="258" on="0"/>
        <pt x="504" y="76" on="0"/>
        <pt x="395" y="-25" on="0"/>
        <pt x="199" y="-25" on="0"/>
        <pt x="86" y="76" on="0"/>
      </contour>
      <contour>
        <pt x="678" y="259" on="0"/>
        <pt x="787" y="358" on="0"/>
        <pt x="990" y="358" on="0"/>
        <pt x="1096" y="258" on="0"/>
        <pt x="1096" y="76" on="0"/>
        <pt x="987" y="-25" on="0"/>
        <pt x="791" y="-25" on="0"/>
        <pt x="678" y="76" on="0"/>
      </contour>
      <contour>
        <pt x="1270" y="259" on="0"/>
        <pt x="1379" y="358" on="0"/>
        <pt x="1582" y="358" on="0"/>
        <pt x="1688" y="258" on="0"/>
        <pt x="1688" y="76" on="0"/>
        <pt x="1579" y="-25" on="0"/>
        <pt x="1383" y="-25" on="0"/>
        <pt x="1270" y="76" on="0"/>
      </contour>
    </TTGlyph>
    <TTGlyph name="emdash" xMin="74" yMin="414" xMax="1970" yMax="690">
      <contour>
        <pt x="1970" y="414" on="1"/>
        <pt x="74" y="414" on="1"/>
        <pt x="74" y="690" on="1"/>
        <pt x="1970" y="690" on="1"/>
      </contour>
    </TTGlyph>
    <TTGlyph name="endash" xMin="74" yMin="414" xMax="950" yMax="690">
      <contour>
        <pt x="950" y="414" on="1"/>
        <pt x="74" y="414" on="1"/>
        <pt x="74" y="690" on="1"/>
        <pt x="950" y="690" on="1"/>
      </contour>
    </TTGlyph>
    <TTGlyph name="equal" xMin="72" yMin="358" xMax="1087" yMax="1083">
      <contour>
        <pt x="1087" y="815" on="1"/>
        <pt x="72" y="815" on="1"/>
        <pt x="72" y="1083" on="1"/>
        <pt x="1087" y="1083" on="1"/>
      </contour>
      <contour>
        <pt x="1087" y="358" on="1"/>
        <pt x="72" y="358" on="1"/>
        <pt x="72" y="629" on="1"/>
        <pt x="1087" y="629" on="1"/>
      </contour>
    </TTGlyph>
    <TTGlyph name="eth" xMin="88" yMin="-20" xMax="1217" yMax="1575">
      <contour>
        <pt x="1217" y="580" on="1"/>
        <pt x="1217" y="304" on="0"/>
        <pt x="912" y="-20" on="0"/>
        <pt x="390" y="-20" on="0"/>
        <pt x="88" y="258" on="0"/>
        <pt x="88" y="736" on="0"/>
        <pt x="348" y="1014" on="0"/>
        <pt x="567" y="1014" on="1"/>
        <pt x="758" y="1014" on="0"/>
        <pt x="811" y="930" on="1"/>
        <pt x="819" y="934" on="1"/>
        <pt x="750" y="1067" on="0"/>
        <pt x="676" y="1141" on="1"/>
        <pt x="494" y="1022" on="1"/>
        <pt x="377" y="1206" on="1"/>
        <pt x="520" y="1298" on="1"/>
        <pt x="371" y="1391" on="1"/>
        <pt x="479" y="1573" on="1"/>
        <pt x="654" y="1499" on="0"/>
        <pt x="745" y="1438" on="1"/>
        <pt x="954" y="1575" on="1"/>
        <pt x="1069" y="1393" on="1"/>
        <pt x="924" y="1296" on="1"/>
        <pt x="1081" y="1142" on="0"/>
        <pt x="1217" y="802" on="0"/>
      </contour>
      <contour>
        <pt x="817" y="629" on="0"/>
        <pt x="727" y="733" on="0"/>
        <pt x="563" y="733" on="0"/>
        <pt x="489" y="624" on="0"/>
        <pt x="489" y="500" on="1"/>
        <pt x="489" y="258" on="0"/>
        <pt x="653" y="258" on="1"/>
        <pt x="742" y="258" on="0"/>
        <pt x="817" y="397" on="0"/>
        <pt x="817" y="545" on="1"/>
      </contour>
    </TTGlyph>
    <TTGlyph name="exclam" xMin="82" yMin="-25" xMax="514" yMax="1462">
      <contour>
        <pt x="463" y="516" on="1"/>
        <pt x="133" y="516" on="1"/>
        <pt x="82" y="1462" on="1"/>
        <pt x="514" y="1462" on="1"/>
      </contour>
      <contour>
        <pt x="86" y="257" on="0"/>
        <pt x="195" y="358" on="0"/>
        <pt x="398" y="358" on="0"/>
        <pt x="504" y="258" on="0"/>
        <pt x="504" y="76" on="0"/>
        <pt x="395" y="-25" on="0"/>
        <pt x="198" y="-25" on="0"/>
        <pt x="86" y="76" on="0"/>
      </contour>
    </TTGlyph>
    <TTGlyph name="exclamdown" xMin="82" yMin="-334" xMax="514" yMax="1153">
      <contour>
        <pt x="92" y="1053" on="0"/>
        <pt x="200" y="1153" on="0"/>
        <pt x="400" y="1153" on="0"/>
        <pt x="510" y="1053" on="0"/>
        <pt x="510" y="871" on="0"/>
        <pt x="402" y="770" on="0"/>
        <pt x="198" y="770" on="0"/>
        <pt x="92" y="870" on="0"/>
      </contour>
      <contour>
        <pt x="514" y="-334" on="1"/>
        <pt x="82" y="-334" on="1"/>
        <pt x="133" y="612" on="1"/>
        <pt x="463" y="612" on="1"/>
      </contour>
    </TTGlyph>
    <TTGlyph name="f" xMin="45" yMin="0" xMax="897" yMax="1567">
      <contour>
        <pt x="203" y="1147" on="1"/>
        <pt x="203" y="1372" on="0"/>
        <pt x="386" y="1567" on="0"/>
        <pt x="588" y="1567" on="1"/>
        <pt x="666" y="1567" on="0"/>
        <pt x="806" y="1543" on="0"/>
        <pt x="897" y="1513" on="1"/>
        <pt x="813" y="1260" on="1"/>
        <pt x="739" y="1280" on="0"/>
        <pt x="672" y="1280" on="1"/>
        <pt x="627" y="1280" on="0"/>
        <pt x="586" y="1225" on="0"/>
        <pt x="586" y="1163" on="1"/>
        <pt x="586" y="1133" on="1"/>
        <pt x="827" y="1133" on="1"/>
        <pt x="827" y="840" on="1"/>
        <pt x="586" y="840" on="1"/>
        <pt x="586" y="0" on="1"/>
        <pt x="195" y="0" on="1"/>
        <pt x="195" y="840" on="1"/>
        <pt x="45" y="840" on="1"/>
        <pt x="45" y="1032" on="1"/>
        <pt x="203" y="1128" on="1"/>
      </contour>
    </TTGlyph>
    <TTGlyph name="finalkafdageshhb" xMin="23" yMin="-492" xMax="977" yMax="1315">
      <contour>
        <pt x="431" y="1315" on="1"/>
        <pt x="555" y="1315" on="0"/>
        <pt x="748" y="1249" on="0"/>
        <pt x="868" y="1140" on="0"/>
        <pt x="907" y="1062" on="1"/>
        <pt x="977" y="923" on="0"/>
        <pt x="977" y="729" on="1"/>
        <pt x="977" y="-492" on="1"/>
        <pt x="590" y="-492" on="1"/>
        <pt x="590" y="731" on="1"/>
        <pt x="590" y="783" on="0"/>
        <pt x="581" y="857" on="0"/>
        <pt x="552" y="935" on="0"/>
        <pt x="526" y="959" on="1"/>
        <pt x="469" y="1013" on="0"/>
        <pt x="347" y="1013" on="1"/>
        <pt x="217" y="1013" on="0"/>
        <pt x="72" y="1000" on="1"/>
        <pt x="23" y="995" on="1"/>
        <pt x="23" y="1299" on="1"/>
        <pt x="193" y="1315" on="0"/>
      </contour>
      <contour>
        <pt x="186" y="714" on="0"/>
        <pt x="236" y="760" on="0"/>
        <pt x="323" y="760" on="0"/>
        <pt x="375" y="712" on="0"/>
        <pt x="375" y="634" on="0"/>
        <pt x="323" y="587" on="0"/>
        <pt x="235" y="587" on="0"/>
        <pt x="186" y="632" on="0"/>
      </contour>
    </TTGlyph>
    <TTGlyph name="finalpedageshhb" xMin="43" yMin="-492" xMax="1179" yMax="1315">
      <contour>
        <pt x="43" y="862" on="1"/>
        <pt x="43" y="953" on="0"/>
        <pt x="113" y="1118" on="0"/>
        <pt x="224" y="1221" on="0"/>
        <pt x="300" y="1254" on="1"/>
        <pt x="439" y="1315" on="0"/>
        <pt x="611" y="1315" on="1"/>
        <pt x="811" y="1315" on="0"/>
        <pt x="942" y="1228" on="1"/>
        <pt x="991" y="1196" on="0"/>
        <pt x="1081" y="1092" on="0"/>
        <pt x="1112" y="1024" on="1"/>
        <pt x="1179" y="874" on="0"/>
        <pt x="1179" y="648" on="1"/>
        <pt x="1179" y="-492" on="1"/>
        <pt x="786" y="-492" on="1"/>
        <pt x="786" y="648" on="1"/>
        <pt x="786" y="852" on="0"/>
        <pt x="759" y="913" on="1"/>
        <pt x="730" y="979" on="0"/>
        <pt x="680" y="996" on="1"/>
        <pt x="651" y="1006" on="0"/>
        <pt x="564" y="1006" on="0"/>
        <pt x="493" y="979" on="0"/>
        <pt x="459" y="945" on="0"/>
        <pt x="449" y="922" on="1"/>
        <pt x="435" y="889" on="0"/>
        <pt x="435" y="817" on="0"/>
        <pt x="463" y="755" on="0"/>
        <pt x="485" y="739" on="1"/>
        <pt x="521" y="713" on="0"/>
        <pt x="558" y="704" on="1"/>
        <pt x="640" y="687" on="1"/>
        <pt x="578" y="411" on="1"/>
        <pt x="481" y="414" on="1"/>
        <pt x="284" y="419" on="0"/>
        <pt x="168" y="520" on="1"/>
        <pt x="43" y="629" on="0"/>
      </contour>
      <contour>
        <pt x="506" y="908" on="0"/>
        <pt x="556" y="954" on="0"/>
        <pt x="643" y="954" on="0"/>
        <pt x="695" y="906" on="0"/>
        <pt x="695" y="828" on="0"/>
        <pt x="643" y="781" on="0"/>
        <pt x="555" y="781" on="0"/>
        <pt x="506" y="826" on="0"/>
      </contour>
    </TTGlyph>
    <TTGlyph name="five" xMin="93" yMin="-20" xMax="1106" yMax="1462">
      <contour>
        <pt x="492" y="940" on="1"/>
        <pt x="588" y="958" on="0"/>
        <pt x="664" y="958" on="1"/>
        <pt x="667" y="958" on="0"/>
        <pt x="670" y="958" on="1"/>
        <pt x="857" y="958" on="0"/>
        <pt x="1106" y="698" on="0"/>
        <pt x="1106" y="500" on="1"/>
        <pt x="1106" y="493" on="0"/>
        <pt x="1106" y="487" on="1"/>
        <pt x="1106" y="239" on="0"/>
        <pt x="808" y="-20" on="0"/>
        <pt x="512" y="-20" on="1"/>
        <pt x="255" y="-20" on="0"/>
        <pt x="93" y="59" on="1"/>
        <pt x="93" y="383" on="1"/>
        <pt x="183" y="342" on="0"/>
        <pt x="402" y="291" on="0"/>
        <pt x="479" y="291" on="1"/>
        <pt x="590" y="291" on="0"/>
        <pt x="707" y="385" on="0"/>
        <pt x="707" y="560" on="0"/>
        <pt x="585" y="653" on="0"/>
        <pt x="465" y="653" on="1"/>
        <pt x="374" y="653" on="0"/>
        <pt x="264" y="618" on="1"/>
        <pt x="119" y="690" on="1"/>
        <pt x="174" y="1462" on="1"/>
        <pt x="1008" y="1462" on="1"/>
        <pt x="1008" y="1133" on="1"/>
        <pt x="510" y="1133" on="1"/>
      </contour>
    </TTGlyph>
    <TTGlyph name="florin" xMin="139" yMin="-492" xMax="1051" yMax="1567">
      <contour>
        <pt x="352" y="1165" on="1"/>
        <pt x="352" y="1378" on="0"/>
        <pt x="526" y="1567" on="0"/>
        <pt x="725" y="1567" on="1"/>
        <pt x="890" y="1567" on="0"/>
        <pt x="1051" y="1513" on="1"/>
        <pt x="974" y="1255" on="1"/>
        <pt x="898" y="1280" on="0"/>
        <pt x="782" y="1280" on="0"/>
        <pt x="735" y="1214" on="0"/>
        <pt x="735" y="1137" on="1"/>
        <pt x="735" y="1133" on="1"/>
        <pt x="990" y="1133" on="1"/>
        <pt x="990" y="840" on="1"/>
        <pt x="735" y="840" on="1"/>
        <pt x="735" y="-84" on="1"/>
        <pt x="735" y="-281" on="0"/>
        <pt x="537" y="-492" on="0"/>
        <pt x="354" y="-492" on="1"/>
        <pt x="316" y="-492" on="0"/>
        <pt x="182" y="-476" on="0"/>
        <pt x="139" y="-463" on="1"/>
        <pt x="139" y="-162" on="1"/>
        <pt x="200" y="-180" on="0"/>
        <pt x="250" y="-180" on="1"/>
        <pt x="344" y="-180" on="0"/>
        <pt x="344" y="-37" on="1"/>
        <pt x="344" y="840" on="1"/>
        <pt x="195" y="840" on="1"/>
        <pt x="195" y="1032" on="1"/>
        <pt x="352" y="1128" on="1"/>
      </contour>
    </TTGlyph>
    <TTGlyph name="four" xMin="35" yMin="0" xMax="1169" yMax="1462">
      <contour>
        <pt x="1008" y="578" on="1"/>
        <pt x="1169" y="578" on="1"/>
        <pt x="1169" y="283" on="1"/>
        <pt x="1008" y="283" on="1"/>
        <pt x="1008" y="0" on="1"/>
        <pt x="618" y="0" on="1"/>
        <pt x="618" y="283" on="1"/>
        <pt x="35" y="283" on="1"/>
        <pt x="35" y="573" on="1"/>
        <pt x="643" y="1462" on="1"/>
        <pt x="1008" y="1462" on="1"/>
      </contour>
      <contour>
        <pt x="618" y="578" on="1"/>
        <pt x="618" y="748" on="1"/>
        <pt x="618" y="796" on="0"/>
        <pt x="621" y="877" on="1"/>
        <pt x="625" y="958" on="0"/>
        <pt x="627" y="963" on="1"/>
        <pt x="616" y="963" on="1"/>
        <pt x="579" y="881" on="0"/>
        <pt x="539" y="819" on="1"/>
        <pt x="377" y="578" on="1"/>
      </contour>
    </TTGlyph>
    <TTGlyph name="g" xMin="20" yMin="-492" xMax="1204" yMax="1153">
      <contour>
        <pt x="625" y="266" on="1"/>
        <pt x="813" y="266" on="1"/>
        <pt x="1194" y="266" on="0"/>
        <pt x="1194" y="-55" on="1"/>
        <pt x="1194" y="-262" on="0"/>
        <pt x="842" y="-492" on="0"/>
        <pt x="522" y="-492" on="1"/>
        <pt x="281" y="-492" on="0"/>
        <pt x="20" y="-330" on="0"/>
        <pt x="20" y="-180" on="1"/>
        <pt x="20" y="24" on="0"/>
        <pt x="272" y="82" on="1"/>
        <pt x="221" y="102" on="0"/>
        <pt x="143" y="203" on="0"/>
        <pt x="143" y="302" on="0"/>
        <pt x="201" y="384" on="0"/>
        <pt x="293" y="440" on="1"/>
        <pt x="204" y="480" on="0"/>
        <pt x="104" y="647" on="0"/>
        <pt x="104" y="764" on="1"/>
        <pt x="104" y="948" on="0"/>
        <pt x="356" y="1153" on="0"/>
        <pt x="590" y="1153" on="1"/>
        <pt x="626" y="1153" on="0"/>
        <pt x="780" y="1138" on="0"/>
        <pt x="809" y="1133" on="1"/>
        <pt x="1204" y="1133" on="1"/>
        <pt x="1204" y="944" on="1"/>
        <pt x="1049" y="887" on="1"/>
        <pt x="1081" y="828" on="0"/>
        <pt x="1081" y="752" on="1"/>
        <pt x="1081" y="567" on="0"/>
        <pt x="821" y="367" on="0"/>
        <pt x="569" y="367" on="1"/>
        <pt x="509" y="367" on="0"/>
        <pt x="469" y="375" on="1"/>
        <pt x="455" y="349" on="0"/>
        <pt x="455" y="326" on="1"/>
        <pt x="455" y="297" on="0"/>
        <pt x="547" y="266" on="0"/>
      </contour>
      <contour>
        <pt x="594" y="936" on="1"/>
        <pt x="473" y="936" on="0"/>
        <pt x="473" y="588" on="0"/>
        <pt x="594" y="588" on="1"/>
        <pt x="711" y="588" on="0"/>
        <pt x="711" y="936" on="0"/>
      </contour>
      <contour>
        <pt x="653" y="-39" on="1"/>
        <pt x="500" y="-39" on="1"/>
        <pt x="437" y="-39" on="0"/>
        <pt x="393" y="-68" on="1"/>
        <pt x="350" y="-98" on="0"/>
        <pt x="350" y="-189" on="0"/>
        <pt x="454" y="-248" on="0"/>
        <pt x="541" y="-248" on="1"/>
        <pt x="682" y="-248" on="0"/>
        <pt x="854" y="-177" on="0"/>
        <pt x="854" y="-121" on="1"/>
        <pt x="854" y="-39" on="0"/>
      </contour>
    </TTGlyph>
    <TTGlyph name="gereshhb" xMin="37" yMin="712" xMax="492" yMax="1295">
      <contour>
        <pt x="477" y="1295" on="1"/>
        <pt x="492" y="1273" on="1"/>
        <pt x="400" y="907" on="0"/>
        <pt x="315" y="712" on="1"/>
        <pt x="37" y="712" on="1"/>
        <pt x="105" y="1032" on="0"/>
        <pt x="135" y="1295" on="1"/>
      </contour>
    </TTGlyph>
    <TTGlyph name="germandbls" xMin="135" yMin="-20" xMax="1477" yMax="1567">
      <contour>
        <pt x="135" y="0" on="1"/>
        <pt x="135" y="1100" on="1"/>
        <pt x="135" y="1315" on="0"/>
        <pt x="468" y="1567" on="0"/>
        <pt x="1025" y="1567" on="0"/>
        <pt x="1339" y="1367" on="0"/>
        <pt x="1339" y="1190" on="1"/>
        <pt x="1339" y="1091" on="0"/>
        <pt x="1270" y="1003" on="1"/>
        <pt x="1234" y="958" on="0"/>
        <pt x="1141" y="884" on="1"/>
        <pt x="1121" y="869" on="0"/>
        <pt x="1104" y="854" on="0"/>
        <pt x="1092" y="844" on="1"/>
        <pt x="1071" y="825" on="0"/>
        <pt x="1071" y="788" on="0"/>
        <pt x="1118" y="747" on="0"/>
        <pt x="1189" y="709" on="1"/>
        <pt x="1357" y="614" on="0"/>
        <pt x="1477" y="458" on="0"/>
        <pt x="1477" y="334" on="1"/>
        <pt x="1477" y="160" on="0"/>
        <pt x="1247" y="-20" on="0"/>
        <pt x="1024" y="-20" on="1"/>
        <pt x="885" y="-20" on="0"/>
        <pt x="715" y="6" on="0"/>
        <pt x="653" y="39" on="1"/>
        <pt x="653" y="330" on="1"/>
        <pt x="704" y="299" on="0"/>
        <pt x="869" y="250" on="0"/>
        <pt x="993" y="250" on="0"/>
        <pt x="1069" y="297" on="0"/>
        <pt x="1069" y="336" on="1"/>
        <pt x="1069" y="363" on="0"/>
        <pt x="1041" y="402" on="0"/>
        <pt x="960" y="453" on="0"/>
        <pt x="883" y="494" on="1"/>
        <pt x="757" y="561" on="0"/>
        <pt x="659" y="676" on="0"/>
        <pt x="659" y="756" on="1"/>
        <pt x="659" y="878" on="0"/>
        <pt x="799" y="974" on="1"/>
        <pt x="875" y="1026" on="0"/>
        <pt x="938" y="1105" on="0"/>
        <pt x="938" y="1201" on="0"/>
        <pt x="837" y="1268" on="0"/>
        <pt x="748" y="1268" on="1"/>
        <pt x="526" y="1268" on="0"/>
        <pt x="526" y="1059" on="1"/>
        <pt x="526" y="0" on="1"/>
      </contour>
    </TTGlyph>
    <TTGlyph name="gershayimhb" xMin="37" yMin="712" xMax="1001" yMax="1295">
      <contour>
        <pt x="477" y="1295" on="1"/>
        <pt x="492" y="1273" on="1"/>
        <pt x="400" y="907" on="0"/>
        <pt x="315" y="712" on="1"/>
        <pt x="37" y="712" on="1"/>
        <pt x="105" y="1032" on="0"/>
        <pt x="135" y="1295" on="1"/>
      </contour>
      <contour>
        <pt x="986" y="1295" on="1"/>
        <pt x="1001" y="1273" on="1"/>
        <pt x="909" y="905" on="0"/>
        <pt x="825" y="712" on="1"/>
        <pt x="547" y="712" on="1"/>
        <pt x="615" y="1032" on="0"/>
        <pt x="645" y="1295" on="1"/>
      </contour>
    </TTGlyph>
    <TTGlyph name="gimeldageshhb" xMin="50" yMin="-20" xMax="850" yMax="1315">
      <contour>
        <pt x="335" y="24" on="0"/>
        <pt x="229" y="-20" on="0"/>
        <pt x="124" y="-20" on="0"/>
        <pt x="50" y="0" on="1"/>
        <pt x="83" y="343" on="1"/>
        <pt x="151" y="328" on="0"/>
        <pt x="211" y="328" on="1"/>
        <pt x="321" y="328" on="0"/>
        <pt x="462" y="435" on="0"/>
        <pt x="462" y="549" on="1"/>
        <pt x="462" y="884" on="1"/>
        <pt x="462" y="1009" on="0"/>
        <pt x="379" y="1009" on="1"/>
        <pt x="290" y="1009" on="0"/>
        <pt x="206" y="987" on="1"/>
        <pt x="180" y="980" on="1"/>
        <pt x="180" y="1283" on="1"/>
        <pt x="306" y="1315" on="0"/>
        <pt x="538" y="1315" on="0"/>
        <pt x="692" y="1272" on="0"/>
        <pt x="782" y="1203" on="0"/>
        <pt x="834" y="1091" on="0"/>
        <pt x="850" y="979" on="0"/>
        <pt x="850" y="902" on="1"/>
        <pt x="850" y="0" on="1"/>
        <pt x="559" y="0" on="1"/>
        <pt x="498" y="182" on="1"/>
        <pt x="481" y="182" on="1"/>
        <pt x="469" y="157" on="0"/>
        <pt x="401" y="77" on="0"/>
      </contour>
      <contour>
        <pt x="186" y="714" on="0"/>
        <pt x="236" y="760" on="0"/>
        <pt x="323" y="760" on="0"/>
        <pt x="375" y="712" on="0"/>
        <pt x="375" y="634" on="0"/>
        <pt x="323" y="587" on="0"/>
        <pt x="235" y="587" on="0"/>
        <pt x="186" y="632" on="0"/>
      </contour>
    </TTGlyph>
    <TTGlyph name="grave" xMin="264" yMin="1241" xMax="956" yMax="1569">
      <contour>
        <pt x="264" y="1569" on="1"/>
        <pt x="694" y="1569" on="1"/>
        <pt x="747" y="1498" on="0"/>
        <pt x="897" y="1336" on="1"/>
        <pt x="956" y="1270" on="1"/>
        <pt x="956" y="1241" on="1"/>
        <pt x="696" y="1241" on="1"/>
        <pt x="627" y="1284" on="0"/>
        <pt x="373" y="1463" on="0"/>
        <pt x="264" y="1548" on="1"/>
      </contour>
    </TTGlyph>
    <TTGlyph name="greater" xMin="72" yMin="178" xMax="1083" yMax="1305">
      <contour>
        <pt x="1083" y="799" on="1"/>
        <pt x="1083" y="627" on="1"/>
        <pt x="72" y="178" on="1"/>
        <pt x="72" y="473" on="1"/>
        <pt x="692" y="725" on="1"/>
        <pt x="72" y="1008" on="1"/>
        <pt x="72" y="1305" on="1"/>
      </contour>
    </TTGlyph>
    <TTGlyph name="guillemotleft" xMin="74" yMin="80" xMax="1319" yMax="1071">
      <contour>
        <pt x="743" y="922" on="1"/>
        <pt x="471" y="575" on="1"/>
        <pt x="743" y="227" on="1"/>
        <pt x="463" y="80" on="1"/>
        <pt x="74" y="561" on="1"/>
        <pt x="74" y="588" on="1"/>
        <pt x="463" y="1071" on="1"/>
      </contour>
      <contour>
        <pt x="1319" y="922" on="1"/>
        <pt x="1044" y="575" on="1"/>
        <pt x="1319" y="227" on="1"/>
        <pt x="1036" y="80" on="1"/>
        <pt x="649" y="561" on="1"/>
        <pt x="649" y="588" on="1"/>
        <pt x="1036" y="1071" on="1"/>
      </contour>
    </TTGlyph>
    <TTGlyph name="guillemotright" xMin="76" yMin="80" xMax="1321" yMax="1071">
      <contour>
        <pt x="745" y="588" on="1"/>
        <pt x="745" y="561" on="1"/>
        <pt x="358" y="80" on="1"/>
        <pt x="76" y="227" on="1"/>
        <pt x="348" y="575" on="1"/>
        <pt x="76" y="922" on="1"/>
        <pt x="358" y="1071" on="1"/>
      </contour>
      <contour>
        <pt x="1321" y="588" on="1"/>
        <pt x="1321" y="561" on="1"/>
        <pt x="934" y="80" on="1"/>
        <pt x="649" y="227" on="1"/>
        <pt x="924" y="575" on="1"/>
        <pt x="649" y="922" on="1"/>
        <pt x="934" y="1071" on="1"/>
      </contour>
    </TTGlyph>
    <TTGlyph name="guilsinglleft" xMin="74" yMin="80" xMax="743" yMax="1071">
      <contour>
        <pt x="743" y="922" on="1"/>
        <pt x="471" y="575" on="1"/>
        <pt x="743" y="227" on="1"/>
        <pt x="463" y="80" on="1"/>
        <pt x="74" y="561" on="1"/>
        <pt x="74" y="588" on="1"/>
        <pt x="463" y="1071" on="1"/>
      </contour>
    </TTGlyph>
    <TTGlyph name="guilsinglright" xMin="76" yMin="80" xMax="745" yMax="1071">
      <contour>
        <pt x="745" y="588" on="1"/>
        <pt x="745" y="561" on="1"/>
        <pt x="358" y="80" on="1"/>
        <pt x="76" y="227" on="1"/>
        <pt x="348" y="575" on="1"/>
        <pt x="76" y="922" on="1"/>
        <pt x="358" y="1071" on="1"/>
      </contour>
    </TTGlyph>
    <TTGlyph name="h" xMin="135" yMin="0" xMax="1241" yMax="1556">
      <contour>
        <pt x="526" y="1556" on="1"/>
        <pt x="526" y="1335" on="1"/>
        <pt x="526" y="1180" on="0"/>
        <pt x="510" y="992" on="1"/>
        <pt x="528" y="992" on="1"/>
        <pt x="583" y="1078" on="0"/>
        <pt x="735" y="1153" on="0"/>
        <pt x="840" y="1153" on="1"/>
        <pt x="1030" y="1153" on="0"/>
        <pt x="1241" y="933" on="0"/>
        <pt x="1241" y="737" on="1"/>
        <pt x="1241" y="0" on="1"/>
        <pt x="848" y="0" on="1"/>
        <pt x="848" y="618" on="1"/>
        <pt x="848" y="846" on="0"/>
        <pt x="713" y="846" on="1"/>
        <pt x="617" y="846" on="0"/>
        <pt x="526" y="686" on="0"/>
        <pt x="526" y="498" on="1"/>
        <pt x="526" y="0" on="1"/>
        <pt x="135" y="0" on="1"/>
        <pt x="135" y="1556" on="1"/>
      </contour>
    </TTGlyph>
    <TTGlyph name="hedageshhb" xMin="135" yMin="0" xMax="1219" yMax="1315">
      <contour>
        <pt x="672" y="1315" on="1"/>
        <pt x="912" y="1315" on="0"/>
        <pt x="1026" y="1253" on="1"/>
        <pt x="1085" y="1221" on="0"/>
        <pt x="1163" y="1140" on="0"/>
        <pt x="1204" y="1022" on="0"/>
        <pt x="1219" y="903" on="0"/>
        <pt x="1219" y="822" on="1"/>
        <pt x="1219" y="0" on="1"/>
        <pt x="830" y="0" on="1"/>
        <pt x="830" y="822" on="1"/>
        <pt x="830" y="1015" on="0"/>
        <pt x="634" y="1015" on="1"/>
        <pt x="458" y="1015" on="0"/>
        <pt x="218" y="989" on="1"/>
        <pt x="135" y="980" on="1"/>
        <pt x="135" y="1277" on="1"/>
        <pt x="373" y="1315" on="0"/>
      </contour>
      <contour>
        <pt x="581" y="714" on="0"/>
        <pt x="631" y="760" on="0"/>
        <pt x="718" y="760" on="0"/>
        <pt x="770" y="712" on="0"/>
        <pt x="770" y="634" on="0"/>
        <pt x="718" y="587" on="0"/>
        <pt x="630" y="587" on="0"/>
        <pt x="581" y="632" on="0"/>
      </contour>
      <contour>
        <pt x="136" y="0" on="1"/>
        <pt x="136" y="755" on="1"/>
        <pt x="523" y="755" on="1"/>
        <pt x="523" y="0" on="1"/>
      </contour>
    </TTGlyph>
    <TTGlyph name="hungarumlaut" xMin="78" yMin="1241" xMax="1120" yMax="1569">
      <contour>
        <pt x="655" y="1569" on="1"/>
        <pt x="655" y="1548" on="1"/>
        <pt x="631" y="1509" on="0"/>
        <pt x="426" y="1341" on="0"/>
        <pt x="281" y="1241" on="1"/>
        <pt x="78" y="1241" on="1"/>
        <pt x="78" y="1270" on="1"/>
        <pt x="127" y="1337" on="1"/>
        <pt x="242" y="1494" on="0"/>
        <pt x="285" y="1569" on="1"/>
      </contour>
      <contour>
        <pt x="1120" y="1569" on="1"/>
        <pt x="1120" y="1548" on="1"/>
        <pt x="1095" y="1507" on="0"/>
        <pt x="871" y="1327" on="0"/>
        <pt x="743" y="1241" on="1"/>
        <pt x="541" y="1241" on="1"/>
        <pt x="541" y="1270" on="1"/>
        <pt x="590" y="1337" on="1"/>
        <pt x="705" y="1491" on="0"/>
        <pt x="748" y="1569" on="1"/>
      </contour>
    </TTGlyph>
    <TTGlyph name="hyphen" xMin="43" yMin="393" xMax="608" yMax="705">
      <contour>
        <pt x="608" y="393" on="1"/>
        <pt x="43" y="393" on="1"/>
        <pt x="43" y="705" on="1"/>
        <pt x="608" y="705" on="1"/>
      </contour>
    </TTGlyph>
    <TTGlyph name="i" xMin="127" yMin="0" xMax="543" yMax="1589">
      <contour>
        <pt x="127" y="1504" on="0"/>
        <pt x="226" y="1589" on="0"/>
        <pt x="441" y="1589" on="0"/>
        <pt x="543" y="1502" on="0"/>
        <pt x="543" y="1415" on="1"/>
        <pt x="543" y="1243" on="0"/>
        <pt x="127" y="1243" on="0"/>
        <pt x="127" y="1415" on="1"/>
      </contour>
      <contour>
        <pt x="528" y="0" on="1"/>
        <pt x="137" y="0" on="1"/>
        <pt x="137" y="1133" on="1"/>
        <pt x="528" y="1133" on="1"/>
      </contour>
    </TTGlyph>
    <TTGlyph name="iacute" xMin="107" yMin="0" xMax="799" yMax="1569">
      <contour>
        <pt x="799" y="1569" on="1"/>
        <pt x="799" y="1548" on="1"/>
        <pt x="720" y="1485" on="0"/>
        <pt x="440" y="1287" on="0"/>
        <pt x="367" y="1241" on="1"/>
        <pt x="107" y="1241" on="1"/>
        <pt x="107" y="1270" on="1"/>
        <pt x="254" y="1427" on="0"/>
        <pt x="303" y="1483" on="1"/>
        <pt x="344" y="1532" on="0"/>
        <pt x="371" y="1569" on="1"/>
      </contour>
      <contour>
        <pt x="528" y="0" on="1"/>
        <pt x="137" y="0" on="1"/>
        <pt x="137" y="1133" on="1"/>
        <pt x="528" y="1133" on="1"/>
      </contour>
    </TTGlyph>
    <TTGlyph name="icircumflex" xMin="-120" yMin="0" xMax="787" yMax="1569">
      <contour>
        <pt x="787" y="1241" on="1"/>
        <pt x="533" y="1241" on="1"/>
        <pt x="449" y="1289" on="0"/>
        <pt x="332" y="1391" on="1"/>
        <pt x="209" y="1286" on="0"/>
        <pt x="138" y="1241" on="1"/>
        <pt x="-120" y="1241" on="1"/>
        <pt x="-120" y="1270" on="1"/>
        <pt x="-52" y="1334" on="0"/>
        <pt x="99" y="1510" on="0"/>
        <pt x="138" y="1569" on="1"/>
        <pt x="531" y="1569" on="1"/>
        <pt x="628" y="1429" on="0"/>
        <pt x="787" y="1270" on="1"/>
      </contour>
      <contour>
        <pt x="528" y="0" on="1"/>
        <pt x="137" y="0" on="1"/>
        <pt x="137" y="1133" on="1"/>
        <pt x="528" y="1133" on="1"/>
      </contour>
    </TTGlyph>
    <TTGlyph name="idieresis" xMin="-61" yMin="0" xMax="763" yMax="1571">
      <contour>
        <pt x="30" y="1571" on="0"/>
        <pt x="188" y="1571" on="0"/>
        <pt x="281" y="1486" on="0"/>
        <pt x="281" y="1342" on="0"/>
        <pt x="188" y="1257" on="0"/>
        <pt x="30" y="1257" on="0"/>
        <pt x="-61" y="1339" on="0"/>
        <pt x="-61" y="1487" on="0"/>
      </contour>
      <contour>
        <pt x="418" y="1488" on="0"/>
        <pt x="509" y="1571" on="0"/>
        <pt x="670" y="1571" on="0"/>
        <pt x="763" y="1485" on="0"/>
        <pt x="763" y="1341" on="0"/>
        <pt x="670" y="1257" on="0"/>
        <pt x="509" y="1257" on="0"/>
        <pt x="418" y="1340" on="0"/>
      </contour>
      <contour>
        <pt x="528" y="0" on="1"/>
        <pt x="137" y="0" on="1"/>
        <pt x="137" y="1133" on="1"/>
        <pt x="528" y="1133" on="1"/>
      </contour>
    </TTGlyph>
    <TTGlyph name="igrave" xMin="-130" yMin="0" xMax="562" yMax="1569">
      <contour>
        <pt x="-130" y="1569" on="1"/>
        <pt x="300" y="1569" on="1"/>
        <pt x="353" y="1498" on="0"/>
        <pt x="503" y="1336" on="1"/>
        <pt x="562" y="1270" on="1"/>
        <pt x="562" y="1241" on="1"/>
        <pt x="302" y="1241" on="1"/>
        <pt x="223" y="1292" on="0"/>
        <pt x="-44" y="1479" on="0"/>
        <pt x="-130" y="1548" on="1"/>
      </contour>
      <contour>
        <pt x="528" y="0" on="1"/>
        <pt x="137" y="0" on="1"/>
        <pt x="137" y="1133" on="1"/>
        <pt x="528" y="1133" on="1"/>
      </contour>
    </TTGlyph>
    <TTGlyph name="j" xMin="-104" yMin="-492" xMax="541" yMax="1589">
      <contour>
        <pt x="125" y="1504" on="0"/>
        <pt x="224" y="1589" on="0"/>
        <pt x="439" y="1589" on="0"/>
        <pt x="541" y="1502" on="0"/>
        <pt x="541" y="1415" on="1"/>
        <pt x="541" y="1243" on="0"/>
        <pt x="125" y="1243" on="0"/>
        <pt x="125" y="1415" on="1"/>
      </contour>
      <contour>
        <pt x="526" y="1133" on="1"/>
        <pt x="526" y="-92" on="1"/>
        <pt x="526" y="-278" on="0"/>
        <pt x="306" y="-492" on="0"/>
        <pt x="106" y="-492" on="1"/>
        <pt x="62" y="-492" on="0"/>
        <pt x="-72" y="-476" on="0"/>
        <pt x="-104" y="-467" on="1"/>
        <pt x="-104" y="-162" on="1"/>
        <pt x="-40" y="-180" on="0"/>
        <pt x="16" y="-180" on="1"/>
        <pt x="135" y="-180" on="0"/>
        <pt x="135" y="-9" on="1"/>
        <pt x="135" y="1133" on="1"/>
      </contour>
    </TTGlyph>
    <TTGlyph name="k" xMin="135" yMin="0" xMax="1350" yMax="1556">
      <contour>
        <pt x="528" y="1556" on="1"/>
        <pt x="528" y="944" on="1"/>
        <pt x="528" y="784" on="0"/>
        <pt x="506" y="637" on="1"/>
        <pt x="514" y="637" on="1"/>
        <pt x="582" y="746" on="0"/>
        <pt x="635" y="813" on="1"/>
        <pt x="889" y="1133" on="1"/>
        <pt x="1325" y="1133" on="1"/>
        <pt x="932" y="651" on="1"/>
        <pt x="1350" y="0" on="1"/>
        <pt x="903" y="0" on="1"/>
        <pt x="655" y="406" on="1"/>
        <pt x="528" y="309" on="1"/>
        <pt x="528" y="0" on="1"/>
        <pt x="135" y="0" on="1"/>
        <pt x="135" y="1556" on="1"/>
      </contour>
    </TTGlyph>
    <TTGlyph name="kafdageshhb" xMin="66" yMin="-20" xMax="1021" yMax="1315">
      <contour>
        <pt x="474" y="1315" on="1"/>
        <pt x="598" y="1315" on="0"/>
        <pt x="791" y="1249" on="0"/>
        <pt x="912" y="1140" on="0"/>
        <pt x="951" y="1062" on="1"/>
        <pt x="1021" y="923" on="0"/>
        <pt x="1021" y="729" on="1"/>
        <pt x="1021" y="565" on="1"/>
        <pt x="1021" y="469" on="0"/>
        <pt x="996" y="312" on="0"/>
        <pt x="924" y="154" on="0"/>
        <pt x="806" y="47" on="0"/>
        <pt x="607" y="-20" on="0"/>
        <pt x="474" y="-20" on="1"/>
        <pt x="211" y="-20" on="0"/>
        <pt x="66" y="7" on="1"/>
        <pt x="66" y="310" on="1"/>
        <pt x="221" y="292" on="0"/>
        <pt x="437" y="292" on="1"/>
        <pt x="545" y="292" on="0"/>
        <pt x="633" y="437" on="0"/>
        <pt x="633" y="565" on="1"/>
        <pt x="633" y="731" on="1"/>
        <pt x="633" y="783" on="0"/>
        <pt x="624" y="857" on="0"/>
        <pt x="595" y="935" on="0"/>
        <pt x="570" y="959" on="1"/>
        <pt x="512" y="1013" on="0"/>
        <pt x="390" y="1013" on="1"/>
        <pt x="260" y="1013" on="0"/>
        <pt x="114" y="1000" on="1"/>
        <pt x="66" y="995" on="1"/>
        <pt x="66" y="1299" on="1"/>
        <pt x="236" y="1315" on="0"/>
      </contour>
      <contour>
        <pt x="258" y="714" on="0"/>
        <pt x="308" y="760" on="0"/>
        <pt x="395" y="760" on="0"/>
        <pt x="447" y="712" on="0"/>
        <pt x="447" y="634" on="0"/>
        <pt x="395" y="587" on="0"/>
        <pt x="307" y="587" on="0"/>
        <pt x="258" y="632" on="0"/>
      </contour>
    </TTGlyph>
    <TTGlyph name="l" xMin="135" yMin="0" xMax="526" yMax="1556">
      <contour>
        <pt x="526" y="0" on="1"/>
        <pt x="135" y="0" on="1"/>
        <pt x="135" y="1556" on="1"/>
        <pt x="526" y="1556" on="1"/>
      </contour>
    </TTGlyph>
    <TTGlyph name="lameddageshhb" xMin="50" yMin="0" xMax="1090" yMax="1551">
      <contour>
        <pt x="1090" y="1295" on="1"/>
        <pt x="1090" y="1058" on="1"/>
        <pt x="920" y="481" on="1"/>
        <pt x="921" y="482" on="1"/>
        <pt x="812" y="0" on="1"/>
        <pt x="430" y="0" on="1"/>
        <pt x="543" y="495" on="1"/>
        <pt x="692" y="996" on="1"/>
        <pt x="50" y="996" on="1"/>
        <pt x="50" y="1551" on="1"/>
        <pt x="438" y="1551" on="1"/>
        <pt x="438" y="1295" on="1"/>
      </contour>
      <contour>
        <pt x="212" y="714" on="0"/>
        <pt x="262" y="760" on="0"/>
        <pt x="349" y="760" on="0"/>
        <pt x="401" y="712" on="0"/>
        <pt x="401" y="634" on="0"/>
        <pt x="349" y="587" on="0"/>
        <pt x="261" y="587" on="0"/>
        <pt x="212" y="632" on="0"/>
      </contour>
    </TTGlyph>
    <TTGlyph name="less" xMin="72" yMin="178" xMax="1083" yMax="1305">
      <contour>
        <pt x="1083" y="1008" on="1"/>
        <pt x="463" y="725" on="1"/>
        <pt x="1083" y="473" on="1"/>
        <pt x="1083" y="178" on="1"/>
        <pt x="72" y="627" on="1"/>
        <pt x="72" y="799" on="1"/>
        <pt x="1083" y="1305" on="1"/>
      </contour>
    </TTGlyph>
    <TTGlyph name="logicalnot" xMin="72" yMin="238" xMax="1085" yMax="856">
      <contour>
        <pt x="1085" y="238" on="1"/>
        <pt x="815" y="238" on="1"/>
        <pt x="815" y="588" on="1"/>
        <pt x="72" y="588" on="1"/>
        <pt x="72" y="856" on="1"/>
        <pt x="1085" y="856" on="1"/>
      </contour>
    </TTGlyph>
    <TTGlyph name="m" xMin="135" yMin="0" xMax="1917" yMax="1153">
      <contour>
        <pt x="1524" y="1153" on="1"/>
        <pt x="1724" y="1153" on="0"/>
        <pt x="1917" y="948" on="0"/>
        <pt x="1917" y="737" on="1"/>
        <pt x="1917" y="0" on="1"/>
        <pt x="1526" y="0" on="1"/>
        <pt x="1526" y="616" on="1"/>
        <pt x="1526" y="732" on="0"/>
        <pt x="1463" y="846" on="0"/>
        <pt x="1395" y="846" on="1"/>
        <pt x="1305" y="846" on="0"/>
        <pt x="1221" y="692" on="0"/>
        <pt x="1221" y="528" on="1"/>
        <pt x="1221" y="0" on="1"/>
        <pt x="829" y="0" on="1"/>
        <pt x="829" y="616" on="1"/>
        <pt x="829" y="732" on="0"/>
        <pt x="768" y="846" on="0"/>
        <pt x="702" y="846" on="1"/>
        <pt x="609" y="846" on="0"/>
        <pt x="526" y="681" on="0"/>
        <pt x="526" y="496" on="1"/>
        <pt x="526" y="0" on="1"/>
        <pt x="135" y="0" on="1"/>
        <pt x="135" y="1133" on="1"/>
        <pt x="430" y="1133" on="1"/>
        <pt x="479" y="992" on="1"/>
        <pt x="502" y="992" on="1"/>
        <pt x="547" y="1070" on="0"/>
        <pt x="717" y="1153" on="0"/>
        <pt x="827" y="1153" on="1"/>
        <pt x="1072" y="1153" on="0"/>
        <pt x="1171" y="1004" on="1"/>
        <pt x="1202" y="1004" on="1"/>
        <pt x="1250" y="1074" on="0"/>
        <pt x="1421" y="1153" on="0"/>
      </contour>
    </TTGlyph>
    <TTGlyph name="memdageshhb" xMin="86" yMin="0" xMax="1295" yMax="1315">
      <contour>
        <pt x="445" y="1295" on="1"/>
        <pt x="480" y="1236" on="0"/>
        <pt x="490" y="1163" on="1"/>
        <pt x="504" y="1163" on="1"/>
        <pt x="521" y="1183" on="0"/>
        <pt x="601" y="1242" on="0"/>
        <pt x="678" y="1282" on="0"/>
        <pt x="801" y="1315" on="0"/>
        <pt x="966" y="1315" on="0"/>
        <pt x="1117" y="1256" on="0"/>
        <pt x="1213" y="1156" on="0"/>
        <pt x="1242" y="1080" on="1"/>
        <pt x="1295" y="945" on="0"/>
        <pt x="1295" y="729" on="1"/>
        <pt x="1295" y="0" on="1"/>
        <pt x="669" y="0" on="1"/>
        <pt x="669" y="299" on="1"/>
        <pt x="900" y="299" on="1"/>
        <pt x="900" y="729" on="1"/>
        <pt x="900" y="834" on="0"/>
        <pt x="877" y="930" on="0"/>
        <pt x="860" y="953" on="1"/>
        <pt x="822" y="1007" on="0"/>
        <pt x="739" y="1007" on="1"/>
        <pt x="704" y="1007" on="0"/>
        <pt x="638" y="980" on="0"/>
        <pt x="616" y="960" on="1"/>
        <pt x="568" y="917" on="0"/>
        <pt x="551" y="888" on="1"/>
        <pt x="543" y="874" on="1"/>
        <pt x="468" y="0" on="1"/>
        <pt x="86" y="0" on="1"/>
        <pt x="161" y="818" on="1"/>
        <pt x="168" y="890" on="0"/>
        <pt x="168" y="951" on="1"/>
        <pt x="168" y="1121" on="0"/>
        <pt x="105" y="1295" on="1"/>
      </contour>
      <contour>
        <pt x="619" y="714" on="0"/>
        <pt x="669" y="760" on="0"/>
        <pt x="756" y="760" on="0"/>
        <pt x="808" y="712" on="0"/>
        <pt x="808" y="634" on="0"/>
        <pt x="756" y="587" on="0"/>
        <pt x="668" y="587" on="0"/>
        <pt x="619" y="632" on="0"/>
      </contour>
    </TTGlyph>
    <TTGlyph name="mu" xMin="135" yMin="-492" xMax="1241" yMax="1133">
      <contour>
        <pt x="1241" y="0" on="1"/>
        <pt x="948" y="0" on="1"/>
        <pt x="895" y="152" on="1"/>
        <pt x="879" y="152" on="1"/>
        <pt x="846" y="67" on="0"/>
        <pt x="734" y="-20" on="0"/>
        <pt x="611" y="-20" on="0"/>
        <pt x="543" y="19" on="0"/>
        <pt x="514" y="63" on="1"/>
        <pt x="526" y="-27" on="0"/>
        <pt x="526" y="-172" on="1"/>
        <pt x="526" y="-492" on="1"/>
        <pt x="135" y="-492" on="1"/>
        <pt x="135" y="1133" on="1"/>
        <pt x="526" y="1133" on="1"/>
        <pt x="526" y="518" on="1"/>
        <pt x="526" y="401" on="0"/>
        <pt x="595" y="289" on="0"/>
        <pt x="672" y="289" on="1"/>
        <pt x="765" y="289" on="0"/>
        <pt x="848" y="454" on="0"/>
        <pt x="848" y="637" on="1"/>
        <pt x="848" y="1133" on="1"/>
        <pt x="1241" y="1133" on="1"/>
      </contour>
    </TTGlyph>
    <TTGlyph name="multiply" xMin="121" yMin="266" xMax="1036" yMax="1180">
      <contour>
        <pt x="1036" y="996" on="1"/>
        <pt x="762" y="723" on="1"/>
        <pt x="1032" y="451" on="1"/>
        <pt x="848" y="266" on="1"/>
        <pt x="573" y="537" on="1"/>
        <pt x="303" y="268" on="1"/>
        <pt x="123" y="455" on="1"/>
        <pt x="387" y="723" on="1"/>
        <pt x="121" y="990" on="1"/>
        <pt x="303" y="1180" on="1"/>
        <pt x="573" y="913" on="1"/>
        <pt x="848" y="1180" on="1"/>
      </contour>
    </TTGlyph>
    <TTGlyph name="n" xMin="135" yMin="0" xMax="1241" yMax="1153">
      <contour>
        <pt x="844" y="1153" on="1"/>
        <pt x="1033" y="1153" on="0"/>
        <pt x="1241" y="933" on="0"/>
        <pt x="1241" y="737" on="1"/>
        <pt x="1241" y="0" on="1"/>
        <pt x="850" y="0" on="1"/>
        <pt x="850" y="618" on="1"/>
        <pt x="850" y="733" on="0"/>
        <pt x="784" y="846" on="0"/>
        <pt x="713" y="846" on="1"/>
        <pt x="613" y="846" on="0"/>
        <pt x="526" y="687" on="0"/>
        <pt x="526" y="496" on="1"/>
        <pt x="526" y="0" on="1"/>
        <pt x="135" y="0" on="1"/>
        <pt x="135" y="1133" on="1"/>
        <pt x="430" y="1133" on="1"/>
        <pt x="479" y="992" on="1"/>
        <pt x="502" y="992" on="1"/>
        <pt x="602" y="1153" on="0"/>
      </contour>
    </TTGlyph>
    <TTGlyph name="nine" xMin="53" yMin="-20" xMax="1133" yMax="1477">
      <contour>
        <pt x="457" y="481" on="1"/>
        <pt x="266" y="481" on="0"/>
        <pt x="53" y="736" on="0"/>
        <pt x="53" y="958" on="1"/>
        <pt x="53" y="1202" on="0"/>
        <pt x="331" y="1477" on="0"/>
        <pt x="571" y="1477" on="1"/>
        <pt x="840" y="1477" on="0"/>
        <pt x="985" y="1299" on="1"/>
        <pt x="1133" y="1121" on="0"/>
        <pt x="1133" y="793" on="1"/>
        <pt x="1133" y="365" on="0"/>
        <pt x="764" y="-20" on="0"/>
        <pt x="356" y="-20" on="1"/>
        <pt x="217" y="-20" on="0"/>
        <pt x="152" y="-9" on="1"/>
        <pt x="152" y="303" on="1"/>
        <pt x="235" y="287" on="0"/>
        <pt x="324" y="287" on="1"/>
        <pt x="539" y="287" on="0"/>
        <pt x="766" y="465" on="0"/>
        <pt x="776" y="651" on="1"/>
        <pt x="764" y="651" on="1"/>
        <pt x="725" y="579" on="0"/>
        <pt x="687" y="547" on="1"/>
        <pt x="609" y="481" on="0"/>
      </contour>
      <contour>
        <pt x="694" y="1097" on="1"/>
        <pt x="651" y="1161" on="0"/>
        <pt x="514" y="1161" on="0"/>
        <pt x="436" y="1064" on="0"/>
        <pt x="436" y="879" on="0"/>
        <pt x="508" y="784" on="0"/>
        <pt x="642" y="784" on="0"/>
        <pt x="691" y="831" on="1"/>
        <pt x="739" y="878" on="0"/>
        <pt x="739" y="944" on="1"/>
        <pt x="739" y="1032" on="0"/>
      </contour>
    </TTGlyph>
    <TTGlyph name="ntilde" xMin="135" yMin="0" xMax="1241" yMax="1581">
      <contour>
        <pt x="861" y="1239" on="1"/>
        <pt x="798" y="1239" on="0"/>
        <pt x="564" y="1335" on="0"/>
        <pt x="517" y="1335" on="1"/>
        <pt x="463" y="1335" on="0"/>
        <pt x="445" y="1237" on="1"/>
        <pt x="265" y="1237" on="1"/>
        <pt x="276" y="1412" on="0"/>
        <pt x="398" y="1579" on="0"/>
        <pt x="517" y="1579" on="1"/>
        <pt x="568" y="1579" on="0"/>
        <pt x="802" y="1483" on="0"/>
        <pt x="853" y="1483" on="1"/>
        <pt x="907" y="1483" on="0"/>
        <pt x="925" y="1581" on="1"/>
        <pt x="1107" y="1581" on="1"/>
        <pt x="1096" y="1414" on="0"/>
        <pt x="970" y="1239" on="0"/>
      </contour>
      <contour>
        <pt x="844" y="1153" on="1"/>
        <pt x="1033" y="1153" on="0"/>
        <pt x="1241" y="933" on="0"/>
        <pt x="1241" y="737" on="1"/>
        <pt x="1241" y="0" on="1"/>
        <pt x="850" y="0" on="1"/>
        <pt x="850" y="618" on="1"/>
        <pt x="850" y="733" on="0"/>
        <pt x="784" y="846" on="0"/>
        <pt x="713" y="846" on="1"/>
        <pt x="613" y="846" on="0"/>
        <pt x="526" y="687" on="0"/>
        <pt x="526" y="496" on="1"/>
        <pt x="526" y="0" on="1"/>
        <pt x="135" y="0" on="1"/>
        <pt x="135" y="1133" on="1"/>
        <pt x="430" y="1133" on="1"/>
        <pt x="479" y="992" on="1"/>
        <pt x="502" y="992" on="1"/>
        <pt x="602" y="1153" on="0"/>
      </contour>
    </TTGlyph>
    <TTGlyph name="numbersign" xMin="37" yMin="0" xMax="1319" yMax="1462">
      <contour>
        <pt x="1319" y="1073" on="1"/>
        <pt x="1319" y="813" on="1"/>
        <pt x="1042" y="813" on="1"/>
        <pt x="1012" y="645" on="1"/>
        <pt x="1255" y="645" on="1"/>
        <pt x="1255" y="391" on="1"/>
        <pt x="965" y="391" on="1"/>
        <pt x="891" y="0" on="1"/>
        <pt x="623" y="0" on="1"/>
        <pt x="696" y="391" on="1"/>
        <pt x="528" y="391" on="1"/>
        <pt x="457" y="0" on="1"/>
        <pt x="190" y="0" on="1"/>
        <pt x="262" y="391" on="1"/>
        <pt x="37" y="391" on="1"/>
        <pt x="37" y="645" on="1"/>
        <pt x="311" y="645" on="1"/>
        <pt x="342" y="813" on="1"/>
        <pt x="104" y="813" on="1"/>
        <pt x="104" y="1073" on="1"/>
        <pt x="391" y="1073" on="1"/>
        <pt x="463" y="1462" on="1"/>
        <pt x="731" y="1462" on="1"/>
        <pt x="657" y="1073" on="1"/>
        <pt x="823" y="1073" on="1"/>
        <pt x="895" y="1462" on="1"/>
        <pt x="1163" y="1462" on="1"/>
        <pt x="1090" y="1073" on="1"/>
      </contour>
      <contour>
        <pt x="608" y="813" on="1"/>
        <pt x="578" y="645" on="1"/>
        <pt x="743" y="645" on="1"/>
        <pt x="774" y="813" on="1"/>
      </contour>
    </TTGlyph>
    <TTGlyph name="nundageshhb" xMin="72" yMin="0" xMax="775" yMax="1315">
      <contour>
        <pt x="129" y="1299" on="1"/>
        <pt x="209" y="1315" on="0"/>
        <pt x="455" y="1315" on="0"/>
        <pt x="605" y="1269" on="0"/>
        <pt x="697" y="1192" on="0"/>
        <pt x="754" y="1078" on="0"/>
        <pt x="775" y="957" on="0"/>
        <pt x="775" y="883" on="1"/>
        <pt x="775" y="405" on="1"/>
        <pt x="775" y="311" on="0"/>
        <pt x="752" y="108" on="0"/>
        <pt x="741" y="54" on="1"/>
        <pt x="730" y="0" on="1"/>
        <pt x="72" y="0" on="1"/>
        <pt x="72" y="299" on="1"/>
        <pt x="375" y="299" on="1"/>
        <pt x="387" y="348" on="0"/>
        <pt x="387" y="405" on="1"/>
        <pt x="387" y="883" on="1"/>
        <pt x="387" y="935" on="0"/>
        <pt x="342" y="1008" on="0"/>
        <pt x="291" y="1008" on="1"/>
        <pt x="226" y="1008" on="0"/>
        <pt x="155" y="998" on="1"/>
        <pt x="129" y="995" on="1"/>
      </contour>
      <contour>
        <pt x="104" y="714" on="0"/>
        <pt x="154" y="760" on="0"/>
        <pt x="241" y="760" on="0"/>
        <pt x="293" y="712" on="0"/>
        <pt x="293" y="634" on="0"/>
        <pt x="241" y="587" on="0"/>
        <pt x="153" y="587" on="0"/>
        <pt x="104" y="632" on="0"/>
      </contour>
    </TTGlyph>
    <TTGlyph name="o" xMin="86" yMin="-20" xMax="1217" yMax="1153">
      <contour>
        <pt x="664" y="1153" on="1"/>
        <pt x="823" y="1153" on="0"/>
        <pt x="1077" y="1011" on="0"/>
        <pt x="1217" y="747" on="0"/>
        <pt x="1217" y="579" on="1"/>
        <pt x="1217" y="574" on="0"/>
        <pt x="1217" y="569" on="1"/>
        <pt x="1217" y="291" on="0"/>
        <pt x="917" y="-20" on="0"/>
        <pt x="391" y="-20" on="0"/>
        <pt x="238" y="139" on="1"/>
        <pt x="86" y="299" on="0"/>
        <pt x="86" y="846" on="0"/>
        <pt x="235" y="998" on="1"/>
        <pt x="384" y="1153" on="0"/>
        <pt x="655" y="1153" on="1"/>
        <pt x="659" y="1153" on="0"/>
      </contour>
      <contour>
        <pt x="819" y="718" on="0"/>
        <pt x="741" y="862" on="0"/>
        <pt x="563" y="862" on="0"/>
        <pt x="483" y="718" on="0"/>
        <pt x="483" y="419" on="0"/>
        <pt x="563" y="270" on="0"/>
        <pt x="741" y="270" on="0"/>
        <pt x="819" y="418" on="0"/>
      </contour>
    </TTGlyph>
    <TTGlyph name="oacute" xMin="86" yMin="-20" xMax="1217" yMax="1569">
      <contour>
        <pt x="999" y="1569" on="1"/>
        <pt x="999" y="1548" on="1"/>
        <pt x="931" y="1493" on="0"/>
        <pt x="643" y="1289" on="0"/>
        <pt x="567" y="1241" on="1"/>
        <pt x="307" y="1241" on="1"/>
        <pt x="307" y="1270" on="1"/>
        <pt x="462" y="1435" on="0"/>
        <pt x="542" y="1529" on="0"/>
        <pt x="571" y="1569" on="1"/>
      </contour>
      <contour>
        <pt x="664" y="1153" on="1"/>
        <pt x="823" y="1153" on="0"/>
        <pt x="1077" y="1011" on="0"/>
        <pt x="1217" y="747" on="0"/>
        <pt x="1217" y="579" on="1"/>
        <pt x="1217" y="574" on="0"/>
        <pt x="1217" y="569" on="1"/>
        <pt x="1217" y="291" on="0"/>
        <pt x="917" y="-20" on="0"/>
        <pt x="391" y="-20" on="0"/>
        <pt x="238" y="139" on="1"/>
        <pt x="86" y="299" on="0"/>
        <pt x="86" y="846" on="0"/>
        <pt x="235" y="998" on="1"/>
        <pt x="384" y="1153" on="0"/>
        <pt x="655" y="1153" on="1"/>
        <pt x="659" y="1153" on="0"/>
      </contour>
      <contour>
        <pt x="819" y="718" on="0"/>
        <pt x="741" y="862" on="0"/>
        <pt x="563" y="862" on="0"/>
        <pt x="483" y="718" on="0"/>
        <pt x="483" y="419" on="0"/>
        <pt x="563" y="270" on="0"/>
        <pt x="741" y="270" on="0"/>
        <pt x="819" y="418" on="0"/>
      </contour>
    </TTGlyph>
    <TTGlyph name="ocircumflex" xMin="86" yMin="-20" xMax="1217" yMax="1569">
      <contour>
        <pt x="1107" y="1241" on="1"/>
        <pt x="853" y="1241" on="1"/>
        <pt x="769" y="1289" on="0"/>
        <pt x="652" y="1391" on="1"/>
        <pt x="529" y="1286" on="0"/>
        <pt x="458" y="1241" on="1"/>
        <pt x="200" y="1241" on="1"/>
        <pt x="200" y="1270" on="1"/>
        <pt x="269" y="1334" on="0"/>
        <pt x="423" y="1514" on="0"/>
        <pt x="458" y="1569" on="1"/>
        <pt x="851" y="1569" on="1"/>
        <pt x="948" y="1429" on="0"/>
        <pt x="1107" y="1270" on="1"/>
      </contour>
      <contour>
        <pt x="664" y="1153" on="1"/>
        <pt x="823" y="1153" on="0"/>
        <pt x="1077" y="1011" on="0"/>
        <pt x="1217" y="747" on="0"/>
        <pt x="1217" y="579" on="1"/>
        <pt x="1217" y="574" on="0"/>
        <pt x="1217" y="569" on="1"/>
        <pt x="1217" y="291" on="0"/>
        <pt x="917" y="-20" on="0"/>
        <pt x="391" y="-20" on="0"/>
        <pt x="238" y="139" on="1"/>
        <pt x="86" y="299" on="0"/>
        <pt x="86" y="846" on="0"/>
        <pt x="235" y="998" on="1"/>
        <pt x="384" y="1153" on="0"/>
        <pt x="655" y="1153" on="1"/>
        <pt x="659" y="1153" on="0"/>
      </contour>
      <contour>
        <pt x="819" y="718" on="0"/>
        <pt x="741" y="862" on="0"/>
        <pt x="563" y="862" on="0"/>
        <pt x="483" y="718" on="0"/>
        <pt x="483" y="419" on="0"/>
        <pt x="563" y="270" on="0"/>
        <pt x="741" y="270" on="0"/>
        <pt x="819" y="418" on="0"/>
      </contour>
    </TTGlyph>
    <TTGlyph name="odieresis" xMin="86" yMin="-20" xMax="1217" yMax="1571">
      <contour>
        <pt x="332" y="1571" on="0"/>
        <pt x="490" y="1571" on="0"/>
        <pt x="583" y="1486" on="0"/>
        <pt x="583" y="1342" on="0"/>
        <pt x="490" y="1257" on="0"/>
        <pt x="332" y="1257" on="0"/>
        <pt x="241" y="1339" on="0"/>
        <pt x="241" y="1487" on="0"/>
      </contour>
      <contour>
        <pt x="720" y="1488" on="0"/>
        <pt x="811" y="1571" on="0"/>
        <pt x="971" y="1571" on="0"/>
        <pt x="1065" y="1485" on="0"/>
        <pt x="1065" y="1342" on="0"/>
        <pt x="971" y="1257" on="0"/>
        <pt x="811" y="1257" on="0"/>
        <pt x="720" y="1340" on="0"/>
      </contour>
      <contour>
        <pt x="664" y="1153" on="1"/>
        <pt x="823" y="1153" on="0"/>
        <pt x="1077" y="1011" on="0"/>
        <pt x="1217" y="747" on="0"/>
        <pt x="1217" y="579" on="1"/>
        <pt x="1217" y="574" on="0"/>
        <pt x="1217" y="569" on="1"/>
        <pt x="1217" y="291" on="0"/>
        <pt x="917" y="-20" on="0"/>
        <pt x="391" y="-20" on="0"/>
        <pt x="238" y="139" on="1"/>
        <pt x="86" y="299" on="0"/>
        <pt x="86" y="846" on="0"/>
        <pt x="235" y="998" on="1"/>
        <pt x="384" y="1153" on="0"/>
        <pt x="655" y="1153" on="1"/>
        <pt x="659" y="1153" on="0"/>
      </contour>
      <contour>
        <pt x="819" y="718" on="0"/>
        <pt x="741" y="862" on="0"/>
        <pt x="563" y="862" on="0"/>
        <pt x="483" y="718" on="0"/>
        <pt x="483" y="419" on="0"/>
        <pt x="563" y="270" on="0"/>
        <pt x="741" y="270" on="0"/>
        <pt x="819" y="418" on="0"/>
      </contour>
    </TTGlyph>
    <TTGlyph name="oe" xMin="86" yMin="-20" xMax="1921" yMax="1153">
      <contour>
        <pt x="1434" y="-20" on="1"/>
        <pt x="1197" y="-20" on="0"/>
        <pt x="1051" y="117" on="1"/>
        <pt x="899" y="-20" on="0"/>
        <pt x="391" y="-20" on="0"/>
        <pt x="86" y="298" on="0"/>
        <pt x="86" y="846" on="0"/>
        <pt x="385" y="1153" on="0"/>
        <pt x="655" y="1153" on="1"/>
        <pt x="882" y="1153" on="0"/>
        <pt x="1030" y="1026" on="1"/>
        <pt x="1184" y="1153" on="0"/>
        <pt x="1659" y="1153" on="0"/>
        <pt x="1921" y="879" on="0"/>
        <pt x="1921" y="633" on="1"/>
        <pt x="1921" y="461" on="1"/>
        <pt x="1225" y="461" on="1"/>
        <pt x="1229" y="370" on="0"/>
        <pt x="1370" y="258" on="0"/>
        <pt x="1485" y="258" on="1"/>
        <pt x="1679" y="258" on="0"/>
        <pt x="1849" y="344" on="1"/>
        <pt x="1849" y="63" on="1"/>
        <pt x="1759" y="17" on="0"/>
        <pt x="1570" y="-20" on="0"/>
      </contour>
      <contour>
        <pt x="1407" y="887" on="1"/>
        <pt x="1245" y="887" on="0"/>
        <pt x="1231" y="707" on="1"/>
        <pt x="1571" y="707" on="1"/>
        <pt x="1569" y="788" on="0"/>
        <pt x="1477" y="887" on="0"/>
      </contour>
      <contour>
        <pt x="819" y="718" on="0"/>
        <pt x="741" y="862" on="0"/>
        <pt x="564" y="862" on="0"/>
        <pt x="485" y="717" on="0"/>
        <pt x="485" y="418" on="0"/>
        <pt x="563" y="270" on="0"/>
        <pt x="741" y="270" on="0"/>
        <pt x="819" y="418" on="0"/>
      </contour>
    </TTGlyph>
    <TTGlyph name="ogonek" xMin="-6" yMin="-492" xMax="444" yMax="0">
      <contour>
        <pt x="248" y="-199" on="1"/>
        <pt x="248" y="-266" on="0"/>
        <pt x="397" y="-266" on="0"/>
        <pt x="444" y="-244" on="1"/>
        <pt x="444" y="-465" on="1"/>
        <pt x="362" y="-492" on="0"/>
        <pt x="270" y="-492" on="1"/>
        <pt x="148" y="-492" on="0"/>
        <pt x="-6" y="-363" on="0"/>
        <pt x="-6" y="-260" on="1"/>
        <pt x="-6" y="-190" on="0"/>
        <pt x="76" y="-65" on="0"/>
        <pt x="168" y="0" on="1"/>
        <pt x="381" y="0" on="1"/>
        <pt x="303" y="-72" on="0"/>
        <pt x="248" y="-161" on="0"/>
      </contour>
    </TTGlyph>
    <TTGlyph name="ograve" xMin="86" yMin="-20" xMax="1217" yMax="1569">
      <contour>
        <pt x="307" y="1569" on="1"/>
        <pt x="737" y="1569" on="1"/>
        <pt x="790" y="1498" on="0"/>
        <pt x="940" y="1336" on="1"/>
        <pt x="999" y="1270" on="1"/>
        <pt x="999" y="1241" on="1"/>
        <pt x="739" y="1241" on="1"/>
        <pt x="670" y="1284" on="0"/>
        <pt x="416" y="1463" on="0"/>
        <pt x="307" y="1548" on="1"/>
      </contour>
      <contour>
        <pt x="664" y="1153" on="1"/>
        <pt x="823" y="1153" on="0"/>
        <pt x="1077" y="1011" on="0"/>
        <pt x="1217" y="747" on="0"/>
        <pt x="1217" y="579" on="1"/>
        <pt x="1217" y="574" on="0"/>
        <pt x="1217" y="569" on="1"/>
        <pt x="1217" y="291" on="0"/>
        <pt x="917" y="-20" on="0"/>
        <pt x="391" y="-20" on="0"/>
        <pt x="238" y="139" on="1"/>
        <pt x="86" y="299" on="0"/>
        <pt x="86" y="846" on="0"/>
        <pt x="235" y="998" on="1"/>
        <pt x="384" y="1153" on="0"/>
        <pt x="655" y="1153" on="1"/>
        <pt x="659" y="1153" on="0"/>
      </contour>
      <contour>
        <pt x="819" y="718" on="0"/>
        <pt x="741" y="862" on="0"/>
        <pt x="563" y="862" on="0"/>
        <pt x="483" y="718" on="0"/>
        <pt x="483" y="419" on="0"/>
        <pt x="563" y="270" on="0"/>
        <pt x="741" y="270" on="0"/>
        <pt x="819" y="418" on="0"/>
      </contour>
    </TTGlyph>
    <TTGlyph name="one" xMin="84" yMin="0" xMax="942" yMax="1462">
      <contour>
        <pt x="942" y="0" on="1"/>
        <pt x="541" y="0" on="1"/>
        <pt x="541" y="774" on="1"/>
        <pt x="541" y="915" on="0"/>
        <pt x="547" y="1032" on="1"/>
        <pt x="504" y="980" on="0"/>
        <pt x="455" y="938" on="1"/>
        <pt x="289" y="801" on="1"/>
        <pt x="84" y="1053" on="1"/>
        <pt x="586" y="1462" on="1"/>
        <pt x="942" y="1462" on="1"/>
      </contour>
    </TTGlyph>
    <TTGlyph name="onehalf" xMin="-12" yMin="0" xMax="1829" yMax="1462">
      <contour>
        <pt x="547" y="586" on="1"/>
        <pt x="265" y="586" on="1"/>
        <pt x="265" y="942" on="1"/>
        <pt x="265" y="978" on="0"/>
        <pt x="273" y="1146" on="0"/>
        <pt x="275" y="1159" on="1"/>
        <pt x="267" y="1142" on="0"/>
        <pt x="216" y="1088" on="0"/>
        <pt x="134" y="1018" on="1"/>
        <pt x="-12" y="1188" on="1"/>
        <pt x="328" y="1462" on="1"/>
        <pt x="547" y="1462" on="1"/>
      </contour>
      <contour>
        <pt x="682" y="0" on="1"/>
        <pt x="381" y="0" on="1"/>
        <pt x="1134" y="1462" on="1"/>
        <pt x="1436" y="1462" on="1"/>
      </contour>
      <contour>
        <pt x="1220" y="837" on="0"/>
        <pt x="1394" y="900" on="0"/>
        <pt x="1652" y="900" on="0"/>
        <pt x="1808" y="774" on="0"/>
        <pt x="1808" y="662" on="1"/>
        <pt x="1808" y="530" on="0"/>
        <pt x="1680" y="399" on="1"/>
        <pt x="1631" y="350" on="0"/>
        <pt x="1482" y="226" on="1"/>
        <pt x="1829" y="226" on="1"/>
        <pt x="1829" y="0" on="1"/>
        <pt x="1155" y="0" on="1"/>
        <pt x="1155" y="208" on="1"/>
        <pt x="1370" y="421" on="1"/>
        <pt x="1456" y="507" on="0"/>
        <pt x="1519" y="595" on="0"/>
        <pt x="1519" y="629" on="1"/>
        <pt x="1519" y="687" on="0"/>
        <pt x="1454" y="687" on="1"/>
        <pt x="1373" y="687" on="0"/>
        <pt x="1282" y="599" on="1"/>
        <pt x="1140" y="765" on="1"/>
      </contour>
    </TTGlyph>
    <TTGlyph name="onequarter" xMin="-12" yMin="0" xMax="1798" yMax="1462">
      <contour>
        <pt x="547" y="586" on="1"/>
        <pt x="265" y="586" on="1"/>
        <pt x="265" y="942" on="1"/>
        <pt x="265" y="978" on="0"/>
        <pt x="273" y="1146" on="0"/>
        <pt x="275" y="1159" on="1"/>
        <pt x="267" y="1142" on="0"/>
        <pt x="216" y="1088" on="0"/>
        <pt x="134" y="1018" on="1"/>
        <pt x="-12" y="1188" on="1"/>
        <pt x="328" y="1462" on="1"/>
        <pt x="547" y="1462" on="1"/>
      </contour>
      <contour>
        <pt x="658" y="0" on="1"/>
        <pt x="357" y="0" on="1"/>
        <pt x="1110" y="1462" on="1"/>
        <pt x="1412" y="1462" on="1"/>
      </contour>
      <contour>
        <pt x="1673" y="341" on="1"/>
        <pt x="1798" y="341" on="1"/>
        <pt x="1798" y="140" on="1"/>
        <pt x="1673" y="140" on="1"/>
        <pt x="1673" y="0" on="1"/>
        <pt x="1398" y="0" on="1"/>
        <pt x="1398" y="140" on="1"/>
        <pt x="1028" y="140" on="1"/>
        <pt x="1028" y="328" on="1"/>
        <pt x="1378" y="883" on="1"/>
        <pt x="1673" y="883" on="1"/>
      </contour>
      <contour>
        <pt x="1398" y="341" on="1"/>
        <pt x="1398" y="507" on="1"/>
        <pt x="1398" y="580" on="0"/>
        <pt x="1405" y="642" on="1"/>
        <pt x="1364" y="539" on="0"/>
        <pt x="1343" y="509" on="1"/>
        <pt x="1241" y="341" on="1"/>
      </contour>
    </TTGlyph>
    <TTGlyph name="onesuperior" xMin="57" yMin="586" xMax="616" yMax="1462">
      <contour>
        <pt x="616" y="586" on="1"/>
        <pt x="334" y="586" on="1"/>
        <pt x="334" y="942" on="1"/>
        <pt x="334" y="978" on="0"/>
        <pt x="342" y="1146" on="0"/>
        <pt x="344" y="1159" on="1"/>
        <pt x="336" y="1142" on="0"/>
        <pt x="285" y="1088" on="0"/>
        <pt x="203" y="1018" on="1"/>
        <pt x="57" y="1188" on="1"/>
        <pt x="397" y="1462" on="1"/>
        <pt x="616" y="1462" on="1"/>
      </contour>
    </TTGlyph>
    <TTGlyph name="oslash" xMin="86" yMin="-117" xMax="1274" yMax="1225">
      <contour>
        <pt x="1090" y="1016" on="1"/>
        <pt x="1274" y="859" on="0"/>
        <pt x="1274" y="289" on="0"/>
        <pt x="961" y="-20" on="0"/>
        <pt x="678" y="-20" on="1"/>
        <pt x="551" y="-20" on="0"/>
        <pt x="449" y="14" on="1"/>
        <pt x="365" y="-117" on="1"/>
        <pt x="195" y="-10" on="1"/>
        <pt x="274" y="113" on="1"/>
        <pt x="86" y="271" on="0"/>
        <pt x="86" y="569" on="1"/>
        <pt x="86" y="846" on="0"/>
        <pt x="400" y="1153" on="0"/>
        <pt x="684" y="1153" on="1"/>
        <pt x="808" y="1153" on="0"/>
        <pt x="918" y="1114" on="1"/>
        <pt x="989" y="1225" on="1"/>
        <pt x="1157" y="1120" on="1"/>
      </contour>
      <contour>
        <pt x="680" y="883" on="1"/>
        <pt x="566" y="883" on="0"/>
        <pt x="461" y="734" on="0"/>
        <pt x="461" y="569" on="1"/>
        <pt x="461" y="470" on="0"/>
        <pt x="473" y="422" on="1"/>
        <pt x="762" y="870" on="1"/>
        <pt x="727" y="883" on="0"/>
      </contour>
      <contour>
        <pt x="682" y="250" on="1"/>
        <pt x="797" y="250" on="0"/>
        <pt x="899" y="397" on="0"/>
        <pt x="899" y="569" on="1"/>
        <pt x="899" y="657" on="0"/>
        <pt x="889" y="700" on="1"/>
        <pt x="606" y="258" on="1"/>
        <pt x="635" y="250" on="0"/>
      </contour>
    </TTGlyph>
    <TTGlyph name="otilde" xMin="86" yMin="-20" xMax="1217" yMax="1581">
      <contour>
        <pt x="828" y="1239" on="1"/>
        <pt x="765" y="1239" on="0"/>
        <pt x="531" y="1335" on="0"/>
        <pt x="484" y="1335" on="1"/>
        <pt x="430" y="1335" on="0"/>
        <pt x="412" y="1237" on="1"/>
        <pt x="232" y="1237" on="1"/>
        <pt x="243" y="1412" on="0"/>
        <pt x="365" y="1579" on="0"/>
        <pt x="484" y="1579" on="1"/>
        <pt x="534" y="1579" on="0"/>
        <pt x="770" y="1483" on="0"/>
        <pt x="820" y="1483" on="1"/>
        <pt x="874" y="1483" on="0"/>
        <pt x="892" y="1581" on="1"/>
        <pt x="1074" y="1581" on="1"/>
        <pt x="1063" y="1414" on="0"/>
        <pt x="937" y="1239" on="0"/>
      </contour>
      <contour>
        <pt x="664" y="1153" on="1"/>
        <pt x="823" y="1153" on="0"/>
        <pt x="1077" y="1011" on="0"/>
        <pt x="1217" y="747" on="0"/>
        <pt x="1217" y="579" on="1"/>
        <pt x="1217" y="574" on="0"/>
        <pt x="1217" y="569" on="1"/>
        <pt x="1217" y="291" on="0"/>
        <pt x="917" y="-20" on="0"/>
        <pt x="391" y="-20" on="0"/>
        <pt x="238" y="139" on="1"/>
        <pt x="86" y="299" on="0"/>
        <pt x="86" y="846" on="0"/>
        <pt x="235" y="998" on="1"/>
        <pt x="384" y="1153" on="0"/>
        <pt x="655" y="1153" on="1"/>
        <pt x="659" y="1153" on="0"/>
      </contour>
      <contour>
        <pt x="819" y="718" on="0"/>
        <pt x="741" y="862" on="0"/>
        <pt x="563" y="862" on="0"/>
        <pt x="483" y="718" on="0"/>
        <pt x="483" y="419" on="0"/>
        <pt x="563" y="270" on="0"/>
        <pt x="741" y="270" on="0"/>
        <pt x="819" y="418" on="0"/>
      </contour>
    </TTGlyph>
    <TTGlyph name="overscore" xMin="-6" yMin="1556" xMax="1030" yMax="1802">
      <contour>
        <pt x="1030" y="1556" on="1"/>
        <pt x="-6" y="1556" on="1"/>
        <pt x="-6" y="1802" on="1"/>
        <pt x="1030" y="1802" on="1"/>
      </contour>
    </TTGlyph>
    <TTGlyph name="p" xMin="135" yMin="-492" xMax="1229" yMax="1153">
      <contour>
        <pt x="526" y="988" on="1"/>
        <pt x="636" y="1153" on="0"/>
        <pt x="1016" y="1153" on="0"/>
        <pt x="1122" y="996" on="1"/>
        <pt x="1229" y="841" on="0"/>
        <pt x="1229" y="294" on="0"/>
        <pt x="1006" y="-20" on="0"/>
        <pt x="815" y="-20" on="1"/>
        <pt x="726" y="-20" on="0"/>
        <pt x="591" y="39" on="0"/>
        <pt x="526" y="111" on="1"/>
        <pt x="508" y="111" on="1"/>
        <pt x="526" y="-7" on="0"/>
        <pt x="526" y="-37" on="1"/>
        <pt x="526" y="-492" on="1"/>
        <pt x="135" y="-492" on="1"/>
        <pt x="135" y="1133" on="1"/>
        <pt x="453" y="1133" on="1"/>
        <pt x="508" y="988" on="1"/>
      </contour>
      <contour>
        <pt x="526" y="571" on="1"/>
        <pt x="526" y="426" on="0"/>
        <pt x="604" y="295" on="0"/>
        <pt x="763" y="295" on="0"/>
        <pt x="831" y="425" on="0"/>
        <pt x="831" y="719" on="0"/>
        <pt x="763" y="846" on="0"/>
        <pt x="601" y="846" on="0"/>
        <pt x="529" y="728" on="0"/>
        <pt x="526" y="602" on="1"/>
      </contour>
    </TTGlyph>
    <TTGlyph name="paragraph" xMin="102" yMin="-260" xMax="1186" yMax="1556">
      <contour>
        <pt x="1186" y="-260" on="1"/>
        <pt x="994" y="-260" on="1"/>
        <pt x="994" y="1327" on="1"/>
        <pt x="838" y="1327" on="1"/>
        <pt x="838" y="-260" on="1"/>
        <pt x="647" y="-260" on="1"/>
        <pt x="647" y="559" on="1"/>
        <pt x="593" y="541" on="0"/>
        <pt x="522" y="541" on="1"/>
        <pt x="307" y="541" on="0"/>
        <pt x="102" y="789" on="0"/>
        <pt x="102" y="1301" on="0"/>
        <pt x="320" y="1556" on="0"/>
        <pt x="553" y="1556" on="1"/>
        <pt x="1186" y="1556" on="1"/>
      </contour>
    </TTGlyph>
    <TTGlyph name="parenleft" xMin="74" yMin="-324" xMax="680" yMax="1503">
      <contour>
        <pt x="680" y="1503" on="1"/>
        <pt x="553" y="1326" on="0"/>
        <pt x="418" y="852" on="0"/>
        <pt x="418" y="324" on="0"/>
        <pt x="549" y="-144" on="0"/>
        <pt x="678" y="-324" on="1"/>
        <pt x="354" y="-324" on="1"/>
        <pt x="74" y="-1" on="0"/>
        <pt x="74" y="1168" on="0"/>
        <pt x="354" y="1503" on="1"/>
      </contour>
    </TTGlyph>
    <TTGlyph name="parenright" xMin="55" yMin="-324" xMax="662" yMax="1503">
      <contour>
        <pt x="519" y="1338" on="0"/>
        <pt x="662" y="866" on="0"/>
        <pt x="662" y="299" on="0"/>
        <pt x="519" y="-165" on="0"/>
        <pt x="381" y="-324" on="1"/>
        <pt x="57" y="-324" on="1"/>
        <pt x="182" y="-153" on="0"/>
        <pt x="317" y="319" on="0"/>
        <pt x="317" y="851" on="0"/>
        <pt x="184" y="1324" on="0"/>
        <pt x="55" y="1503" on="1"/>
        <pt x="381" y="1503" on="1"/>
      </contour>
    </TTGlyph>
    <TTGlyph name="pedageshhb" xMin="86" yMin="-20" xMax="1222" yMax="1315">
      <contour>
        <pt x="86" y="848" on="1"/>
        <pt x="86" y="953" on="0"/>
        <pt x="156" y="1118" on="0"/>
        <pt x="267" y="1221" on="0"/>
        <pt x="344" y="1254" on="1"/>
        <pt x="482" y="1315" on="0"/>
        <pt x="654" y="1315" on="1"/>
        <pt x="854" y="1315" on="0"/>
        <pt x="986" y="1228" on="1"/>
        <pt x="1034" y="1196" on="0"/>
        <pt x="1124" y="1092" on="0"/>
        <pt x="1154" y="1024" on="1"/>
        <pt x="1222" y="874" on="0"/>
        <pt x="1222" y="648" on="1"/>
        <pt x="1222" y="486" on="0"/>
        <pt x="1160" y="245" on="0"/>
        <pt x="1059" y="100" on="0"/>
        <pt x="907" y="11" on="0"/>
        <pt x="751" y="-20" on="0"/>
        <pt x="528" y="-20" on="0"/>
        <pt x="301" y="-6" on="0"/>
        <pt x="250" y="2" on="1"/>
        <pt x="198" y="9" on="1"/>
        <pt x="198" y="302" on="1"/>
        <pt x="426" y="280" on="0"/>
        <pt x="654" y="280" on="1"/>
        <pt x="755" y="280" on="0"/>
        <pt x="793" y="371" on="1"/>
        <pt x="817" y="427" on="0"/>
        <pt x="826" y="542" on="0"/>
        <pt x="828" y="602" on="0"/>
        <pt x="828" y="694" on="0"/>
        <pt x="826" y="754" on="0"/>
        <pt x="819" y="837" on="0"/>
        <pt x="806" y="890" on="0"/>
        <pt x="780" y="950" on="0"/>
        <pt x="762" y="966" on="1"/>
        <pt x="719" y="1006" on="0"/>
        <pt x="607" y="1006" on="0"/>
        <pt x="536" y="979" on="0"/>
        <pt x="502" y="945" on="0"/>
        <pt x="492" y="922" on="1"/>
        <pt x="478" y="889" on="0"/>
        <pt x="478" y="817" on="0"/>
        <pt x="506" y="755" on="0"/>
        <pt x="528" y="739" on="1"/>
        <pt x="564" y="713" on="0"/>
        <pt x="601" y="704" on="1"/>
        <pt x="683" y="687" on="1"/>
        <pt x="621" y="408" on="1"/>
        <pt x="524" y="414" on="1"/>
        <pt x="86" y="442" on="0"/>
      </contour>
      <contour>
        <pt x="560" y="887" on="0"/>
        <pt x="610" y="933" on="0"/>
        <pt x="697" y="933" on="0"/>
        <pt x="749" y="885" on="0"/>
        <pt x="749" y="807" on="0"/>
        <pt x="697" y="760" on="0"/>
        <pt x="609" y="760" on="0"/>
        <pt x="560" y="805" on="0"/>
      </contour>
    </TTGlyph>
    <TTGlyph name="percent" xMin="37" yMin="-16" xMax="1903" yMax="1483">
      <contour>
        <pt x="37" y="1245" on="0"/>
        <pt x="232" y="1483" on="0"/>
        <pt x="584" y="1483" on="0"/>
        <pt x="791" y="1238" on="0"/>
        <pt x="791" y="806" on="0"/>
        <pt x="593" y="565" on="0"/>
        <pt x="237" y="565" on="0"/>
        <pt x="37" y="813" on="0"/>
      </contour>
      <contour>
        <pt x="709" y="0" on="1"/>
        <pt x="412" y="0" on="1"/>
        <pt x="1223" y="1462" on="1"/>
        <pt x="1520" y="1462" on="1"/>
      </contour>
      <contour>
        <pt x="453" y="1239" on="0"/>
        <pt x="375" y="1239" on="0"/>
        <pt x="338" y="1135" on="0"/>
        <pt x="338" y="1022" on="1"/>
        <pt x="338" y="805" on="0"/>
        <pt x="414" y="805" on="1"/>
        <pt x="453" y="805" on="0"/>
        <pt x="489" y="907" on="0"/>
        <pt x="489" y="1136" on="0"/>
      </contour>
      <contour>
        <pt x="1149" y="663" on="0"/>
        <pt x="1344" y="901" on="0"/>
        <pt x="1696" y="901" on="0"/>
        <pt x="1903" y="656" on="0"/>
        <pt x="1903" y="225" on="0"/>
        <pt x="1704" y="-16" on="0"/>
        <pt x="1349" y="-16" on="0"/>
        <pt x="1149" y="232" on="0"/>
      </contour>
      <contour>
        <pt x="1526" y="657" on="1"/>
        <pt x="1487" y="657" on="0"/>
        <pt x="1450" y="553" on="0"/>
        <pt x="1450" y="440" on="1"/>
        <pt x="1450" y="223" on="0"/>
        <pt x="1602" y="223" on="0"/>
        <pt x="1602" y="657" on="0"/>
      </contour>
    </TTGlyph>
    <TTGlyph name="period" xMin="86" yMin="-25" xMax="504" yMax="358">
      <contour>
        <pt x="86" y="259" on="0"/>
        <pt x="195" y="358" on="0"/>
        <pt x="398" y="358" on="0"/>
        <pt x="504" y="258" on="0"/>
        <pt x="504" y="76" on="0"/>
        <pt x="395" y="-25" on="0"/>
        <pt x="199" y="-25" on="0"/>
        <pt x="86" y="76" on="0"/>
      </contour>
    </TTGlyph>
    <TTGlyph name="periodcentered" xMin="86" yMin="530" xMax="504" yMax="915">
      <contour>
        <pt x="86" y="816" on="0"/>
        <pt x="195" y="915" on="0"/>
        <pt x="398" y="915" on="0"/>
        <pt x="504" y="815" on="0"/>
        <pt x="504" y="633" on="0"/>
        <pt x="395" y="530" on="0"/>
        <pt x="199" y="530" on="0"/>
        <pt x="86" y="632" on="0"/>
      </contour>
    </TTGlyph>
</ttFont>
